<?xml version="1.0" encoding="utf-8"?>
<!-- Generator: Adobe Illustrator 26.3.0, SVG Export Plug-In . SVG Version: 6.00 Build 0)  -->
<svg version="1.1" id="Layer_1" xmlns="http://www.w3.org/2000/svg" xmlns:xlink="http://www.w3.org/1999/xlink" x="0px" y="0px"
	 viewBox="0 0 422.7 143.7" style="enable-background:new 0 0 422.7 143.7;" xml:space="preserve">
<style type="text/css">
	.st0{fill:#F3767A;}
	.st1{fill:none;stroke:#FFFFFF;stroke-width:0.75;stroke-miterlimit:10;}
	.st2{fill:#FFFFFF;}
	.st3{fill:none;stroke:#FFFFFF;stroke-width:2;stroke-linecap:round;stroke-linejoin:round;}
	.st4{fill:none;stroke:#FFFFFF;stroke-width:0.5;stroke-linecap:round;stroke-linejoin:round;}
</style>
<g id="Layer_3">
	<path class="st0" d="M10.3,1.6h402c5,0,9,4,9,9V133c0,5-4,9-9,9h-402c-5,0-9-4-9-9V10.6C1.3,5.6,5.3,1.6,10.3,1.6z"/>
	<line class="st1" x1="1.3" y1="22" x2="421.3" y2="22"/>
	<line class="st1" x1="1.3" y1="122.1" x2="408.4" y2="122.1"/>
	<line class="st1" x1="1.3" y1="102.1" x2="407" y2="102.1"/>
	<line class="st1" x1="1.3" y1="82.1" x2="411" y2="82.1"/>
	<line class="st1" x1="1.3" y1="62" x2="421.3" y2="62"/>
	<line class="st1" x1="1.3" y1="42" x2="421.3" y2="42"/>
	<line class="st1" x1="118.3" y1="0" x2="118.3" y2="142.1"/>
	<line class="st1" x1="194" y1="-1.6" x2="194" y2="142.1"/>
	<line class="st1" x1="269.7" y1="-1.6" x2="269.7" y2="142.1"/>
	<line class="st1" x1="345.4" y1="-1.2" x2="345.4" y2="142.1"/>
	<path class="st2" d="M8.2,130.1c0-0.2,0.2-0.4,0.4-0.4h0.1c0.1,0,0.2,0,0.2,0.1c0.1,0,0.1,0.1,0.2,0.2l1.5,2.3l1.5-2.3
		c0.1-0.1,0.2-0.2,0.4-0.2h0.1c0.1,0,0.2,0,0.3,0.1c0.1,0.1,0.1,0.2,0.1,0.3v4.1c0,0.1,0,0.2-0.1,0.3c-0.1,0.1-0.2,0.1-0.3,0.1
		c-0.1,0-0.2,0-0.3-0.1c-0.1-0.1-0.1-0.2-0.1-0.3v-2.9l-1.2,1.8c0,0.1-0.1,0.1-0.2,0.2c-0.1,0-0.1,0.1-0.2,0.1c-0.1,0-0.1,0-0.2-0.1
		c-0.1,0-0.1-0.1-0.2-0.2l-1.1-1.8v2.9c0,0.1,0,0.2-0.1,0.3c-0.2,0.2-0.4,0.2-0.6,0c-0.1-0.1-0.1-0.2-0.1-0.3L8.2,130.1z"/>
	<path class="st2" d="M13.9,134.2c0-0.1,0-0.1,0.1-0.2l1.8-4.1c0-0.1,0.1-0.2,0.2-0.3c0.1-0.1,0.2-0.1,0.3-0.1h0
		c0.1,0,0.2,0,0.3,0.1c0.1,0.1,0.2,0.2,0.2,0.3l1.8,4.1c0,0.1,0,0.1,0,0.2c0,0.2-0.2,0.4-0.4,0.4c-0.1,0-0.2,0-0.2-0.1
		c-0.1-0.1-0.1-0.1-0.2-0.2l-0.4-0.9h-2.3l-0.4,0.9c-0.1,0.2-0.2,0.3-0.4,0.3c-0.1,0-0.2,0-0.3-0.1C14,134.4,13.9,134.3,13.9,134.2z
		 M17.2,132.6l-0.9-2l-0.9,2H17.2z M16.3,129.2c0,0-0.1,0-0.2,0c0,0-0.1-0.1-0.1-0.1c0,0,0-0.1,0-0.1c0,0,0,0,0-0.1l0.4-0.6
		c0.1-0.1,0.2-0.2,0.3-0.2c0.1,0,0.1,0,0.2,0l0.2,0.1l0.1,0.1c0,0,0,0.1,0,0.1c0,0.1,0,0.2-0.1,0.2l-0.5,0.4
		c-0.1,0.1-0.2,0.1-0.2,0.1C16.4,129.2,16.3,129.2,16.3,129.2z"/>
	<path class="st2" d="M20.4,132.6l-1.7-2.3l-0.1-0.1c0-0.1,0-0.1,0-0.2c0-0.1,0-0.2,0.1-0.3c0.1-0.1,0.2-0.1,0.3-0.1
		c0.1,0,0.2,0,0.2,0.1c0.1,0.1,0.1,0.1,0.2,0.2l1.4,2l1.4-2c0-0.1,0.1-0.1,0.2-0.2c0.1-0.1,0.2-0.1,0.2-0.1c0.2,0,0.4,0.2,0.4,0.4
		c0,0,0,0,0,0c0,0.1,0,0.1,0,0.2c0,0,0,0.1-0.1,0.1l-1.7,2.3v1.5c0,0.1,0,0.2-0.1,0.3c-0.1,0.1-0.2,0.1-0.3,0.1
		c-0.1,0-0.2,0-0.3-0.1c-0.1-0.1-0.1-0.2-0.1-0.3L20.4,132.6z"/>
	<path class="st2" d="M27.6,134.5c-0.1-0.1-0.1-0.2-0.2-0.2l-1.7-4v-0.1c0,0,0-0.1,0-0.1c0-0.1,0-0.2,0.1-0.3c0.2-0.1,0.4-0.1,0.6,0
		c0.1,0.1,0.1,0.1,0.2,0.2l1.4,3.5l1.4-3.6c0-0.1,0.1-0.1,0.2-0.2c0.1-0.1,0.2-0.1,0.3-0.1c0.1,0,0.2,0,0.3,0.1
		c0.1,0.1,0.1,0.2,0.1,0.3c0,0,0,0.1,0,0.1c0,0,0,0.1,0,0.1l-1.7,4.1c0,0.1-0.1,0.2-0.2,0.2c-0.1,0.1-0.2,0.1-0.3,0.1l0,0
		C27.9,134.7,27.7,134.7,27.6,134.5z"/>
	<path class="st2" d="M31.6,134.6c-0.2,0-0.4-0.2-0.4-0.4c0,0,0,0,0,0v-4c0-0.2,0.2-0.4,0.4-0.4c0,0,0,0,0,0h2.8
		c0.1,0,0.2,0,0.3,0.1c0.1,0.1,0.1,0.2,0.1,0.3c0,0.1,0,0.2-0.1,0.3c-0.1,0.1-0.2,0.1-0.3,0.1h-2.4v1.3h2.1c0.1,0,0.2,0,0.3,0.1
		c0.1,0.1,0.1,0.2,0.1,0.3c0,0.1,0,0.2-0.1,0.3c-0.1,0.1-0.2,0.1-0.3,0.1h-2.1v1.3h2.5c0.1,0,0.2,0,0.3,0.1c0.1,0.1,0.1,0.2,0.1,0.3
		c0,0.1,0,0.2-0.1,0.3c-0.1,0.1-0.2,0.1-0.3,0.1L31.6,134.6z M32.6,129.1c-0.1,0.1-0.2,0.1-0.2,0.1c-0.1,0-0.2,0-0.3,0
		c0,0-0.1,0-0.1,0c0,0,0-0.1,0-0.1c0,0,0-0.1,0-0.1L32,129l0.5-0.6c0-0.1,0.1-0.1,0.2-0.1c0.1,0,0.2-0.1,0.2-0.1h0.2
		c0.1,0,0.2,0,0.2,0.1c0.1,0,0.1,0.1,0.2,0.1l0.5,0.6l0.1,0.1c0,0,0,0.1,0,0.1c0,0,0,0.1-0.1,0.1c0,0-0.1,0-0.1,0
		c-0.1,0-0.2,0-0.3,0c-0.1,0-0.2-0.1-0.3-0.1l-0.4-0.3L32.6,129.1z M32.5,135.3c0-0.1,0-0.3,0.1-0.4c0.2-0.2,0.5-0.2,0.7,0
		c0.1,0.1,0.1,0.2,0.1,0.4v0.1c0,0.1,0,0.3-0.1,0.3c-0.2,0.2-0.5,0.2-0.7,0C32.6,135.7,32.5,135.5,32.5,135.3L32.5,135.3z"/>
	<path class="st2" d="M39.7,134.6c-0.7,0-1.3-0.2-1.8-0.6c0,0-0.1-0.1-0.1-0.1c0-0.1,0-0.1,0-0.2c0-0.1,0-0.2,0.1-0.3
		c0.1-0.1,0.2-0.1,0.3-0.1c0,0,0.1,0,0.2,0c0,0,0.1,0,0.1,0c0.2,0.2,0.4,0.3,0.6,0.4c0.2,0.1,0.5,0.1,0.7,0.1c0.2,0,0.4,0,0.6-0.2
		c0.1-0.1,0.2-0.3,0.2-0.4l0,0c0-0.1,0-0.2,0-0.2c0-0.1-0.1-0.1-0.2-0.2c-0.1-0.1-0.2-0.1-0.3-0.2c-0.2-0.1-0.4-0.1-0.6-0.1
		c-0.2-0.1-0.5-0.1-0.7-0.2c-0.2-0.1-0.4-0.2-0.5-0.3c-0.1-0.1-0.2-0.3-0.3-0.4c-0.1-0.2-0.1-0.4-0.1-0.6l0,0c0-0.2,0-0.4,0.1-0.6
		c0.1-0.2,0.2-0.3,0.3-0.4c0.2-0.1,0.3-0.2,0.5-0.3c0.2-0.1,0.4-0.1,0.7-0.1c0.3,0,0.6,0,0.8,0.1c0.3,0.1,0.5,0.2,0.7,0.4
		c0.1,0,0.1,0.1,0.1,0.1c0,0.1,0,0.1,0,0.2c0,0.1,0,0.2-0.1,0.3c-0.1,0.1-0.2,0.1-0.3,0.1c-0.1,0-0.2,0-0.2-0.1
		c-0.2-0.1-0.4-0.2-0.6-0.3c-0.2-0.1-0.4-0.1-0.6-0.1c-0.2,0-0.4,0-0.6,0.2c-0.1,0.1-0.2,0.2-0.2,0.4l0,0c0,0.1,0,0.2,0,0.2
		c0,0.1,0.1,0.2,0.2,0.2c0.1,0.1,0.2,0.1,0.3,0.2l0.6,0.2c0.2,0.1,0.5,0.1,0.7,0.2c0.2,0.1,0.4,0.2,0.5,0.3c0.1,0.1,0.2,0.2,0.3,0.4
		c0.1,0.2,0.1,0.3,0.1,0.5l0,0c0,0.2,0,0.4-0.1,0.6c-0.1,0.2-0.2,0.3-0.4,0.5c-0.2,0.1-0.3,0.2-0.6,0.3
		C40.1,134.5,39.9,134.6,39.7,134.6z"/>
	<path class="st2" d="M42.5,130.1c0-0.1,0-0.2,0.1-0.3c0.2-0.2,0.4-0.2,0.6,0c0,0,0,0,0,0c0.1,0.1,0.1,0.2,0.1,0.3v4.1
		c0,0.1,0,0.2-0.1,0.3c-0.2,0.2-0.4,0.2-0.6,0c-0.1-0.1-0.1-0.2-0.1-0.3V130.1z"/>
	<path class="st2" d="M44.7,130.1c0-0.1,0-0.2,0.1-0.3c0.1-0.1,0.2-0.1,0.3-0.1h0.1c0.1,0,0.2,0,0.3,0.1c0.1,0.1,0.1,0.1,0.2,0.2
		l2.4,3.2v-3c0-0.1,0-0.2,0.1-0.3c0.2-0.2,0.4-0.2,0.6,0c0,0,0,0,0,0c0.1,0.1,0.1,0.2,0.1,0.3v4.1c0,0.1,0,0.2-0.1,0.3
		c-0.1,0.1-0.2,0.1-0.3,0.1l0,0c-0.1,0-0.2,0-0.2-0.1c-0.1-0.1-0.1-0.1-0.2-0.2l-2.5-3.3v3.1c0,0.2-0.2,0.4-0.4,0.4
		s-0.4-0.2-0.4-0.4c0,0,0,0,0,0L44.7,130.1z"/>
	<path class="st2" d="M50.2,130.1c0-0.1,0-0.2,0.1-0.3c0.2-0.2,0.4-0.2,0.6,0c0,0,0,0,0,0c0.1,0.1,0.1,0.2,0.1,0.3v1.6h2.3v-1.6
		c0-0.1,0-0.2,0.1-0.3c0.1-0.1,0.2-0.1,0.3-0.1c0.1,0,0.2,0,0.3,0.1c0.1,0.1,0.1,0.2,0.1,0.3v4.1c0,0.1,0,0.2-0.1,0.3
		c-0.1,0.1-0.2,0.1-0.3,0.1c-0.2,0-0.4-0.2-0.4-0.4c0,0,0,0,0,0v-1.7h-2.3v1.7c0,0.1,0,0.2-0.1,0.3c-0.2,0.2-0.4,0.2-0.6,0
		c-0.1-0.1-0.1-0.2-0.1-0.3L50.2,130.1z"/>
	<path class="st2" d="M58.8,130.5h-1.2c-0.1,0-0.2,0-0.3-0.1c-0.1-0.1-0.1-0.2-0.1-0.3c0-0.1,0-0.2,0.1-0.3c0.1-0.1,0.2-0.1,0.3-0.1
		h3.3c0.1,0,0.2,0,0.3,0.1c0.1,0.1,0.1,0.2,0.1,0.3c0,0.1,0,0.2-0.1,0.3c-0.1,0.1-0.2,0.1-0.3,0.1h-1.2v3.7c0,0.1,0,0.2-0.1,0.3
		c-0.1,0.1-0.2,0.1-0.3,0.1c-0.1,0-0.2,0-0.3-0.1c-0.1-0.1-0.1-0.2-0.1-0.3V130.5z"/>
	<path class="st2" d="M66.5,128.6c0.1,0,0.3,0.1,0.4,0.2c0.1,0.1,0.1,0.3,0.1,0.4v0.1c0,0.2,0,0.4-0.1,0.6c-0.1,0.2-0.1,0.3-0.2,0.4
		c-0.1,0.1-0.3,0.2-0.4,0.2v1.9c0,0.3,0,0.7-0.2,1c-0.1,0.3-0.2,0.5-0.4,0.7c-0.2,0.2-0.4,0.3-0.7,0.4c-0.3,0.1-0.6,0.1-0.9,0.1
		c-0.3,0-0.6,0-0.9-0.1c-0.2-0.1-0.5-0.2-0.7-0.4c-0.2-0.2-0.3-0.4-0.4-0.7c-0.1-0.3-0.1-0.6-0.1-0.9v-2.4c0-0.1,0-0.2,0.1-0.3
		c0.1-0.1,0.2-0.1,0.3-0.1c0.2,0,0.4,0.2,0.4,0.4v2.4c0,0.4,0.1,0.7,0.3,1c0.2,0.2,0.6,0.4,0.9,0.4c0.3,0,0.7-0.1,0.9-0.3
		c0.2-0.3,0.4-0.6,0.3-1v-2.4c0-0.1,0-0.2,0.1-0.3c0.2-0.2,0.4-0.2,0.6,0c0,0,0,0,0,0c0.1,0.1,0.1,0.2,0.1,0.3l0,0
		c0.1-0.1,0.2-0.3,0.2-0.5c-0.1,0-0.2-0.1-0.3-0.2c-0.1-0.1-0.1-0.2-0.1-0.3v-0.1C66,128.8,66.2,128.6,66.5,128.6
		C66.5,128.6,66.5,128.6,66.5,128.6L66.5,128.6z M63.7,135.4c0-0.1,0-0.3,0.1-0.3c0.2-0.2,0.5-0.2,0.7,0c0.1,0.1,0.1,0.2,0.1,0.3
		v0.1c0,0.1,0,0.3-0.1,0.3c-0.2,0.2-0.5,0.2-0.7,0C63.7,135.7,63.7,135.6,63.7,135.4L63.7,135.4z"/>
	<path class="st2" d="M69.7,131.7v-1.6c0-0.2,0.2-0.4,0.4-0.4c0,0,0,0,0,0h1.4c0.3,0,0.7,0.1,1,0.2c0.3,0.1,0.6,0.3,0.8,0.5
		c0.2,0.2,0.4,0.5,0.5,0.8c0.1,0.3,0.2,0.7,0.2,1l0,0c0,0.3-0.1,0.7-0.2,1c-0.1,0.3-0.3,0.6-0.5,0.8c-0.2,0.2-0.5,0.4-0.8,0.5
		c-0.3,0.1-0.7,0.2-1,0.2h-1.4c-0.2,0-0.4-0.2-0.4-0.4l0,0v-1.6h-0.2c-0.1,0-0.2,0-0.3-0.1c-0.1-0.1-0.1-0.2-0.1-0.3
		c0-0.1,0-0.2,0.1-0.3c0.1-0.1,0.2-0.1,0.3-0.1L69.7,131.7z M70.6,131.7h0.9c0.2,0,0.4,0.2,0.4,0.4l0,0c0,0.1,0,0.2-0.1,0.3
		c-0.1,0.1-0.2,0.1-0.3,0.1h-0.9v1.3h1c0.2,0,0.5,0,0.7-0.1c0.2-0.1,0.4-0.2,0.5-0.3c0.2-0.2,0.3-0.3,0.3-0.5
		c0.1-0.2,0.1-0.4,0.1-0.7l0,0c0-0.2,0-0.5-0.1-0.7c-0.1-0.2-0.2-0.4-0.3-0.5c-0.2-0.1-0.3-0.3-0.5-0.3c-0.2-0.1-0.5-0.1-0.7-0.1h-1
		V131.7z"/>
	<path class="st2" d="M77.6,134.6c-0.3,0-0.7-0.1-1-0.2c-0.3-0.1-0.6-0.3-0.8-0.5c-0.2-0.2-0.4-0.5-0.5-0.8c-0.1-0.3-0.2-0.7-0.2-1
		l0,0c0-0.3,0.1-0.7,0.2-1c0.3-0.6,0.7-1.1,1.3-1.4c0.3-0.1,0.7-0.2,1-0.2c0.3,0,0.7,0.1,1,0.2c0.3,0.1,0.6,0.3,0.8,0.6
		c0.2,0.2,0.4,0.5,0.5,0.8c0.1,0.3,0.2,0.7,0.2,1l0,0c0,0.3-0.1,0.7-0.2,1c-0.1,0.3-0.3,0.6-0.5,0.8
		C78.9,134.4,78.2,134.7,77.6,134.6L77.6,134.6z M77.6,133.8c0.2,0,0.5,0,0.7-0.1c0.2-0.1,0.4-0.2,0.5-0.4c0.1-0.2,0.3-0.3,0.3-0.6
		c0.1-0.2,0.1-0.4,0.1-0.7l0,0c0-0.2,0-0.5-0.1-0.7c-0.2-0.4-0.5-0.7-0.9-0.9c-0.2-0.1-0.4-0.1-0.7-0.1c-0.2,0-0.5,0-0.7,0.1
		c-0.2,0.1-0.4,0.2-0.5,0.4c-0.1,0.2-0.3,0.3-0.3,0.6c-0.1,0.2-0.1,0.4-0.1,0.7l0,0c0,0.5,0.2,0.9,0.5,1.2c0.1,0.2,0.3,0.3,0.5,0.4
		C77.1,133.8,77.3,133.8,77.6,133.8L77.6,133.8z M77.2,129c-0.1,0.1-0.2,0.1-0.3,0.1c-0.1,0-0.2,0-0.3,0c0,0-0.1,0-0.1,0
		c0,0-0.1-0.1-0.1-0.1c0,0,0-0.1,0-0.1c0,0,0-0.1,0.1-0.1l0.5-0.6c0-0.1,0.1-0.1,0.2-0.1c0.1,0,0.1-0.1,0.2-0.1h0.3
		c0.1,0,0.2,0,0.2,0.1c0.1,0,0.1,0.1,0.2,0.1l0.5,0.6c0,0,0,0.1,0.1,0.1c0,0,0,0.1,0,0.1c0,0,0,0.1-0.1,0.1c0,0-0.1,0-0.1,0
		c-0.1,0-0.2,0-0.3,0c-0.1,0-0.2-0.1-0.2-0.1l-0.4-0.3L77.2,129z M77,135.4c0-0.1,0-0.3,0.1-0.3c0.2-0.2,0.5-0.2,0.7,0
		c0.1,0.1,0.1,0.2,0.1,0.3v0.1c0,0.1,0,0.3-0.1,0.3c-0.2,0.2-0.5,0.2-0.7,0C77.1,135.7,77,135.6,77,135.4L77,135.4z"/>
	<path class="st2" d="M81.2,130.1c0-0.1,0-0.2,0.1-0.3c0.1-0.1,0.2-0.1,0.3-0.1h0.1c0.1,0,0.2,0,0.3,0.1c0.1,0.1,0.1,0.1,0.2,0.2
		l2.4,3.2v-3c0-0.1,0-0.2,0.1-0.3c0.2-0.2,0.4-0.2,0.6,0c0,0,0,0,0,0c0.1,0.1,0.1,0.2,0.1,0.3v4.1c0,0.1,0,0.2-0.1,0.3
		c-0.1,0.1-0.2,0.1-0.3,0.1l0,0c-0.1,0-0.2,0-0.3-0.1c-0.1-0.1-0.1-0.1-0.2-0.2l-2.5-3.3v3.1c0,0.2-0.2,0.4-0.4,0.4
		s-0.4-0.2-0.4-0.4c0,0,0,0,0,0L81.2,130.1z"/>
	<path class="st2" d="M89.1,134.6c-0.3,0-0.7-0.1-1-0.2c-0.3-0.1-0.6-0.3-0.8-0.5c-0.2-0.2-0.4-0.5-0.5-0.8c-0.1-0.3-0.2-0.7-0.2-1
		l0,0c0-0.3,0.1-0.7,0.2-1c0.1-0.3,0.3-0.6,0.5-0.8c0.2-0.2,0.5-0.4,0.8-0.6c0.3-0.1,0.7-0.2,1-0.2c0.3,0,0.6,0,0.9,0.1
		c0.3,0.1,0.5,0.2,0.7,0.4c0,0,0.1,0.1,0.1,0.1c0,0.1,0.1,0.1,0.1,0.2c0,0.1,0,0.2-0.1,0.3c-0.1,0.1-0.2,0.1-0.3,0.1
		c0,0-0.1,0-0.1,0l-0.1-0.1c-0.2-0.1-0.3-0.2-0.5-0.3c-0.2-0.1-0.4-0.1-0.7-0.1c-0.2,0-0.4,0-0.6,0.1c-0.2,0.1-0.4,0.2-0.5,0.4
		c-0.1,0.2-0.3,0.3-0.3,0.6c-0.1,0.2-0.1,0.4-0.1,0.7l0,0c0,0.2,0,0.5,0.1,0.7c0.1,0.2,0.2,0.4,0.3,0.6c0.1,0.2,0.3,0.3,0.5,0.4
		c0.2,0.1,0.5,0.1,0.7,0.1c0.2,0,0.4,0,0.6-0.1c0.2-0.1,0.4-0.2,0.5-0.3v-0.9h-1c-0.1,0-0.2,0-0.3-0.1c-0.1-0.1-0.1-0.2-0.1-0.3
		c0-0.1,0-0.2,0.1-0.3c0.1-0.1,0.2-0.1,0.3-0.1h1.4c0.1,0,0.2,0,0.3,0.1c0.1,0.1,0.1,0.2,0.1,0.3v1.3c0,0.2-0.1,0.4-0.3,0.6
		c-0.2,0.2-0.5,0.3-0.8,0.4C89.7,134.6,89.4,134.6,89.1,134.6z"/>
	<path class="st2" d="M10.2,69.9c0-0.1,0-0.2,0.1-0.3c0.1-0.1,0.2-0.1,0.3-0.1c0.1,0,0.2,0,0.3,0.1c0.1,0.1,0.1,0.2,0.1,0.3V72
		l2.3-2.3l0.2-0.1c0.1,0,0.1,0,0.2,0c0.1,0,0.2,0,0.3,0.1c0.1,0.1,0.1,0.2,0.1,0.3c0,0.1-0.1,0.2-0.2,0.3l-1.5,1.5l1.6,2
		c0,0,0.1,0.1,0.1,0.1c0,0.1,0,0.1,0,0.2c0,0.1,0,0.2-0.1,0.3c-0.1,0.1-0.2,0.1-0.3,0.1c-0.1,0-0.1,0-0.2-0.1
		c-0.1,0-0.1-0.1-0.2-0.1l-1.6-2L11,73v1c0,0.1,0,0.2-0.1,0.3c-0.1,0.1-0.2,0.1-0.3,0.1c-0.1,0-0.2,0-0.3-0.1
		c-0.1-0.1-0.1-0.2-0.1-0.3L10.2,69.9z"/>
	<path class="st2" d="M15.2,69.9c0-0.1,0-0.2,0.1-0.3c0.1-0.1,0.2-0.1,0.3-0.1c0.1,0,0.2,0,0.3,0.1c0.1,0.1,0.1,0.2,0.1,0.3v1.7h2.3
		v-1.7c0-0.1,0-0.2,0.1-0.3c0.1-0.1,0.2-0.1,0.3-0.1c0.1,0,0.2,0,0.3,0.1c0.1,0.1,0.1,0.2,0.1,0.3V74c0,0.1,0,0.2-0.1,0.3
		c-0.1,0.1-0.2,0.1-0.3,0.1c-0.1,0-0.2,0-0.3-0.1c-0.1-0.1-0.1-0.2-0.1-0.3v-1.7h-2.3V74c0,0.1,0,0.2-0.1,0.3
		c-0.1,0.1-0.2,0.1-0.3,0.1c-0.1,0-0.2,0-0.3-0.1c-0.1-0.1-0.1-0.2-0.1-0.3L15.2,69.9z"/>
	<path class="st2" d="M24.9,68.5c0.1,0,0.3,0,0.4,0.2c0.1,0.1,0.1,0.3,0.1,0.4v0.1c0,0.2,0,0.4-0.1,0.6c-0.1,0.2-0.1,0.3-0.2,0.4
		c-0.1,0.1-0.3,0.2-0.4,0.3v1.9c0,0.3,0,0.7-0.2,1c-0.1,0.3-0.2,0.5-0.4,0.7c-0.2,0.2-0.4,0.3-0.7,0.4c-0.3,0.1-0.6,0.1-0.9,0.1
		c-0.3,0-0.6,0-0.9-0.1c-0.2-0.1-0.5-0.2-0.7-0.4c-0.2-0.2-0.3-0.4-0.4-0.7c-0.1-0.3-0.2-0.6-0.2-0.9v-2.4c0-0.1,0-0.2,0.1-0.3
		c0.1-0.1,0.2-0.1,0.3-0.1c0.2,0,0.4,0.2,0.4,0.4c0,0,0,0,0,0v2.4c0,0.4,0.1,0.7,0.3,1c0.2,0.2,0.6,0.4,0.9,0.4
		c0.3,0,0.7-0.1,0.9-0.3c0.2-0.3,0.4-0.6,0.3-1v-2.4c0-0.1,0-0.2,0.1-0.3c0.1-0.1,0.2-0.1,0.3-0.1c0.1,0,0.2,0,0.3,0.1
		c0.1,0.1,0.1,0.2,0.1,0.3l0,0c0.1-0.1,0.2-0.3,0.2-0.5c-0.1,0-0.2-0.1-0.3-0.2c-0.1-0.1-0.1-0.2-0.1-0.3l0,0c0-0.1,0-0.2,0.1-0.3
		C24.6,68.5,24.7,68.5,24.9,68.5z M24,67.6c0.1,0.1,0.2,0.3,0.2,0.4c0,0.2-0.2,0.4-0.5,0.5h-0.1v0.2c0,0,0,0.1-0.1,0.1
		c0,0-0.1,0-0.1,0h-0.1c0,0-0.1,0-0.1-0.1l0,0l0,0v-0.2c0,0,0,0,0-0.1l0,0c0-0.1,0-0.1,0.1-0.2l0,0l0,0l0,0l0,0h0.1
		c0.1,0,0.1,0,0.2-0.1l0,0l0,0l0,0l0,0c0,0-0.1,0-0.1-0.1c0,0-0.1,0-0.1,0h-0.1l0,0l0,0l0,0l0,0l0,0c0,0-0.1,0-0.1,0
		c-0.1,0-0.1,0-0.1-0.1c-0.1-0.1-0.1-0.2,0-0.3c0,0,0,0,0,0c0.1-0.1,0.2-0.1,0.3-0.2c0.1,0,0.2,0,0.3,0C23.7,67.6,23.8,67.6,24,67.6
		z"/>
	<path class="st2" d="M27.9,69.9c0-0.1,0-0.2,0.1-0.3c0.1-0.1,0.2-0.1,0.3-0.1h0.1c0.1,0,0.2,0,0.2,0.1c0.1,0,0.1,0.1,0.2,0.2
		l1.5,2.3l1.5-2.3c0.1-0.1,0.2-0.2,0.4-0.2h0.1c0.2,0,0.4,0.2,0.4,0.4c0,0,0,0,0,0V74c0,0.1,0,0.2-0.1,0.3c-0.1,0.1-0.2,0.1-0.3,0.1
		c-0.1,0-0.2,0-0.3-0.1c-0.1-0.1-0.1-0.2-0.1-0.3v-2.9l-1.2,1.8c0,0.1-0.1,0.1-0.2,0.2c-0.1,0-0.1,0.1-0.2,0.1c-0.1,0-0.1,0-0.2-0.1
		c-0.1,0-0.1-0.1-0.2-0.2l-1.2-1.8V74c0,0.1,0,0.2-0.1,0.3c-0.2,0.2-0.4,0.2-0.6,0c-0.1-0.1-0.1-0.2-0.1-0.3L27.9,69.9z"/>
	<path class="st2" d="M36,74.5c-0.3,0-0.6,0-0.9-0.1c-0.2-0.1-0.5-0.2-0.7-0.4c-0.2-0.2-0.3-0.4-0.4-0.7c-0.1-0.3-0.2-0.6-0.2-0.9
		v-2.4c0-0.1,0-0.2,0.1-0.3c0.1-0.1,0.2-0.1,0.3-0.1c0.1,0,0.2,0,0.3,0.1c0.1,0.1,0.1,0.2,0.1,0.3v2.4c0,0.4,0.1,0.7,0.3,1
		c0.2,0.2,0.6,0.4,0.9,0.4c0.3,0,0.7-0.1,0.9-0.3c0.2-0.3,0.4-0.6,0.3-1v-2.4c0-0.1,0-0.2,0.1-0.3c0.1-0.1,0.2-0.1,0.3-0.1
		c0.1,0,0.2,0,0.3,0.1c0.1,0.1,0.1,0.2,0.1,0.3v2.4c0,0.3,0,0.7-0.2,1c-0.1,0.3-0.2,0.5-0.4,0.7c-0.2,0.2-0.4,0.3-0.7,0.4
		C36.5,74.5,36.3,74.5,36,74.5z M36,69.1c-0.1,0-0.2,0-0.3,0c-0.1,0-0.2-0.1-0.2-0.2L35,68.5c-0.1,0-0.1-0.1-0.1-0.2
		c0,0,0-0.1,0-0.1c0,0,0.1-0.1,0.1-0.1l0.2-0.1h0.2c0.1,0,0.3,0.1,0.3,0.2l0.4,0.6V69c0,0,0,0,0,0.1C36.1,69.1,36.1,69.1,36,69.1
		C36,69.1,36,69.1,36,69.1L36,69.1z"/>
	<path class="st2" d="M39.3,69.9c0-0.1,0-0.2,0.1-0.3c0.1-0.1,0.2-0.1,0.3-0.1c0.2,0,0.4,0.2,0.4,0.4c0,0,0,0,0,0V74
		c0,0.1,0,0.2-0.1,0.3c-0.1,0.1-0.2,0.1-0.3,0.1c-0.1,0-0.2,0-0.3-0.1c-0.1-0.1-0.1-0.2-0.1-0.3L39.3,69.9z"/>
	<path class="st2" d="M8.9,114.7c0-0.1,0-0.1,0-0.2l0.2-0.2l1.5-1.8l-1.4-1.7c0,0-0.1-0.1-0.1-0.1c0-0.1,0-0.1,0-0.2
		c0-0.1,0-0.2,0.1-0.3c0.1-0.1,0.2-0.1,0.3-0.1c0.1,0,0.2,0,0.2,0.1c0.1,0,0.1,0.1,0.2,0.2l1.2,1.6l1.2-1.6c0-0.1,0.1-0.1,0.2-0.2
		c0.1,0,0.2-0.1,0.2-0.1c0.1,0,0.2,0,0.3,0.1c0.1,0.1,0.1,0.2,0.1,0.3c0,0.1,0,0.1,0,0.2c0,0.1-0.1,0.1-0.1,0.1l-1.4,1.7l1.4,1.8
		c0,0,0.1,0.1,0.1,0.1c0,0.1,0,0.1,0,0.2c0,0.1,0,0.2-0.1,0.3c-0.1,0.1-0.2,0.1-0.3,0.1c-0.1,0-0.1,0-0.2,0c-0.1,0-0.1-0.1-0.2-0.2
		l-1.3-1.8l-1.3,1.7c-0.1,0.1-0.1,0.1-0.2,0.2c-0.1,0-0.1,0.1-0.2,0.1c-0.1,0-0.2,0-0.3-0.1C9,114.9,8.9,114.8,8.9,114.7z"/>
	<path class="st2" d="M13.8,114.7c0-0.1,0-0.1,0.1-0.2l1.8-4.1c0-0.1,0.1-0.2,0.2-0.3c0.1-0.1,0.2-0.1,0.3-0.1l0,0
		c0.1,0,0.2,0,0.3,0.1c0.1,0.1,0.2,0.2,0.2,0.3l1.8,4.1c0,0.1,0,0.1,0,0.2c0,0.1,0,0.2-0.1,0.3c-0.1,0.1-0.2,0.1-0.3,0.1
		c-0.1,0-0.2,0-0.3-0.1c-0.1-0.1-0.1-0.1-0.2-0.2l-0.4-0.9h-2.3l-0.4,1c-0.1,0.2-0.2,0.3-0.4,0.3c-0.1,0-0.2,0-0.3-0.1
		C13.9,114.9,13.8,114.8,13.8,114.7z M17.1,113.1l-0.9-2l-0.9,2H17.1z M16.8,108.4c0.1,0.1,0.2,0.3,0.2,0.4c0,0.2-0.2,0.4-0.5,0.5
		h-0.1v0.2c0,0,0,0.1,0,0.1h-0.1h-0.1l-0.1-0.1l0,0c0,0,0,0,0-0.1v-0.3l0,0c0-0.1,0-0.1,0.1-0.2v-0.1h0.1h0.1l0.2-0.1c0,0,0,0,0-0.1
		s0,0,0,0l0,0l0,0l-0.1-0.1h-0.1l0,0h-0.1l0,0l0,0l0,0l0,0l0,0c0,0-0.1,0-0.1,0c-0.1,0-0.1,0-0.1-0.1c-0.1-0.1-0.1-0.2,0-0.3
		c0,0,0,0,0,0c0.1-0.1,0.2-0.1,0.3-0.2c0.1,0,0.2,0,0.3,0C16.6,108.4,16.7,108.4,16.8,108.4L16.8,108.4z"/>
	<path class="st2" d="M21.7,110.6c0-0.2,0.2-0.4,0.4-0.4c0,0,0,0,0,0h1.8c0.5,0,0.9,0.1,1.3,0.4c0.2,0.2,0.3,0.5,0.3,0.8l0,0
		c0,0.1,0,0.3-0.1,0.4c0,0.1-0.1,0.2-0.2,0.3c-0.1,0.1-0.1,0.2-0.2,0.3c-0.1,0.1-0.2,0.1-0.3,0.2c0.1,0,0.3,0.1,0.4,0.2
		c0.1,0.1,0.2,0.1,0.3,0.2c0.1,0.1,0.2,0.2,0.2,0.3c0.1,0.1,0.1,0.3,0.1,0.4l0,0c0,0.2,0,0.4-0.1,0.6c-0.1,0.2-0.2,0.3-0.4,0.4
		c-0.2,0.1-0.4,0.2-0.6,0.3c-0.2,0.1-0.5,0.1-0.7,0.1h-1.9c-0.1,0-0.2,0-0.3-0.1c-0.1-0.1-0.1-0.2-0.1-0.3L21.7,110.6z M23.7,112.2
		c0.2,0,0.5,0,0.7-0.2c0.2-0.1,0.3-0.3,0.3-0.5l0,0c0-0.2-0.1-0.3-0.2-0.4c-0.2-0.1-0.4-0.2-0.7-0.2h-1.2v1.3L23.7,112.2z
		 M23.9,114.3c0.2,0,0.5,0,0.7-0.2c0.2-0.1,0.3-0.3,0.2-0.5l0,0c0-0.2-0.1-0.4-0.2-0.5c-0.2-0.1-0.5-0.2-0.8-0.2h-1.3v1.3
		L23.9,114.3z"/>
	<path class="st2" d="M29.1,115.1c-0.3,0-0.7-0.1-1-0.2c-0.3-0.1-0.6-0.3-0.8-0.5c-0.5-0.5-0.7-1.1-0.7-1.8l0,0c0-0.3,0.1-0.7,0.2-1
		c0.1-0.3,0.3-0.6,0.5-0.8c0.2-0.2,0.5-0.4,0.8-0.6c0.7-0.3,1.4-0.3,2.1,0c0.3,0.1,0.6,0.3,0.8,0.5c0.2,0.2,0.4,0.5,0.5,0.8
		c0.1,0.3,0.2,0.7,0.2,1l0,0c0,0.3-0.1,0.7-0.2,1c-0.1,0.3-0.3,0.6-0.5,0.8C30.5,114.9,29.8,115.2,29.1,115.1L29.1,115.1z
		 M29.1,114.3c0.2,0,0.5,0,0.7-0.1c0.2-0.1,0.4-0.2,0.5-0.4c0.1-0.2,0.3-0.3,0.3-0.6c0.1-0.2,0.1-0.4,0.1-0.7l0,0
		c0-0.2,0-0.5-0.1-0.7c-0.1-0.2-0.2-0.4-0.3-0.6c-0.2-0.2-0.3-0.3-0.5-0.4c-0.2-0.1-0.4-0.1-0.7-0.1c-0.2,0-0.5,0-0.7,0.1
		c-0.2,0.1-0.4,0.2-0.5,0.4c-0.1,0.2-0.3,0.3-0.3,0.6c-0.1,0.2-0.1,0.4-0.1,0.7l0,0c0,0.2,0,0.5,0.1,0.7c0.2,0.4,0.5,0.7,0.9,0.9
		C28.6,114.3,28.8,114.3,29.1,114.3L29.1,114.3z M28.7,109.5c-0.1,0.1-0.2,0.1-0.3,0.1c-0.1,0-0.2,0-0.3,0c0,0-0.1,0-0.1,0
		c0,0-0.1-0.1-0.1-0.1c0,0,0-0.1,0-0.1l0.1-0.1l0.5-0.6c0-0.1,0.1-0.1,0.2-0.2c0.1,0,0.2-0.1,0.2-0.1h0.2c0.1,0,0.2,0,0.2,0.1
		c0.1,0,0.1,0.1,0.2,0.2l0.5,0.6l0.1,0.1c0,0,0,0.1,0,0.1c0,0,0,0.1-0.1,0.1c0,0-0.1,0-0.2,0c-0.1,0-0.2,0-0.3,0
		c-0.1,0-0.2-0.1-0.3-0.1l-0.4-0.3L28.7,109.5z M30.2,108.9c-0.1,0-0.2,0-0.3,0c-0.1,0-0.2-0.1-0.2-0.2l-0.5-0.4
		c-0.1-0.1-0.1-0.1-0.1-0.2c0,0,0-0.1,0-0.1c0,0,0.1-0.1,0.1-0.1c0,0,0.1-0.1,0.2-0.1h0.2c0.1,0,0.3,0.1,0.3,0.2l0.4,0.6
		c0,0,0,0.1,0,0.1c0,0,0,0.1,0,0.1C30.3,108.8,30.3,108.9,30.2,108.9C30.2,108.9,30.2,108.9,30.2,108.9L30.2,108.9z"/>
	<path class="st2" d="M32.7,110.5c0-0.2,0.2-0.4,0.4-0.4c0,0,0,0,0,0h0.1c0.1,0,0.2,0,0.3,0.1c0.1,0.1,0.1,0.1,0.2,0.2l2.4,3.2v-3
		c0-0.1,0-0.2,0.1-0.3c0.2-0.2,0.4-0.2,0.6,0c0.1,0.1,0.1,0.2,0.1,0.3v4.1c0,0.2-0.2,0.4-0.4,0.4c0,0,0,0,0,0l0,0
		c-0.1,0-0.2,0-0.3-0.1c-0.1-0.1-0.1-0.1-0.2-0.2l-2.5-3.3v3.1c0,0.2-0.2,0.4-0.4,0.4c0,0,0,0,0,0c-0.1,0-0.2,0-0.3-0.1
		c-0.1-0.1-0.1-0.2-0.1-0.3L32.7,110.5z"/>
	<path class="st2" d="M42.6,115.1c-0.3,0-0.7-0.1-1-0.2c-0.3-0.1-0.6-0.3-0.8-0.5c-0.2-0.2-0.4-0.5-0.5-0.8c-0.1-0.3-0.2-0.7-0.2-1
		l0,0c0-0.3,0.1-0.7,0.2-1c0.1-0.3,0.3-0.6,0.5-0.8c0.2-0.2,0.5-0.4,0.8-0.6c0.3-0.1,0.7-0.2,1-0.2c0.3,0,0.7,0,1,0.2
		c0.3,0.1,0.5,0.2,0.7,0.4c0,0,0.1,0.1,0.1,0.1c0,0.1,0.1,0.1,0.1,0.2c0,0.1,0,0.2-0.1,0.3c-0.1,0.1-0.2,0.1-0.3,0.1
		c0,0-0.1,0-0.2,0c0,0-0.1,0-0.1-0.1c-0.2-0.1-0.3-0.2-0.5-0.3c-0.2-0.1-0.4-0.1-0.6-0.1c-0.2,0-0.4,0-0.7,0.1
		c-0.2,0.1-0.4,0.2-0.5,0.4c-0.1,0.2-0.3,0.3-0.3,0.6c-0.1,0.2-0.1,0.4-0.1,0.7l0,0c0,0.2,0,0.5,0.1,0.7c0.1,0.2,0.2,0.4,0.3,0.6
		c0.1,0.2,0.3,0.3,0.5,0.4c0.2,0.1,0.4,0.1,0.7,0.1c0.2,0,0.5,0,0.7-0.1c0.2-0.1,0.4-0.2,0.6-0.4c0,0,0.1-0.1,0.1-0.1
		c0,0,0.1,0,0.1,0c0.1,0,0.2,0,0.3,0.1c0.1,0.1,0.1,0.2,0.1,0.3c0,0.1,0,0.1,0,0.2c0,0-0.1,0.1-0.1,0.1c-0.2,0.2-0.5,0.4-0.8,0.5
		C43.3,115.1,43,115.1,42.6,115.1z"/>
	<path class="st2" d="M45.1,114.7c0-0.1,0-0.1,0.1-0.2l1.9-4.1c0-0.1,0.1-0.2,0.2-0.3c0.1-0.1,0.2-0.1,0.3-0.1l0,0
		c0.1,0,0.2,0,0.3,0.1c0.1,0.1,0.2,0.2,0.2,0.3l1.8,4.1c0,0.1,0,0.1,0,0.2c0,0.1,0,0.2-0.1,0.3c-0.1,0.1-0.2,0.1-0.3,0.1
		c-0.1,0-0.2,0-0.3-0.1c-0.1-0.1-0.1-0.1-0.2-0.2l-0.4-0.9h-2.3l-0.4,1c-0.1,0.2-0.2,0.3-0.4,0.3c-0.1,0-0.2,0-0.3-0.1
		C45.2,114.9,45.1,114.8,45.1,114.7z M47.1,109.5c-0.1,0.1-0.2,0.1-0.2,0.1c-0.1,0-0.2,0-0.3,0c0,0-0.1,0-0.1,0c0,0,0-0.1,0-0.1
		c0,0,0-0.1,0-0.1l0.1-0.1l0.5-0.6c0-0.1,0.1-0.1,0.2-0.2c0.1,0,0.2-0.1,0.2-0.1h0.2c0.1,0,0.2,0,0.2,0.1c0.1,0,0.1,0.1,0.2,0.2
		l0.5,0.6l0.1,0.1c0,0,0,0.1,0,0.1c0,0,0,0.1-0.1,0.1c0,0-0.1,0-0.1,0c-0.1,0-0.2,0-0.3,0c-0.1,0-0.2-0.1-0.3-0.1l-0.4-0.3
		L47.1,109.5z M48.4,113.1l-0.9-2l-0.9,2H48.4z M48.6,108.8c-0.1,0-0.2,0-0.3,0c-0.1,0-0.2-0.1-0.2-0.1l-0.5-0.4
		c-0.1,0-0.1-0.1-0.1-0.2c0,0,0-0.1,0-0.1l0.1-0.1l0.2-0.1c0.1,0,0.1,0,0.2,0c0.1,0,0.3,0.1,0.3,0.2l0.4,0.6c0,0,0,0.1,0,0.1
		C48.7,108.7,48.7,108.7,48.6,108.8C48.7,108.8,48.7,108.8,48.6,108.8C48.6,108.8,48.6,108.8,48.6,108.8L48.6,108.8z"/>
	<path class="st2" d="M52.9,115.1c-0.3,0-0.6,0-0.9-0.1c-0.2-0.1-0.5-0.2-0.7-0.4c-0.2-0.2-0.3-0.4-0.4-0.7
		c-0.1-0.3-0.2-0.6-0.2-0.9v-2.4c0-0.1,0-0.2,0.1-0.3c0.1-0.1,0.2-0.1,0.3-0.1c0.1,0,0.2,0,0.3,0.1c0.1,0.1,0.1,0.2,0.1,0.3v2.4
		c0,0.4,0.1,0.7,0.3,1c0.2,0.2,0.6,0.4,0.9,0.4c0.3,0,0.7-0.1,0.9-0.3c0.2-0.3,0.3-0.6,0.3-1v-2.4c0-0.1,0-0.2,0.1-0.3
		c0.1-0.1,0.2-0.1,0.3-0.1c0.1,0,0.2,0,0.3,0.1c0.1,0.1,0.1,0.2,0.1,0.3v2.4c0,0.3,0,0.7-0.2,1c-0.1,0.3-0.2,0.5-0.4,0.7
		c-0.2,0.2-0.4,0.3-0.7,0.4C53.5,115.1,53.2,115.1,52.9,115.1z"/>
	<path class="st2" d="M11.8,94.7c-0.1-0.1-0.1-0.2-0.2-0.2l-1.7-4v-0.1c0,0,0-0.1,0-0.1c0-0.1,0-0.2,0.1-0.3
		c0.1-0.1,0.2-0.1,0.3-0.1c0.1,0,0.2,0,0.3,0.1c0.1,0.1,0.1,0.1,0.2,0.2l1.4,3.5l1.4-3.6c0-0.1,0.1-0.1,0.2-0.2
		c0.1-0.1,0.2-0.1,0.3-0.1c0.1,0,0.2,0,0.3,0.1c0.1,0.1,0.1,0.2,0.1,0.3c0,0,0,0.1,0,0.1v0.1l-1.7,4.1c0,0.1-0.1,0.2-0.2,0.2
		c-0.1,0.1-0.2,0.1-0.3,0.1h-0.1C12,94.8,11.9,94.7,11.8,94.7z"/>
	<path class="st2" d="M17.4,94.8c-0.3,0-0.7-0.1-1-0.2c-0.3-0.1-0.6-0.3-0.8-0.5c-0.2-0.2-0.4-0.5-0.5-0.8c-0.1-0.3-0.2-0.7-0.2-1
		l0,0c0-0.3,0.1-0.7,0.2-1c0.1-0.3,0.3-0.6,0.5-0.8c0.5-0.5,1.2-0.8,1.8-0.8c0.3,0,0.7,0.1,1,0.2c0.3,0.1,0.6,0.3,0.8,0.6
		c0.2,0.2,0.4,0.5,0.5,0.8c0.1,0.3,0.2,0.7,0.2,1l0,0c0,0.3-0.1,0.7-0.2,1c-0.1,0.3-0.3,0.6-0.5,0.8C18.8,94.5,18.1,94.8,17.4,94.8
		L17.4,94.8z M17.4,94c0.2,0,0.5,0,0.7-0.1c0.2-0.1,0.4-0.2,0.5-0.4c0.2-0.2,0.3-0.3,0.3-0.6c0.1-0.2,0.1-0.4,0.1-0.7l0,0
		c0-0.2,0-0.5-0.1-0.7c-0.1-0.2-0.2-0.4-0.3-0.6c-0.1-0.2-0.3-0.3-0.5-0.4c-0.2-0.1-0.4-0.2-0.7-0.1c-0.7,0-1.3,0.4-1.5,1.1
		c-0.1,0.2-0.1,0.4-0.1,0.7l0,0c0,0.2,0,0.5,0.1,0.7c0.1,0.2,0.2,0.4,0.3,0.6C16.5,93.8,17,94,17.4,94L17.4,94z M17.4,89.4
		c0,0-0.1,0-0.2,0c0,0-0.1-0.1-0.1-0.1c0,0,0-0.1,0-0.1v-0.1l0.4-0.6c0.1-0.1,0.2-0.2,0.3-0.2h0.2l0.2,0.1c0,0,0.1,0,0.1,0.1
		c0,0,0,0.1,0,0.1c0,0.1-0.1,0.2-0.1,0.2l-0.5,0.4c-0.1,0.1-0.1,0.1-0.2,0.1C17.6,89.4,17.5,89.4,17.4,89.4L17.4,89.4z"/>
	<path class="st2" d="M21.1,90.2c0-0.2,0.2-0.4,0.4-0.4h0.1c0.1,0,0.2,0,0.2,0.1C21.9,89.9,22,90,22,90l2.5,3.2v-3
		c0-0.2,0.2-0.4,0.4-0.4c0.2,0,0.4,0.2,0.4,0.4v4.1c0,0.1,0,0.2-0.1,0.3c-0.1,0.1-0.2,0.1-0.3,0.1l0,0c-0.1,0-0.2,0-0.3-0.1
		c-0.1-0.1-0.1-0.1-0.2-0.2L22,91.2v3.1c0,0.1,0,0.2-0.1,0.3c-0.1,0.1-0.2,0.1-0.3,0.1c-0.1,0-0.2,0-0.3-0.1
		c-0.1-0.1-0.1-0.2-0.1-0.3V90.2z"/>
	<path class="st2" d="M31,94.8c-0.7,0-1.3-0.2-1.8-0.7c-0.2-0.2-0.4-0.5-0.5-0.8c-0.1-0.3-0.2-0.7-0.2-1l0,0c0-1,0.6-1.9,1.5-2.3
		c0.3-0.1,0.7-0.2,1-0.2c0.3,0,0.7,0,1,0.2c0.3,0.1,0.5,0.2,0.7,0.4c0.1,0,0.1,0.1,0.1,0.1c0,0.1,0.1,0.1,0.1,0.2
		c0,0.1,0,0.2-0.1,0.3C32.6,91,32.5,91,32.4,91h-0.2L32.2,91c-0.2-0.1-0.3-0.2-0.5-0.3c-0.2-0.1-0.4-0.1-0.6-0.1
		c-0.2,0-0.4,0-0.6,0.1c-0.2,0.1-0.4,0.2-0.5,0.4c-0.1,0.2-0.3,0.3-0.3,0.6c-0.1,0.2-0.1,0.4-0.1,0.7l0,0c0,0.2,0,0.5,0.1,0.7
		c0.1,0.2,0.2,0.4,0.3,0.6c0.1,0.2,0.3,0.3,0.5,0.4c0.2,0.1,0.4,0.1,0.6,0.1c0.2,0,0.5,0,0.7-0.1c0.2-0.1,0.4-0.2,0.6-0.3
		c0,0,0.1-0.1,0.1-0.1c0,0,0.1,0,0.2,0c0.1,0,0.2,0,0.3,0.1c0.1,0.1,0.1,0.2,0.1,0.3c0,0.1,0,0.1,0,0.2c0,0-0.1,0.1-0.1,0.1
		c-0.2,0.2-0.5,0.4-0.8,0.5C31.7,94.8,31.3,94.8,31,94.8z"/>
	<path class="st2" d="M35.9,94.8c-0.3,0-0.6,0-0.9-0.1c-0.2-0.1-0.5-0.2-0.7-0.4c-0.2-0.2-0.3-0.4-0.4-0.7c-0.1-0.3-0.2-0.6-0.2-0.9
		v-2.4c0-0.2,0.2-0.4,0.4-0.4c0.1,0,0.2,0,0.3,0.1c0.1,0.1,0.1,0.2,0.1,0.3v2.4c0,0.4,0.1,0.7,0.3,1c0.2,0.2,0.6,0.4,0.9,0.4
		c0.3,0,0.7-0.1,0.9-0.3c0.2-0.3,0.4-0.6,0.3-1v-2.4c0-0.1,0-0.2,0.1-0.3c0.1-0.1,0.2-0.1,0.3-0.1c0.1,0,0.2,0,0.3,0.1
		c0.1,0.1,0.1,0.2,0.1,0.3v2.4c0,0.3,0,0.7-0.2,1c-0.1,0.3-0.2,0.5-0.4,0.7c-0.2,0.2-0.4,0.3-0.7,0.4C36.4,94.7,36.1,94.8,35.9,94.8
		z M35.4,95.6c0-0.1,0-0.3,0.1-0.3c0.1-0.1,0.2-0.1,0.4-0.1c0.3,0,0.5,0.2,0.5,0.5c0,0,0,0,0,0v0.1c0,0.1-0.1,0.2-0.1,0.3
		c-0.1,0.1-0.2,0.1-0.3,0.1c-0.1,0-0.3,0-0.4-0.1C35.4,95.9,35.4,95.8,35.4,95.6L35.4,95.6z"/>
	<path class="st2" d="M41.4,94.8c-0.3,0-0.7-0.1-1-0.2c-0.3-0.1-0.6-0.3-0.8-0.5c-0.2-0.2-0.4-0.5-0.5-0.8c-0.1-0.3-0.2-0.7-0.2-1
		l0,0c0-0.3,0.1-0.7,0.2-1c0.1-0.3,0.3-0.6,0.5-0.8c0.2-0.2,0.5-0.4,0.8-0.6c0.3-0.1,0.7-0.2,1-0.2c0.3,0,0.7,0,1,0.2
		c0.3,0.1,0.5,0.2,0.7,0.4c0,0,0.1,0.1,0.1,0.1c0,0.1,0,0.1,0,0.2c0,0.2-0.2,0.4-0.4,0.4c0,0,0,0,0,0h-0.2L42.6,91
		c-0.2-0.1-0.3-0.2-0.5-0.3c-0.4-0.2-0.9-0.2-1.3,0c-0.2,0.1-0.4,0.2-0.5,0.4c-0.1,0.2-0.3,0.3-0.3,0.6c-0.1,0.2-0.1,0.4-0.1,0.7
		l0,0c0,0.2,0,0.5,0.1,0.7c0.1,0.4,0.5,0.7,0.8,0.9c0.2,0.1,0.4,0.1,0.7,0.1c0.2,0,0.5,0,0.7-0.1c0.2-0.1,0.4-0.2,0.6-0.3
		c0,0,0.1-0.1,0.1-0.1c0,0,0.1,0,0.1,0c0.1,0,0.2,0,0.3,0.1c0.1,0.1,0.1,0.2,0.1,0.3c0,0.1,0,0.1,0,0.2c0,0-0.1,0.1-0.1,0.1
		c-0.2,0.2-0.5,0.4-0.8,0.5C42.1,94.7,41.8,94.8,41.4,94.8z"/>
	<path class="st2" d="M9.8,53.8c0-0.1,0-0.1,0.1-0.2l1.8-4.1c0-0.1,0.1-0.2,0.2-0.2c0.1-0.1,0.2-0.1,0.3-0.1l0,0
		c0.1,0,0.2,0,0.3,0.1c0.1,0.1,0.2,0.2,0.2,0.2l1.8,4.1c0,0.1,0,0.1,0,0.2c0,0.1,0,0.2-0.1,0.3c-0.1,0.1-0.2,0.1-0.3,0.1
		c-0.1,0-0.2,0-0.3-0.1c-0.1-0.1-0.1-0.1-0.2-0.2L13.3,53h-2.3l-0.4,1c-0.1,0.2-0.2,0.3-0.4,0.3c-0.1,0-0.2,0-0.3-0.1
		C9.9,54,9.8,53.9,9.8,53.8z M13.1,52.2l-0.9-2l-0.9,2H13.1z"/>
	<path class="st2" d="M15.6,49.6c0-0.1,0-0.2,0.1-0.3c0.1-0.1,0.2-0.1,0.3-0.1h0.1c0.1,0,0.2,0,0.2,0.1c0.1,0,0.1,0.1,0.2,0.2
		l2.5,3.2v-3c0-0.1,0-0.2,0.1-0.3c0.1-0.1,0.2-0.1,0.3-0.1c0.1,0,0.2,0,0.3,0.1c0.1,0.1,0.1,0.2,0.1,0.3v4.1c0,0.1,0,0.2-0.1,0.3
		c-0.1,0.1-0.2,0.1-0.3,0.1l0,0c-0.1,0-0.2,0-0.3-0.1C19.1,54,19,54,18.9,53.9l-2.5-3.3v3.1c0,0.1,0,0.2-0.1,0.3
		c-0.1,0.1-0.2,0.1-0.3,0.1c-0.1,0-0.2,0-0.3-0.1c-0.1-0.1-0.1-0.2-0.1-0.3L15.6,49.6z"/>
	<path class="st2" d="M24.4,50h-1.2c-0.1,0-0.2,0-0.3-0.1c-0.1-0.1-0.1-0.2-0.1-0.3c0-0.1,0-0.2,0.1-0.3c0.1-0.1,0.2-0.1,0.3-0.1
		h3.3c0.1,0,0.2,0,0.3,0.1c0.1,0.1,0.1,0.2,0.1,0.3c0,0.1,0,0.2-0.1,0.3C26.7,50,26.6,50,26.5,50h-1.2v3.7c0,0.1,0,0.2-0.1,0.3
		c-0.1,0.1-0.2,0.1-0.3,0.1c-0.1,0-0.2,0-0.3-0.1c-0.1-0.1-0.1-0.2-0.1-0.3V50z"/>
	<path class="st2" d="M29.8,54.2c-0.3,0-0.7-0.1-1-0.2c-0.3-0.1-0.6-0.3-0.8-0.5c-0.2-0.2-0.4-0.5-0.5-0.8c-0.1-0.3-0.2-0.7-0.2-1
		l0,0c0-1.4,1.1-2.5,2.5-2.5c0,0,0,0,0,0c0.3,0,0.7,0.1,1,0.2c0.3,0.1,0.6,0.3,0.8,0.5c0.2,0.2,0.4,0.5,0.5,0.8
		c0.1,0.3,0.2,0.7,0.2,1l0,0c0,0.3-0.1,0.7-0.2,1c-0.1,0.3-0.3,0.6-0.5,0.8C31.2,54,30.5,54.2,29.8,54.2L29.8,54.2z M29.8,53.4
		c0.4,0,0.9-0.2,1.2-0.5c0.1-0.2,0.3-0.3,0.3-0.6c0.1-0.2,0.1-0.4,0.1-0.7l0,0c0-0.2,0-0.5-0.1-0.7c-0.2-0.4-0.5-0.7-0.9-0.9
		c-0.4-0.2-0.9-0.2-1.3,0c-0.2,0.1-0.4,0.2-0.5,0.4c-0.2,0.2-0.3,0.3-0.3,0.6c-0.1,0.2-0.1,0.4-0.1,0.7l0,0c0,0.2,0,0.5,0.1,0.7
		c0.1,0.2,0.2,0.4,0.3,0.6c0.2,0.2,0.3,0.3,0.5,0.4C29.4,53.4,29.6,53.4,29.8,53.4L29.8,53.4z"/>
	<path class="st2" d="M32.9,53.8c0-0.1,0-0.1,0.1-0.2l1.8-4.1c0-0.1,0.1-0.2,0.2-0.2c0.1-0.1,0.2-0.1,0.3-0.1l0,0
		c0.1,0,0.2,0,0.3,0.1c0.1,0.1,0.2,0.2,0.2,0.2l1.8,4.1c0,0.1,0,0.1,0,0.2c0,0.1,0,0.2-0.1,0.3c-0.1,0.1-0.2,0.1-0.3,0.1
		c-0.1,0-0.2,0-0.2-0.1c-0.1-0.1-0.1-0.1-0.2-0.2L36.4,53h-2.3l-0.4,1c-0.1,0.2-0.2,0.3-0.4,0.3c-0.1,0-0.2,0-0.3-0.1
		C32.9,54,32.9,53.9,32.9,53.8z M35.3,48.8c-0.1,0-0.2,0-0.3,0c-0.1,0-0.2-0.1-0.2-0.2l-0.5-0.4c-0.1,0-0.1-0.1-0.1-0.2
		c0,0,0-0.1,0-0.1l0.1-0.1c0.1,0,0.1-0.1,0.2-0.1h0.2c0.1,0,0.3,0.1,0.3,0.2l0.4,0.6c0,0,0,0,0,0.1c0,0,0,0.1,0,0.1
		C35.4,48.7,35.4,48.8,35.3,48.8C35.4,48.8,35.3,48.8,35.3,48.8L35.3,48.8z M36.2,52.2l-0.9-2l-0.9,2H36.2z"/>
	<path class="st2" d="M38.6,49.6c0-0.2,0.2-0.4,0.4-0.4c0,0,0,0,0,0h0.1c0.1,0,0.2,0,0.3,0.1c0.1,0,0.1,0.1,0.2,0.2l2.5,3.2v-3
		c0-0.1,0-0.2,0.1-0.3c0.1-0.1,0.2-0.1,0.3-0.1c0.1,0,0.2,0,0.3,0.1c0.1,0.1,0.1,0.2,0.1,0.3v4.1c0,0.1,0,0.2-0.1,0.3
		c-0.1,0.1-0.2,0.1-0.3,0.1l0,0c-0.1,0-0.2,0-0.3-0.1c-0.1-0.1-0.1-0.1-0.2-0.2l-2.5-3.3v3.1c0,0.1,0,0.2-0.1,0.3
		c-0.1,0.1-0.2,0.1-0.3,0.1c-0.1,0-0.2,0-0.3-0.1c-0.1-0.1-0.1-0.2-0.1-0.3L38.6,49.6z"/>
	<path class="st2" d="M48.5,54.2c-0.3,0-0.7-0.1-1-0.2c-0.3-0.1-0.6-0.3-0.8-0.5c-0.2-0.2-0.4-0.5-0.5-0.8c-0.1-0.3-0.2-0.7-0.2-1
		l0,0c0-0.3,0.1-0.7,0.2-1c0.1-0.3,0.3-0.6,0.5-0.8c0.2-0.2,0.5-0.4,0.8-0.6c0.3-0.1,0.7-0.2,1-0.2c0.3,0,0.7,0,1,0.2
		c0.3,0.1,0.5,0.2,0.7,0.4c0,0,0.1,0.1,0.1,0.1c0,0.1,0,0.1,0,0.2c0,0.1,0,0.2-0.1,0.3c-0.1,0.1-0.2,0.1-0.3,0.1c0,0-0.1,0-0.2,0
		c0,0-0.1,0-0.1-0.1c-0.2-0.1-0.3-0.2-0.5-0.3C49,50,48.8,50,48.5,50c-0.2,0-0.4,0-0.6,0.1c-0.2,0.1-0.4,0.2-0.5,0.4
		c-0.2,0.2-0.3,0.3-0.3,0.6c-0.1,0.2-0.1,0.4-0.1,0.7l0,0c0,0.2,0.1,0.4,0.1,0.6c0.1,0.2,0.2,0.4,0.3,0.6c0.1,0.2,0.3,0.3,0.5,0.4
		c0.2,0.1,0.4,0.1,0.6,0.1c0.2,0,0.5,0,0.7-0.1c0.2-0.1,0.4-0.2,0.6-0.3c0,0,0.1-0.1,0.1-0.1c0,0,0.1,0,0.1,0c0.2,0,0.4,0.2,0.4,0.4
		c0,0.1,0,0.1,0,0.2c0,0-0.1,0.1-0.1,0.1c-0.2,0.2-0.5,0.4-0.8,0.5C49.3,54.2,48.9,54.2,48.5,54.2z"/>
	<path class="st2" d="M51.4,49.6c0-0.1,0-0.2,0.1-0.3c0.2-0.2,0.4-0.2,0.6,0c0.1,0.1,0.1,0.2,0.1,0.3v1.6h2.3v-1.6
		c0-0.1,0-0.2,0.1-0.3c0.1-0.1,0.2-0.1,0.3-0.1c0.1,0,0.2,0,0.3,0.1c0.1,0.1,0.1,0.2,0.1,0.3v4.1c0,0.1,0,0.2-0.1,0.3
		c-0.1,0.1-0.2,0.1-0.3,0.1c-0.1,0-0.2,0-0.3-0.1c-0.1-0.1-0.1-0.2-0.1-0.3v-1.7h-2.3v1.7c0,0.1,0,0.2-0.1,0.3
		c-0.2,0.2-0.4,0.2-0.6,0c-0.1-0.1-0.1-0.2-0.1-0.3L51.4,49.6z"/>
	<path class="st2" d="M59.1,54.2c-0.7,0-1.4-0.3-1.8-0.7c-0.2-0.2-0.4-0.5-0.5-0.8c-0.1-0.3-0.2-0.7-0.2-1l0,0c0-0.3,0.1-0.7,0.2-1
		c0.1-0.3,0.3-0.6,0.5-0.8c0.8-0.7,1.9-1,2.9-0.6c0.3,0.1,0.6,0.3,0.8,0.5c0.2,0.2,0.4,0.5,0.5,0.8c0.1,0.3,0.2,0.7,0.2,1l0,0
		c0,0.3-0.1,0.7-0.2,1c-0.1,0.3-0.3,0.6-0.5,0.8c-0.2,0.2-0.5,0.4-0.8,0.6C59.8,54.1,59.4,54.2,59.1,54.2z M59.1,53.4
		c0.2,0,0.5,0,0.7-0.1c0.2-0.1,0.4-0.2,0.5-0.4c0.1-0.2,0.3-0.3,0.3-0.6c0.1-0.2,0.1-0.4,0.1-0.7l0,0c0-0.2,0-0.5-0.1-0.7
		c-0.1-0.2-0.2-0.4-0.3-0.6C60,50.1,59.5,50,59.1,50c-0.2,0-0.5,0-0.7,0.1c-0.2,0.1-0.4,0.2-0.5,0.4c-0.2,0.2-0.3,0.3-0.3,0.6
		c-0.1,0.2-0.1,0.4-0.1,0.7l0,0c0,0.2,0,0.5,0.1,0.7c0.1,0.2,0.2,0.4,0.3,0.6c0.1,0.2,0.3,0.3,0.5,0.4
		C58.6,53.4,58.8,53.4,59.1,53.4z"/>
	<path class="st2" d="M66.5,54.2c-0.7,0-1.3-0.2-1.8-0.6c-0.1,0-0.1-0.1-0.1-0.1c0-0.1,0-0.1,0-0.2c0-0.1,0-0.2,0.1-0.3
		c0.1-0.1,0.2-0.1,0.3-0.1h0.2l0.1,0.1c0.2,0.2,0.4,0.3,0.6,0.4c0.2,0.1,0.5,0.1,0.7,0.1c0.2,0,0.5,0,0.6-0.2
		c0.1-0.1,0.2-0.3,0.2-0.4l0,0c0-0.1,0-0.2,0-0.2c0-0.1-0.1-0.1-0.2-0.2c-0.1-0.1-0.2-0.1-0.3-0.2c-0.2-0.1-0.4-0.1-0.6-0.2
		c-0.2-0.1-0.5-0.1-0.7-0.2c-0.2-0.1-0.4-0.2-0.5-0.3c-0.1-0.1-0.2-0.2-0.3-0.4c-0.1-0.2-0.1-0.4-0.1-0.6l0,0c0-0.2,0-0.4,0.1-0.6
		c0.1-0.2,0.2-0.3,0.3-0.4c0.2-0.1,0.3-0.2,0.5-0.3c0.2-0.1,0.4-0.1,0.7-0.1c0.6,0,1.1,0.2,1.6,0.5c0.1,0,0.1,0.1,0.1,0.1
		c0,0.1,0.1,0.1,0.1,0.2c0,0.1,0,0.2-0.1,0.3c-0.1,0.1-0.2,0.1-0.3,0.1c-0.1,0-0.2,0-0.2-0.1c-0.2-0.1-0.4-0.2-0.6-0.3
		c-0.2-0.1-0.4-0.1-0.6-0.1c-0.2,0-0.4,0-0.6,0.2c-0.1,0.1-0.2,0.2-0.2,0.4l0,0c0,0.1,0,0.2,0,0.2c0,0.1,0.1,0.1,0.2,0.2
		c0.1,0.1,0.2,0.1,0.3,0.2l0.6,0.2c0.2,0.1,0.5,0.1,0.7,0.2c0.2,0.1,0.3,0.2,0.5,0.3c0.1,0.1,0.2,0.2,0.3,0.4
		c0.1,0.2,0.1,0.3,0.1,0.5l0,0c0,0.2,0,0.4-0.1,0.6c-0.1,0.2-0.2,0.3-0.4,0.5c-0.2,0.1-0.3,0.2-0.6,0.3C67,54.2,66.8,54.2,66.5,54.2
		z"/>
	<path class="st2" d="M73.7,48.2c0.1,0,0.3,0.1,0.4,0.2c0.1,0.1,0.1,0.3,0.1,0.4v0.1c0,0.2,0,0.4-0.1,0.6c-0.1,0.2-0.1,0.3-0.2,0.4
		c-0.1,0.1-0.3,0.2-0.4,0.2V52c0,0.3,0,0.7-0.2,1c-0.1,0.3-0.2,0.5-0.4,0.7c-0.2,0.2-0.4,0.3-0.7,0.4c-0.3,0.1-0.6,0.1-0.9,0.1
		c-0.3,0-0.6,0-0.9-0.1c-0.2-0.1-0.5-0.2-0.7-0.4c-0.2-0.2-0.3-0.4-0.4-0.7c-0.1-0.3-0.2-0.6-0.2-0.9v-2.4c0-0.1,0-0.2,0.1-0.3
		c0.1-0.1,0.2-0.1,0.3-0.1c0.1,0,0.2,0,0.3,0.1c0.1,0.1,0.1,0.2,0.1,0.3v2.4c0,0.4,0.1,0.7,0.3,1c0.2,0.2,0.6,0.4,0.9,0.3
		c0.3,0,0.7-0.1,0.9-0.3c0.2-0.3,0.4-0.6,0.3-1v-2.4c0-0.1,0-0.2,0.1-0.3c0.1-0.1,0.2-0.1,0.3-0.1c0.1,0,0.2,0,0.3,0.1
		c0.1,0.1,0.1,0.2,0.1,0.3l0,0c0.1-0.1,0.2-0.3,0.2-0.5c-0.1,0-0.2-0.1-0.3-0.2c-0.1-0.1-0.1-0.2-0.1-0.3v-0.1c0-0.1,0-0.3,0.1-0.3
		C73.4,48.2,73.5,48.2,73.7,48.2z M71.8,48.5c0,0-0.1,0-0.2,0c0,0-0.1-0.1-0.1-0.1c0,0,0-0.1,0-0.1v-0.1l0.4-0.6
		c0.1-0.1,0.2-0.2,0.3-0.2c0.1,0,0.1,0,0.2,0l0.2,0.1l0.1,0.1c0,0,0,0.1,0,0.1c0,0.1-0.1,0.2-0.1,0.2l-0.5,0.4
		c-0.1,0.1-0.1,0.1-0.2,0.2C71.9,48.5,71.8,48.5,71.8,48.5z"/>
	<path class="st2" d="M76.9,54.2c-0.3,0-0.7-0.1-1-0.2c-0.3-0.1-0.6-0.3-0.8-0.5c-0.5-0.5-0.7-1.1-0.7-1.8l0,0c0-0.3,0.1-0.7,0.2-1
		c0.1-0.3,0.3-0.6,0.5-0.8c0.2-0.2,0.5-0.4,0.8-0.6c0.3-0.1,0.7-0.2,1-0.2c0.3,0,0.7,0,1,0.2c0.3,0.1,0.5,0.2,0.7,0.4
		c0,0,0.1,0.1,0.1,0.1c0,0.1,0,0.1,0,0.2c0,0.2-0.2,0.4-0.4,0.4c0,0,0,0,0,0c-0.1,0-0.1,0-0.2,0c0,0-0.1,0-0.1-0.1
		c-0.2-0.1-0.3-0.2-0.5-0.3C77.3,50,77.1,50,76.8,50c-0.2,0-0.4,0-0.7,0.1c-0.2,0.1-0.4,0.2-0.5,0.4c-0.1,0.2-0.3,0.3-0.3,0.6
		c-0.1,0.2-0.1,0.4-0.1,0.7l0,0c0,0.2,0,0.5,0.1,0.7c0.1,0.2,0.2,0.4,0.3,0.6c0.1,0.2,0.3,0.3,0.5,0.4c0.2,0.1,0.4,0.1,0.7,0.1
		c0.2,0,0.5,0,0.7-0.1c0.2-0.1,0.4-0.2,0.6-0.3l0.1-0.1c0,0,0.1,0,0.1,0c0.1,0,0.2,0,0.3,0.1c0.1,0.1,0.1,0.2,0.1,0.3
		c0,0.1,0,0.1,0,0.2c0,0-0.1,0.1-0.1,0.1c-0.2,0.2-0.5,0.4-0.8,0.5C77.5,54.2,77.2,54.2,76.9,54.2z"/>
	<path class="st2" d="M81.8,49.6c0-0.1,0-0.2,0.1-0.3c0.1-0.1,0.2-0.1,0.3-0.1c0.1,0,0.2,0,0.3,0.1c0.1,0.1,0.1,0.2,0.1,0.3v2.1
		l2.4-2.4l0.2-0.1c0.1,0,0.1,0,0.2,0c0.1,0,0.2,0,0.3,0.1c0.1,0.1,0.1,0.2,0.1,0.3c0,0.1-0.1,0.2-0.2,0.3l-1.6,1.5l1.7,2
		c0,0,0.1,0.1,0.1,0.1c0,0.1,0,0.1,0,0.2c0,0.1,0,0.2-0.1,0.3c-0.1,0.1-0.2,0.1-0.3,0.1c-0.1,0-0.1,0-0.2-0.1
		c-0.1,0-0.1-0.1-0.2-0.1l-1.6-2l-0.8,0.8v1c0,0.1,0,0.2-0.1,0.3c-0.1,0.1-0.2,0.1-0.3,0.1c-0.1,0-0.2,0-0.3-0.1
		c-0.1-0.1-0.1-0.2-0.1-0.3L81.8,49.6z"/>
	<path class="st2" d="M86.8,49.6c0-0.1,0-0.2,0.1-0.3c0.1-0.1,0.2-0.1,0.3-0.1c0.1,0,0.2,0,0.3,0.1c0.1,0.1,0.1,0.2,0.1,0.3v1.6h2.4
		v-1.6c0-0.1,0-0.2,0.1-0.3c0.1-0.1,0.2-0.1,0.3-0.1c0.1,0,0.2,0,0.3,0.1c0.1,0.1,0.1,0.2,0.1,0.3v4.1c0,0.1,0,0.2-0.1,0.3
		c-0.1,0.1-0.2,0.1-0.3,0.1c-0.1,0-0.2,0-0.3-0.1c-0.1-0.1-0.1-0.2-0.1-0.3v-1.7h-2.3v1.7c0,0.1,0,0.2-0.1,0.3
		c-0.1,0.1-0.2,0.1-0.3,0.1c-0.1,0-0.2,0-0.3-0.1c-0.1-0.1-0.1-0.2-0.1-0.3L86.8,49.6z"/>
	<path class="st2" d="M94.5,54.2c-0.3,0-0.7-0.1-1-0.2c-0.9-0.4-1.5-1.3-1.5-2.3l0,0c0-0.3,0.1-0.7,0.2-1c0.1-0.3,0.3-0.6,0.5-0.8
		c0.5-0.5,1.2-0.8,1.9-0.8c0.3,0,0.7,0.1,1,0.2c0.9,0.4,1.5,1.3,1.5,2.3l0,0c0,0.3-0.1,0.7-0.2,1c-0.1,0.3-0.3,0.6-0.5,0.8
		C95.9,54,95.2,54.2,94.5,54.2z M94.5,53.4c0.2,0,0.5,0,0.7-0.1c0.2-0.1,0.4-0.2,0.5-0.4c0.2-0.2,0.3-0.4,0.4-0.6
		c0.1-0.2,0.1-0.4,0.1-0.7l0,0c0-0.2,0-0.5-0.1-0.7c-0.2-0.4-0.5-0.7-0.9-0.9c-0.2-0.1-0.4-0.1-0.7-0.1c-0.2,0-0.5,0-0.7,0.1
		c-0.2,0.1-0.4,0.2-0.5,0.4c-0.1,0.2-0.3,0.3-0.3,0.6c-0.1,0.2-0.1,0.4-0.1,0.7l0,0c0,0.2,0,0.5,0.1,0.7c0.1,0.2,0.2,0.4,0.3,0.6
		c0.2,0.2,0.3,0.3,0.5,0.4C94.1,53.4,94.3,53.4,94.5,53.4L94.5,53.4z M95.1,47.5c0.1,0.1,0.2,0.3,0.2,0.4c0,0.2-0.2,0.4-0.4,0.5
		h-0.1v0.2c0,0,0,0.1-0.1,0.1h-0.1h-0.1c0,0-0.1,0-0.1-0.1l0,0c0,0,0,0,0-0.1v-0.2c0,0,0,0,0-0.1v0c0-0.1,0-0.1,0.1-0.2l0,0l0,0l0,0
		l0,0h0.1c0.1,0,0.1-0.1,0.2-0.1l0,0l0,0l0,0l0,0L94.6,48h-0.1l0,0h-0.1l0,0h-0.1l0,0l0,0l0,0c0,0-0.1,0-0.1,0c-0.1,0-0.1,0-0.1-0.1
		c-0.1-0.1-0.1-0.2,0-0.3c0,0,0,0,0,0c0.1-0.1,0.2-0.1,0.3-0.2c0.1,0,0.2,0,0.3,0C94.8,47.4,95,47.4,95.1,47.5L95.1,47.5z"/>
	<path class="st2" d="M98.2,54c-0.1-0.1-0.1-0.2-0.1-0.3v-4c0-0.1,0-0.2,0.1-0.3c0.1-0.1,0.2-0.1,0.3-0.1h2.9c0.1,0,0.2,0,0.3,0.1
		c0.1,0.2,0.1,0.4,0,0.5c-0.1,0.1-0.2,0.1-0.3,0.1H99v1.3h2.1c0.1,0,0.2,0,0.3,0.1c0.1,0.1,0.1,0.2,0.1,0.3c0,0.1,0,0.2-0.1,0.3
		c-0.1,0.1-0.2,0.1-0.3,0.1H99v1.3h2.5c0.2,0,0.4,0.2,0.4,0.4c0,0.1,0,0.2-0.1,0.3c-0.1,0.1-0.2,0.1-0.3,0.1h-2.9
		C98.4,54.1,98.3,54.1,98.2,54z"/>
	<path class="st2" d="M11.4,30.8h-1.2c-0.2,0-0.4-0.2-0.4-0.4S10,30,10.2,30h3.3c0.1,0,0.2,0,0.3,0.1c0.1,0.2,0.1,0.4,0,0.6
		c-0.1,0.1-0.2,0.1-0.3,0.1h-1.2v3.7c0,0.1,0,0.2-0.1,0.3C12,34.9,11.9,35,11.8,35c-0.1,0-0.2,0-0.3-0.1c-0.1-0.1-0.1-0.2-0.1-0.3
		L11.4,30.8z"/>
	<path class="st2" d="M14.7,30.4c0-0.1,0-0.2,0.1-0.3c0.1-0.1,0.2-0.1,0.3-0.1c0.1,0,0.2,0,0.3,0.1c0.1,0.1,0.1,0.2,0.1,0.3v1.7h2.3
		v-1.7c0-0.2,0.2-0.4,0.4-0.4c0,0,0,0,0,0c0.1,0,0.2,0,0.3,0.1c0.1,0.1,0.1,0.2,0.1,0.3v4.1c0,0.1,0,0.2-0.1,0.3
		c-0.1,0.1-0.2,0.1-0.3,0.1c-0.1,0-0.2,0-0.3-0.1c-0.1-0.1-0.1-0.2-0.1-0.3v-1.7h-2.3v1.7c0,0.1,0,0.2-0.1,0.3
		c-0.1,0.1-0.2,0.1-0.3,0.1c-0.1,0-0.2,0-0.3-0.1c-0.1-0.1-0.1-0.2-0.1-0.3V30.4z"/>
	<path class="st2" d="M19.7,34.6c0-0.1,0-0.1,0.1-0.2l1.8-4c0-0.1,0.1-0.2,0.2-0.3C21.9,30,22,30,22.1,30h0c0.1,0,0.2,0,0.3,0.1
		c0.1,0.1,0.2,0.2,0.2,0.3l1.8,4c0.1,0.2,0.1,0.4-0.1,0.5c-0.1,0.1-0.2,0.1-0.3,0.1c-0.1,0-0.2,0-0.3-0.1c-0.1-0.1-0.1-0.1-0.2-0.2
		l-0.4-0.9h-2.4l-0.4,0.9c-0.1,0.2-0.2,0.3-0.4,0.3c-0.1,0-0.2,0-0.3-0.1C19.7,34.8,19.7,34.7,19.7,34.6z M21.7,29.4
		c-0.1,0.1-0.2,0.1-0.3,0.2c-0.1,0-0.2,0-0.3,0c0,0-0.1,0-0.1,0c0,0-0.1-0.1-0.1-0.1c0-0.1,0-0.1,0.1-0.1l0,0l0.5-0.6
		c0-0.1,0.1-0.1,0.2-0.2c0.1,0,0.2,0,0.2,0h0.3c0.1,0,0.2,0,0.2,0c0.1,0,0.1,0.1,0.2,0.2l0.5,0.6c0,0,0,0.1,0.1,0.1c0,0,0,0.1,0,0.1
		c0,0,0,0.1-0.1,0.1c0,0-0.1,0-0.1,0c-0.1,0-0.2,0-0.3,0c-0.1,0-0.2-0.1-0.2-0.2l-0.3-0.4L21.7,29.4z M22.9,33l-0.9-2l-0.9,2H22.9z"
		/>
	<path class="st2" d="M25.4,30.5c0-0.1,0-0.2,0.1-0.3c0.1-0.1,0.2-0.1,0.3-0.1H26c0.1,0,0.2,0,0.3,0.1c0.1,0.1,0.1,0.1,0.2,0.2
		l2.4,3.2v-3c0-0.2,0.2-0.4,0.4-0.4c0.1,0,0.2,0,0.3,0.1c0.1,0.1,0.1,0.2,0.1,0.3v4.1c0,0.1,0,0.2-0.1,0.3c-0.1,0.1-0.2,0.1-0.3,0.1
		l0,0c-0.1,0-0.2,0-0.2-0.1c-0.1-0.1-0.1-0.1-0.2-0.2l-2.5-3.3v3.1c0,0.1,0,0.2-0.1,0.3c-0.2,0.2-0.4,0.2-0.6,0c0,0,0,0,0,0
		c-0.1-0.1-0.1-0.2-0.1-0.3L25.4,30.5z"/>
	<path class="st2" d="M34.3,30.8h-1.2c-0.1,0-0.2,0-0.3-0.1c-0.2-0.1-0.2-0.4,0-0.6c0,0,0,0,0,0c0.1-0.1,0.2-0.1,0.3-0.1h3.3
		c0.1,0,0.2,0,0.3,0.1c0.2,0.1,0.2,0.4,0,0.6c0,0,0,0,0,0c-0.1,0.1-0.2,0.1-0.3,0.1h-1.2v3.7c0,0.1,0,0.2-0.1,0.3
		c-0.1,0.1-0.2,0.1-0.3,0.1c-0.1,0-0.2,0-0.3-0.1c-0.1-0.1-0.1-0.2-0.1-0.3L34.3,30.8z"/>
	<path class="st2" d="M37.6,30.4c0-0.1,0-0.2,0.1-0.3c0.1-0.1,0.2-0.1,0.3-0.1c0.2,0,0.4,0.2,0.4,0.4c0,0,0,0,0,0v1.7h2.3v-1.6
		c0-0.1,0-0.2,0.1-0.3c0.2-0.2,0.4-0.2,0.6,0c0.1,0.1,0.1,0.2,0.1,0.3v4.1c0,0.1,0,0.2-0.1,0.3c-0.2,0.2-0.4,0.2-0.6,0c0,0,0,0,0,0
		c-0.1-0.1-0.1-0.2-0.1-0.3v-1.7h-2.3v1.7c0,0.1,0,0.2-0.1,0.3C38.3,34.9,38.2,35,38,35c-0.1,0-0.2,0-0.3-0.1
		c-0.1-0.1-0.1-0.2-0.1-0.3V30.4z"/>
	<path class="st2" d="M43,30.4c0-0.1,0-0.2,0.1-0.3c0.1-0.1,0.2-0.1,0.3-0.1c0.2,0,0.4,0.2,0.4,0.4c0,0,0,0,0,0v4.1
		c0,0.1,0,0.2-0.1,0.3c-0.1,0.1-0.2,0.1-0.3,0.1c-0.1,0-0.2,0-0.3-0.1C43,34.8,43,34.7,43,34.5L43,30.4z"/>
	<path class="st2" d="M45.6,34.9c-0.1,0-0.2,0-0.3-0.1c-0.1-0.1-0.1-0.2-0.1-0.3v-4c0-0.1,0-0.2,0.1-0.3c0.1-0.1,0.2-0.1,0.3-0.1
		h2.8c0.2,0,0.4,0.2,0.4,0.4c0,0,0,0,0,0c0,0.1,0,0.2-0.1,0.3c-0.1,0.1-0.2,0.1-0.3,0.1H46v1.3h2.1c0.1,0,0.2,0,0.3,0.1
		c0.1,0.1,0.1,0.2,0.1,0.3c0,0.2-0.2,0.4-0.3,0.4c0,0,0,0,0,0H46v1.3h2.5c0.2,0,0.4,0.2,0.4,0.4c0,0,0,0,0,0c0,0.1,0,0.2-0.1,0.3
		c-0.1,0.1-0.2,0.1-0.3,0.1L45.6,34.9z M46.6,29.5c-0.1,0.1-0.3,0.2-0.5,0.2c0,0-0.1,0-0.1,0c0,0-0.1-0.1-0.1-0.1c0,0,0-0.1,0-0.1
		l0.1-0.2l0.5-0.6c0-0.1,0.1-0.1,0.2-0.2c0.1,0,0.2-0.1,0.2-0.1h0.2c0.1,0,0.2,0,0.2,0.1c0.1,0,0.1,0.1,0.2,0.2l0.5,0.6
		c0,0,0,0.1,0.1,0.1c0,0,0,0.1,0,0.1c0,0,0,0.1-0.1,0.1c0,0-0.1,0-0.2,0c-0.1,0-0.2,0-0.3,0c-0.1,0-0.2-0.1-0.2-0.2l-0.4-0.3
		L46.6,29.5z M46.5,35.7c0-0.1,0.1-0.2,0.1-0.3c0.1-0.1,0.2-0.1,0.4-0.1c0.1,0,0.3,0,0.3,0.1c0.1,0.1,0.1,0.2,0.1,0.3v0.1
		c0,0.3-0.2,0.5-0.5,0.5c0,0,0,0,0,0c-0.1,0-0.3,0-0.4-0.1C46.5,36,46.5,35.9,46.5,35.7L46.5,35.7z"/>
	<path class="st2" d="M49.8,30.5c0-0.1,0-0.2,0.1-0.3c0.1-0.1,0.2-0.1,0.3-0.1h0.1c0.1,0,0.2,0,0.3,0.1c0.1,0.1,0.1,0.1,0.2,0.2
		l2.4,3.2v-3c0-0.1,0-0.2,0.1-0.3c0.1-0.1,0.2-0.1,0.3-0.1c0.1,0,0.2,0,0.3,0.1c0.1,0.1,0.1,0.2,0.1,0.3v4.1c0,0.1,0,0.2-0.1,0.3
		c-0.1,0.1-0.2,0.1-0.3,0.1l0,0c-0.1,0-0.2,0-0.3-0.1c-0.1-0.1-0.1-0.1-0.2-0.2l-2.5-3.3v3.1c0,0.1,0,0.2-0.1,0.3
		c-0.1,0.1-0.2,0.1-0.3,0.1c-0.1,0-0.2,0-0.3-0.1c-0.1-0.1-0.1-0.2-0.1-0.3L49.8,30.5z"/>
	<path class="st2" d="M57.5,30.5c0-0.1,0-0.2,0.1-0.3c0.1-0.1,0.2-0.1,0.3-0.1H58c0.1,0,0.2,0,0.2,0.1c0.1,0,0.1,0.1,0.2,0.2
		l1.5,2.3l1.5-2.3c0.1-0.1,0.2-0.2,0.4-0.2h0.1c0.2,0,0.4,0.2,0.4,0.4c0,0,0,0,0,0v4.1c0,0.1,0,0.2-0.1,0.3C62.1,34.9,62,35,61.8,35
		c-0.1,0-0.2-0.1-0.3-0.1c-0.1-0.1-0.1-0.2-0.1-0.3v-2.9l-1.2,1.8c0,0.1-0.1,0.1-0.2,0.2c-0.1,0-0.1,0.1-0.2,0.1
		c-0.1,0-0.1,0-0.2-0.1c-0.1,0-0.1-0.1-0.2-0.2l-1.2-1.8v2.9c0,0.1,0,0.2-0.1,0.3C58.1,34.9,58,35,57.9,35c-0.2,0-0.4-0.2-0.4-0.4
		c0,0,0,0,0,0L57.5,30.5z"/>
	<path class="st2" d="M65.9,35c-0.7,0-1.4-0.2-1.8-0.7c-0.2-0.2-0.4-0.5-0.5-0.8c-0.1-0.3-0.2-0.7-0.2-1l0,0c0-1.4,1.2-2.6,2.7-2.5
		c0.3,0,0.6,0.1,0.9,0.2c0.3,0.1,0.6,0.3,0.8,0.5c0.2,0.2,0.4,0.5,0.5,0.8c0.1,0.3,0.2,0.7,0.2,1l0,0c0,0.3-0.1,0.7-0.2,1
		c-0.1,0.3-0.3,0.6-0.5,0.8c-0.2,0.2-0.5,0.4-0.8,0.6C66.6,35,66.2,35,65.9,35z M65.9,34.2c0.2,0,0.5,0,0.7-0.1
		c0.2-0.1,0.4-0.2,0.5-0.4c0.1-0.2,0.3-0.3,0.3-0.5c0.1-0.2,0.1-0.4,0.1-0.7l0,0c0-0.2,0-0.5-0.1-0.7c-0.2-0.4-0.5-0.7-0.9-0.9
		c-0.2-0.1-0.4-0.1-0.7-0.1c-0.2,0-0.5,0-0.7,0.1c-0.2,0.1-0.4,0.2-0.5,0.4c-0.1,0.2-0.3,0.3-0.3,0.6c-0.1,0.2-0.1,0.4-0.1,0.7l0,0
		c0,0.7,0.4,1.3,1,1.6C65.4,34.2,65.7,34.2,65.9,34.2L65.9,34.2z M65.5,29.4c-0.1,0.1-0.2,0.1-0.2,0.2c-0.1,0-0.2,0-0.3,0
		c0,0-0.1,0-0.1,0c0,0-0.1-0.1-0.1-0.1c0,0,0-0.1,0-0.1c0,0,0-0.1,0.1-0.1l0.5-0.6c0-0.1,0.1-0.1,0.2-0.2c0.1,0,0.2,0,0.2,0H66
		c0.1,0,0.2,0,0.2,0c0.1,0,0.1,0.1,0.2,0.2l0.5,0.6l0.1,0.1c0,0,0,0.1,0,0.1c0,0,0,0.1-0.1,0.1c0,0-0.1,0-0.1,0c-0.1,0-0.2,0-0.3,0
		c-0.1,0-0.2-0.1-0.2-0.2l-0.4-0.3L65.5,29.4z"/>
	<path class="st2" d="M69.5,30.4c0-0.1,0-0.2,0.1-0.3c0.1-0.1,0.2-0.1,0.3-0.1c0.1,0,0.2,0,0.3,0.1c0.1,0.1,0.1,0.2,0.1,0.3v4.1
		c0,0.1,0,0.2-0.1,0.3C70.2,34.9,70.1,35,70,35c-0.1,0-0.2,0-0.3-0.1c-0.1-0.1-0.1-0.2-0.1-0.3V30.4z"/>
	<path class="st2" d="M75,30.8h-1.2c-0.1,0-0.2,0-0.3-0.1c-0.2-0.1-0.2-0.4,0-0.6c0,0,0,0,0,0c0.1-0.1,0.2-0.1,0.3-0.1h3.2
		c0.2,0,0.4,0.2,0.4,0.4s-0.2,0.4-0.4,0.4h-1.2v3.7c0,0.1,0,0.2-0.1,0.3c-0.1,0.1-0.2,0.1-0.3,0.1c-0.1,0-0.2,0-0.3-0.1
		c-0.1-0.1-0.1-0.2-0.1-0.3V30.8z"/>
	<path class="st2" d="M78.3,30.5c0-0.1,0-0.2,0.1-0.3c0.1-0.1,0.2-0.1,0.3-0.1h1.8c0.3,0,0.6,0,0.8,0.1c0.2,0.1,0.4,0.2,0.6,0.4
		c0.1,0.1,0.2,0.3,0.3,0.5c0.1,0.2,0.1,0.4,0.1,0.6l0,0c0,0.2,0,0.4-0.1,0.5c-0.1,0.2-0.1,0.3-0.2,0.4c-0.1,0.1-0.2,0.2-0.4,0.3
		c-0.1,0.1-0.3,0.2-0.4,0.2l0.9,1.2c0,0,0.1,0.1,0.1,0.2c0,0.1,0,0.1,0,0.2c0,0.1,0,0.2-0.1,0.3C82.1,34.9,82,35,81.9,35
		c-0.1,0-0.2,0-0.2-0.1c-0.1,0-0.1-0.1-0.2-0.2l-1.2-1.5h-1.1v1.3c0,0.1,0,0.2-0.1,0.3C79,34.9,78.9,35,78.7,35
		c-0.1,0-0.2,0-0.3-0.1c-0.1-0.1-0.1-0.2-0.1-0.3L78.3,30.5z M80.5,32.5c0.3,0,0.5-0.1,0.7-0.2c0.2-0.1,0.3-0.4,0.3-0.6l0,0
		c0-0.2-0.1-0.5-0.3-0.6c-0.2-0.2-0.5-0.2-0.8-0.2h-1.3v1.6L80.5,32.5z"/>
	<path class="st2" d="M87.8,29c0.1,0,0.3,0,0.4,0.2c0.1,0.1,0.1,0.3,0.1,0.4v0.1c0,0.2,0,0.4-0.1,0.6c-0.1,0.2-0.1,0.3-0.2,0.4
		c-0.1,0.1-0.3,0.2-0.4,0.2v1.9c0,0.3,0,0.7-0.2,1c-0.1,0.3-0.2,0.5-0.4,0.7c-0.2,0.2-0.4,0.3-0.7,0.4c-0.3,0.1-0.6,0.1-0.9,0.1
		c-0.3,0-0.6,0-0.9-0.1c-0.2-0.1-0.5-0.2-0.7-0.4c-0.2-0.2-0.3-0.4-0.4-0.7c-0.1-0.3-0.1-0.6-0.1-0.9v-2.5c0-0.1,0-0.2,0.1-0.3
		c0.1-0.1,0.2-0.1,0.3-0.1c0.1,0,0.2,0,0.3,0.1c0.1,0.1,0.1,0.2,0.1,0.3v2.4c0,0.4,0.1,0.7,0.3,1c0.2,0.2,0.6,0.4,0.9,0.3
		c0.3,0,0.7-0.1,0.9-0.3c0.2-0.3,0.4-0.6,0.3-1v-2.4c0-0.1,0-0.2,0.1-0.3c0.1-0.1,0.2-0.1,0.3-0.1c0.1,0,0.2,0,0.3,0.1
		c0.1,0.1,0.1,0.2,0.1,0.3l0,0c0.1-0.1,0.2-0.3,0.2-0.5c-0.1,0-0.2-0.1-0.3-0.2c-0.1-0.1-0.1-0.2-0.1-0.3v-0.1c0-0.1,0-0.2,0.1-0.3
		C87.5,29,87.6,29,87.8,29z"/>
	<path class="st2" d="M92.9,30.7c0.2,0.2,0.4,0.5,0.5,0.8c0.1,0.3,0.2,0.7,0.2,1l0,0c0,0.3-0.1,0.7-0.2,1C93,34.4,92.1,35,91.1,35
		c-0.3,0-0.7-0.1-1-0.2c-0.3-0.1-0.6-0.3-0.8-0.6c-0.2-0.2-0.4-0.5-0.5-0.8c-0.1-0.3-0.2-0.7-0.2-1l0,0c0-0.3,0.1-0.7,0.2-1
		c0.1-0.3,0.3-0.6,0.5-0.8c0.2-0.2,0.5-0.4,0.8-0.6c0.3-0.1,0.7-0.2,1-0.2c0.3,0,0.5,0,0.8,0.1c0.2,0.1,0.5,0.2,0.7,0.3
		c0.1-0.1,0.1-0.2,0.1-0.4c-0.1,0-0.2-0.1-0.3-0.2c-0.1-0.1-0.1-0.2-0.1-0.3v-0.1c0-0.1,0-0.2,0.1-0.3c0.2-0.2,0.5-0.2,0.7,0
		c0,0,0,0,0,0c0.1,0.1,0.1,0.3,0.1,0.4v0.1c0,0.2,0,0.4-0.1,0.6C93.1,30.4,93,30.6,92.9,30.7z M92.7,32.5c0-0.2,0-0.5-0.1-0.7
		c-0.1-0.2-0.2-0.4-0.3-0.6c-0.2-0.2-0.3-0.3-0.5-0.4c-0.2-0.1-0.4-0.1-0.7-0.1c-0.5,0-0.9,0.2-1.2,0.5c-0.1,0.2-0.3,0.3-0.3,0.6
		c-0.1,0.2-0.1,0.4-0.1,0.7l0,0c0,0.5,0.2,0.9,0.5,1.2c0.2,0.2,0.3,0.3,0.5,0.4c0.2,0.1,0.4,0.1,0.7,0.1c0.2,0,0.5,0,0.7-0.1
		c0.2-0.1,0.4-0.2,0.5-0.4c0.2-0.2,0.3-0.3,0.3-0.5C92.7,33,92.7,32.7,92.7,32.5L92.7,32.5z M91.7,29.4c-0.1,0-0.2,0-0.3,0
		c-0.1,0-0.2-0.1-0.2-0.2l-0.5-0.4c-0.1,0-0.1-0.1-0.1-0.2c0,0,0-0.1,0-0.1c0,0,0.1-0.1,0.1-0.1c0,0,0.1-0.1,0.2-0.1
		c0.1,0,0.1,0,0.2,0c0.1,0,0.3,0.1,0.3,0.2l0.4,0.6c0,0,0,0.1,0,0.1c0,0,0,0,0,0.1C91.8,29.3,91.8,29.4,91.7,29.4
		C91.8,29.4,91.8,29.4,91.7,29.4L91.7,29.4z"/>
	<path class="st2" d="M94.7,30.5c0-0.1,0-0.2,0.1-0.3c0.1-0.1,0.2-0.1,0.3-0.1h0.1c0.1,0,0.2,0,0.3,0.1c0.1,0.1,0.1,0.1,0.2,0.2
		l2.5,3.2v-3c0-0.1,0-0.2,0.1-0.3c0.1-0.1,0.2-0.1,0.3-0.1c0.1,0,0.2,0,0.3,0.1c0.1,0.1,0.1,0.2,0.1,0.3v4.1c0,0.1,0,0.2-0.1,0.3
		c-0.1,0.1-0.2,0.1-0.3,0.1l0,0c-0.1,0-0.2,0-0.3-0.1c-0.1-0.1-0.1-0.1-0.2-0.2l-2.5-3.3v3.1c0,0.1,0,0.2-0.1,0.3
		c-0.1,0.1-0.2,0.1-0.3,0.1c-0.1,0-0.2,0-0.3-0.1c-0.1-0.1-0.1-0.2-0.1-0.3L94.7,30.5z"/>
	<path class="st2" d="M102.5,35c-0.4,0-0.7-0.1-1.1-0.2c-0.3-0.1-0.6-0.3-0.8-0.5c-0.2-0.2-0.4-0.5-0.5-0.8c-0.1-0.3-0.2-0.7-0.2-1
		l0,0c0-0.3,0.1-0.7,0.2-1c0.1-0.3,0.3-0.6,0.5-0.8c0.2-0.2,0.5-0.4,0.8-0.6c0.3-0.1,0.7-0.2,1-0.2c0.3,0,0.7,0,1,0.1
		c0.3,0.1,0.5,0.2,0.7,0.4c0.1,0,0.1,0.1,0.1,0.1c0,0.1,0.1,0.1,0.1,0.2c0,0.1,0,0.2-0.1,0.3c-0.1,0.1-0.2,0.1-0.3,0.1
		c0,0-0.1,0-0.1,0c0,0-0.1,0-0.1-0.1c-0.2-0.1-0.3-0.2-0.5-0.3c-0.2-0.1-0.4-0.1-0.7-0.1c-0.2,0-0.4,0-0.6,0.1
		c-0.2,0.1-0.4,0.2-0.5,0.4c-0.1,0.2-0.3,0.3-0.3,0.6c-0.1,0.2-0.1,0.4-0.1,0.7l0,0c0,0.2,0,0.5,0.1,0.7c0.1,0.2,0.2,0.4,0.3,0.6
		c0.1,0.2,0.3,0.3,0.5,0.4c0.2,0.1,0.4,0.1,0.7,0.1c0.2,0,0.4,0,0.7-0.1c0.2-0.1,0.4-0.2,0.5-0.3V33h-1c-0.1,0-0.2,0-0.3-0.1
		c-0.1-0.2-0.1-0.4,0-0.5c0.1-0.1,0.2-0.1,0.3-0.1h1.4c0.1,0,0.2,0,0.3,0.1c0.1,0.1,0.1,0.2,0.1,0.3V34c0,0.2-0.1,0.4-0.3,0.5
		c-0.2,0.2-0.5,0.3-0.8,0.4C103.2,35,102.8,35,102.5,35z"/>
	<path class="st2" d="M135,10c-0.7,0-1.3-0.3-1.8-0.7c-0.2-0.2-0.4-0.5-0.5-0.8c-0.1-0.3-0.2-0.7-0.2-1l0,0c0-0.7,0.3-1.3,0.7-1.8
		c0.2-0.2,0.5-0.4,0.8-0.5c0.3-0.1,0.7-0.2,1-0.2c0.3,0,0.7,0,1,0.2c0.3,0.1,0.5,0.2,0.7,0.4c0.1,0,0.1,0.1,0.1,0.1
		c0,0.1,0,0.1,0,0.2c0,0.1,0,0.2-0.1,0.3c-0.1,0.1-0.2,0.1-0.3,0.1c0,0-0.1,0-0.1,0l-0.1-0.1c-0.2-0.1-0.3-0.2-0.5-0.3
		c-0.2-0.1-0.4-0.1-0.6-0.1c-0.2,0-0.4,0-0.6,0.1c-0.2,0.1-0.4,0.2-0.5,0.4c-0.1,0.2-0.3,0.3-0.3,0.5c-0.1,0.2-0.1,0.4-0.1,0.7l0,0
		c0,0.2,0,0.5,0.1,0.7c0.1,0.2,0.2,0.4,0.3,0.5c0.1,0.2,0.3,0.3,0.5,0.4c0.2,0.1,0.4,0.1,0.6,0.1c0.2,0,0.5,0,0.7-0.1
		c0.2-0.1,0.4-0.2,0.6-0.3c0,0,0.1-0.1,0.1-0.1c0,0,0.1,0,0.1,0c0.1,0,0.2,0,0.3,0.1c0.1,0.1,0.1,0.2,0.1,0.3c0,0.1,0,0.1,0,0.2
		c0,0.1-0.1,0.1-0.1,0.1c-0.2,0.2-0.5,0.4-0.8,0.5C135.7,10,135.4,10.1,135,10z"/>
	<path class="st2" d="M137.6,9.6c0-0.1,0-0.1,0.1-0.2l1.8-4c0-0.1,0.1-0.2,0.2-0.2C139.7,5,139.8,5,140,5h0.1c0.1,0,0.2,0,0.3,0.1
		c0.1,0.1,0.2,0.1,0.2,0.2l1.8,4c0.1,0.2,0.1,0.4-0.1,0.5c-0.1,0.1-0.2,0.1-0.3,0.1c-0.1,0-0.2,0-0.3-0.1c-0.1-0.1-0.1-0.1-0.2-0.2
		l-0.4-0.9h-2.4l-0.4,0.9c-0.1,0.2-0.2,0.3-0.4,0.3c-0.1,0-0.2,0-0.3-0.1C137.6,9.8,137.6,9.7,137.6,9.6z M140.8,8L140,6l-0.9,2
		H140.8z M139.9,4.6c0,0-0.1,0-0.1,0c0,0-0.1-0.1-0.1-0.1c0,0,0,0,0-0.1c0,0,0-0.1,0-0.1l0.4-0.6c0.1-0.1,0.2-0.2,0.3-0.2h0.2
		l0.2,0.1c0,0,0.1,0.1,0.1,0.1c0,0,0,0.1,0,0.1c0,0.1,0,0.2-0.1,0.2l-0.5,0.5c-0.1,0.1-0.2,0.1-0.2,0.2C140,4.6,140,4.6,139.9,4.6z"
		/>
	<path class="st2" d="M144,5.8h-1.2c-0.1,0-0.2,0-0.3-0.1c-0.2-0.1-0.2-0.4,0-0.6c0,0,0,0,0,0c0.1-0.1,0.2-0.1,0.3-0.1h3.3
		c0.1,0,0.2,0,0.3,0.1c0.2,0.1,0.2,0.4,0,0.6c0,0,0,0,0,0c-0.1,0.1-0.2,0.1-0.3,0.1h-1.2v3.7c0,0.2-0.2,0.4-0.4,0.4
		c-0.1,0-0.2,0-0.3-0.1C144,9.8,144,9.7,144,9.5L144,5.8z"/>
	<path class="st2" d="M149.6,7.1V5.5c0-0.1,0-0.2,0.1-0.3c0.1-0.1,0.2-0.1,0.3-0.1h1.4c0.4,0,0.7,0.1,1.1,0.2
		c0.6,0.2,1.1,0.7,1.4,1.3c0.1,0.3,0.2,0.7,0.2,1l0,0c0,0.3-0.1,0.7-0.2,1c-0.1,0.3-0.3,0.6-0.5,0.8c-0.2,0.2-0.5,0.4-0.8,0.5
		c-0.3,0.1-0.7,0.2-1.1,0.2h-1.4c-0.1,0-0.2,0-0.3-0.1c-0.1-0.1-0.1-0.2-0.1-0.3V7.9h-0.2c-0.1,0-0.2,0-0.3-0.1
		c-0.1-0.1-0.1-0.2-0.1-0.3c0-0.1,0-0.2,0.1-0.3c0.1-0.1,0.2-0.1,0.3-0.1H149.6z M150.4,7.1h0.9c0.1,0,0.2,0,0.3,0.1
		c0.1,0.1,0.1,0.2,0.1,0.3c0,0.1,0,0.2-0.1,0.3c-0.1,0.1-0.2,0.1-0.3,0.1h-0.9v1.3h1c0.2,0,0.5,0,0.7-0.1c0.4-0.2,0.7-0.5,0.9-0.9
		c0.1-0.2,0.1-0.4,0.1-0.7l0,0c0-0.2,0-0.4-0.1-0.7c-0.1-0.2-0.2-0.4-0.4-0.5c-0.2-0.2-0.3-0.3-0.5-0.3c-0.2-0.1-0.5-0.1-0.7-0.1h-1
		V7.1z"/>
	<path class="st2" d="M154.7,9.6c0-0.1,0-0.1,0.1-0.2l1.8-4c0-0.1,0.1-0.2,0.2-0.2C156.9,5,157,5,157.1,5l0,0c0.1,0,0.2,0,0.3,0.1
		c0.1,0.1,0.2,0.2,0.2,0.2l1.9,4c0.1,0.2,0.1,0.4-0.1,0.5c-0.1,0.1-0.2,0.1-0.3,0.1c-0.1,0-0.2,0-0.3-0.1c-0.1-0.1-0.1-0.1-0.2-0.2
		l-0.4-0.9h-2.4l-0.4,0.9c-0.1,0.2-0.2,0.3-0.4,0.3c-0.1,0-0.2,0-0.3-0.1C154.8,9.8,154.7,9.7,154.7,9.6z M156.7,4.4
		c-0.1,0.1-0.2,0.1-0.2,0.2c-0.1,0-0.2,0-0.3,0c0,0-0.1,0-0.1,0c0,0-0.1-0.1-0.1-0.1c0,0,0-0.1,0-0.1c0,0,0-0.1,0.1-0.1l0.5-0.6
		c0-0.1,0.1-0.1,0.2-0.2c0.1,0,0.2,0,0.2,0h0.2c0.1,0,0.2,0,0.2,0c0.1,0,0.1,0.1,0.2,0.2l0.5,0.6l0.1,0.1c0,0,0,0.1,0,0.1
		c0,0,0,0.1-0.1,0.1c0,0-0.1,0-0.1,0c-0.1,0-0.2,0-0.3,0c-0.1,0-0.2-0.1-0.2-0.2l-0.4-0.3L156.7,4.4z M158,8l-0.9-2l-0.9,2H158z
		 M157.9,3.6c0,0-0.1,0-0.1,0c0,0-0.1-0.1-0.1-0.1c0,0,0,0,0-0.1c0,0,0-0.1,0-0.1l0.4-0.6c0.1-0.1,0.2-0.2,0.3-0.2
		c0.1,0,0.1,0,0.2,0c0.1,0,0.1,0,0.2,0.1c0,0,0.1,0.1,0.1,0.1c0,0,0,0.1,0,0.1c0,0.1-0.1,0.2-0.1,0.2l-0.5,0.5
		c-0.1,0.1-0.2,0.1-0.2,0.2C158,3.6,158,3.6,157.9,3.6L157.9,3.6z"/>
	<path class="st2" d="M161.7,5.8h-1.2c-0.2,0-0.4-0.2-0.4-0.4c0-0.2,0.2-0.4,0.4-0.4h3.3c0.1,0,0.2,0,0.3,0.1c0.2,0.1,0.2,0.4,0,0.6
		c0,0,0,0,0,0c-0.1,0.1-0.2,0.1-0.3,0.1h-1.2v3.7c0,0.2-0.2,0.4-0.4,0.4c-0.1,0-0.2,0-0.3-0.1c-0.1-0.1-0.1-0.2-0.1-0.3V5.8z"/>
	<path class="st2" d="M168.8,10c-0.7,0-1.3-0.2-1.8-0.6c0,0-0.1-0.1-0.1-0.1c0-0.1,0-0.1-0.1-0.2c0-0.1,0-0.2,0.1-0.3
		c0.1-0.1,0.2-0.1,0.3-0.1h0.1c0,0,0.1,0,0.1,0.1c0.2,0.2,0.4,0.3,0.6,0.4c0.2,0.1,0.5,0.1,0.7,0.1c0.2,0,0.4,0,0.6-0.2
		c0.2-0.1,0.2-0.3,0.2-0.4l0,0c0-0.1,0-0.2-0.1-0.2c0-0.1-0.1-0.1-0.2-0.2c-0.1-0.1-0.2-0.1-0.3-0.2c-0.1,0-0.3-0.1-0.6-0.2
		c-0.2,0-0.5-0.1-0.7-0.2c-0.2-0.1-0.4-0.2-0.5-0.3c-0.1-0.1-0.2-0.2-0.3-0.4C167,6.8,167,6.6,167,6.4l0,0c0-0.2,0-0.4,0.1-0.6
		c0.1-0.2,0.2-0.3,0.3-0.4c0.2-0.1,0.3-0.2,0.5-0.3c0.2-0.1,0.4-0.1,0.7-0.1c0.3,0,0.6,0,0.8,0.1c0.3,0.1,0.5,0.2,0.7,0.3
		c0.1,0,0.1,0.1,0.1,0.1c0.1,0.2,0.1,0.4-0.1,0.5c-0.1,0.1-0.2,0.1-0.3,0.1c-0.1,0-0.2,0-0.2-0.1c-0.2-0.1-0.4-0.2-0.6-0.3
		c-0.2-0.1-0.4-0.1-0.6-0.1c-0.2,0-0.4,0-0.6,0.2c-0.1,0.1-0.2,0.2-0.2,0.4l0,0c0,0.1,0,0.2,0,0.2c0,0.1,0.1,0.2,0.2,0.2
		c0.1,0.1,0.2,0.1,0.4,0.2c0.2,0.1,0.4,0.1,0.6,0.2c0.2,0.1,0.5,0.1,0.7,0.2c0.2,0.1,0.3,0.2,0.5,0.3c0.1,0.1,0.2,0.2,0.3,0.4
		c0.1,0.2,0.1,0.3,0.1,0.5l0,0c0,0.2,0,0.4-0.1,0.6c-0.1,0.2-0.2,0.3-0.4,0.5c-0.2,0.1-0.4,0.2-0.6,0.3C169.3,10,169.1,10,168.8,10z
		"/>
	<path class="st2" d="M172.1,9.9c-0.1,0-0.2,0-0.3-0.1c-0.1-0.1-0.1-0.2-0.1-0.3v-4c0-0.1,0-0.2,0.1-0.3c0.1-0.1,0.2-0.1,0.3-0.1
		h2.9c0.2,0,0.4,0.2,0.4,0.4c0,0,0,0,0,0c0,0.1,0,0.2-0.1,0.3c-0.1,0.1-0.2,0.1-0.3,0.1h-2.4v1.3h2.1c0.1,0,0.2,0,0.3,0.1
		c0.1,0.1,0.1,0.2,0.1,0.3c0,0.1,0,0.2-0.1,0.3c-0.1,0.1-0.2,0.1-0.3,0.1h-2.1v1.3h2.4c0.2,0,0.4,0.2,0.4,0.4c0,0,0,0,0,0
		c0,0.1,0,0.2-0.1,0.3c-0.1,0.1-0.2,0.1-0.3,0.1L172.1,9.9z M173.4,4.7c0,0-0.1,0-0.1,0c0,0-0.1-0.1-0.1-0.1c0,0,0,0,0-0.1
		c0,0,0-0.1,0-0.1l0.4-0.6c0.1-0.1,0.2-0.2,0.3-0.2c0.1,0,0.1,0,0.2,0c0.1,0,0.1,0,0.2,0.1c0,0,0.1,0.1,0.1,0.1c0,0,0,0.1,0,0.1
		c0,0.1-0.1,0.2-0.1,0.2l-0.5,0.5c-0.1,0.1-0.2,0.1-0.2,0.2C173.5,4.7,173.5,4.7,173.4,4.7L173.4,4.7z"/>
	<path class="st2" d="M177.5,5.8h-1.2c-0.1,0-0.2,0-0.3-0.1c-0.1-0.2-0.1-0.4,0-0.6c0.1-0.1,0.2-0.1,0.3-0.1h3.2
		c0.2,0,0.4,0.2,0.4,0.4c0,0.2-0.2,0.4-0.4,0.4h-1.2v3.7c0,0.1,0,0.2-0.1,0.3c-0.1,0.1-0.2,0.1-0.3,0.1c-0.1,0-0.2,0-0.3-0.1
		c-0.1-0.1-0.1-0.2-0.1-0.3V5.8z"/>
	<path class="st2" d="M125.7,19.3h-0.1h-0.1c-0.5-0.3-1-0.7-1.3-1.2c-0.6-1-0.6-2.3,0-3.3c0.3-0.5,0.8-0.9,1.3-1.2h0.1
		c0,0,0.1,0,0.1,0c0.1,0,0.2,0,0.2,0.1c0.1,0.1,0.1,0.1,0.1,0.2c0,0.1-0.1,0.2-0.1,0.3c-0.4,0.3-0.7,0.6-1,1
		c-0.2,0.4-0.3,0.8-0.3,1.3c0,0.5,0.1,0.9,0.3,1.3c0.3,0.4,0.6,0.7,1,1c0.1,0.1,0.1,0.2,0.1,0.3c0,0.1,0,0.2-0.1,0.2
		C125.9,19.3,125.8,19.4,125.7,19.3z"/>
	<path class="st2" d="M127.1,13.9c0-0.2,0.2-0.4,0.4-0.4l0,0h1.8c0.5,0,0.9,0.1,1.3,0.4c0.2,0.2,0.3,0.5,0.3,0.8l0,0
		c0,0.1,0,0.3-0.1,0.4c0,0.1-0.1,0.2-0.1,0.3c-0.1,0.1-0.1,0.2-0.2,0.2c-0.1,0.1-0.2,0.1-0.3,0.2c0.1,0,0.3,0.1,0.4,0.2
		c0.1,0.1,0.2,0.1,0.3,0.2c0.1,0.1,0.2,0.2,0.2,0.3c0,0.1,0.1,0.3,0.1,0.4l0,0c0,0.2,0,0.4-0.1,0.6c-0.1,0.2-0.2,0.3-0.4,0.4
		c-0.2,0.1-0.4,0.2-0.6,0.2c-0.2,0.1-0.5,0.1-0.7,0.1h-1.9c-0.2,0-0.4-0.2-0.4-0.4c0,0,0,0,0,0L127.1,13.9z M129.1,15.5
		c0.2,0,0.5,0,0.7-0.2c0.2-0.1,0.3-0.3,0.2-0.5l0,0c0-0.2-0.1-0.4-0.2-0.5c-0.2-0.1-0.4-0.2-0.6-0.2h-1.2v1.3L129.1,15.5z
		 M129.3,17.6c0.2,0,0.5,0,0.7-0.2c0.2-0.1,0.3-0.3,0.2-0.5l0,0c0-0.2-0.1-0.4-0.2-0.5c-0.2-0.1-0.5-0.2-0.8-0.2h-1.4v1.3
		L129.3,17.6z"/>
	<path class="st2" d="M132.2,18.2c-0.1-0.1-0.1-0.2-0.1-0.3v-4c0-0.2,0.2-0.4,0.4-0.4c0,0,0,0,0,0h2.9c0.2,0,0.4,0.2,0.4,0.4
		c0,0,0,0,0,0c0,0.1,0,0.2-0.1,0.3c-0.1,0.1-0.2,0.1-0.3,0.1H133v1.3h2.1c0.1,0,0.2,0,0.3,0.1c0.1,0.1,0.1,0.2,0.1,0.3
		c0,0.1,0,0.2-0.1,0.3c-0.1,0.1-0.2,0.1-0.3,0.1H133v1.3h2.4c0.2,0,0.4,0.2,0.4,0.4c0,0,0,0,0,0c0,0.1,0,0.2-0.1,0.3
		c-0.1,0.1-0.2,0.1-0.3,0.1h-2.9C132.4,18.4,132.3,18.3,132.2,18.2z"/>
	<path class="st2" d="M138,14.2h-1.2c-0.1,0-0.2,0-0.3-0.1c-0.2-0.1-0.2-0.4,0-0.6c0,0,0,0,0,0c0.1-0.1,0.2-0.1,0.3-0.1h3.3
		c0.2,0,0.4,0.2,0.4,0.4s-0.2,0.4-0.4,0.4h-1.2V18c0,0.1,0,0.2-0.1,0.3c-0.1,0.1-0.2,0.1-0.3,0.1c-0.2,0-0.4-0.2-0.4-0.4L138,14.2z"
		/>
	<path class="st2" d="M143.4,18.4c-0.3,0-0.7-0.1-1-0.2c-0.3-0.1-0.6-0.3-0.8-0.6c-0.2-0.2-0.4-0.5-0.5-0.8c-0.1-0.3-0.2-0.7-0.2-1
		l0,0c0-0.3,0.1-0.7,0.2-1c0.1-0.3,0.3-0.6,0.5-0.8c0.5-0.5,1.2-0.8,1.9-0.8c0.3,0,0.7,0.1,1,0.2c0.3,0.1,0.6,0.3,0.8,0.5
		c0.2,0.2,0.4,0.5,0.5,0.8c0.1,0.3,0.2,0.7,0.2,1l0,0c0,0.3-0.1,0.7-0.2,1c-0.1,0.3-0.3,0.6-0.5,0.8
		C144.7,18.2,144.1,18.4,143.4,18.4L143.4,18.4z M143.4,17.6c0.2,0,0.5,0,0.7-0.1c0.2-0.1,0.4-0.2,0.5-0.4c0.1-0.2,0.3-0.3,0.3-0.5
		c0.1-0.2,0.1-0.4,0.1-0.7l0,0c0-0.2,0-0.5-0.1-0.7c-0.1-0.2-0.2-0.4-0.4-0.6c-0.1-0.1-0.3-0.3-0.5-0.3c-0.2-0.1-0.4-0.1-0.7-0.1
		c-0.2,0-0.5,0-0.7,0.1c-0.2,0.1-0.4,0.2-0.5,0.4c-0.1,0.2-0.3,0.3-0.3,0.6c-0.1,0.2-0.1,0.4-0.1,0.7l0,0c0,0.2,0,0.5,0.1,0.7
		c0.1,0.2,0.2,0.4,0.4,0.6c0.1,0.2,0.3,0.3,0.5,0.4C143,17.6,143.2,17.6,143.4,17.6L143.4,17.6z"/>
	<path class="st2" d="M147,13.9c0-0.1,0-0.2,0.1-0.3c0.1-0.1,0.2-0.1,0.3-0.1h0.1c0.1,0,0.2,0,0.3,0.1c0.1,0.1,0.1,0.1,0.2,0.2
		l2.4,3.2v-3c0-0.2,0.2-0.4,0.4-0.4c0.1,0,0.2,0,0.3,0.1c0.1,0.1,0.1,0.2,0.1,0.3v4.1c0,0.1,0,0.2-0.1,0.3c-0.1,0.1-0.2,0.1-0.3,0.1
		l0,0c-0.1,0-0.2,0-0.3-0.1c-0.1-0.1-0.1-0.1-0.2-0.2l-2.5-3.3V18c0,0.1,0,0.2-0.1,0.3c-0.2,0.2-0.4,0.2-0.6,0c0,0,0,0,0,0
		c-0.1-0.1-0.1-0.2-0.1-0.3L147,13.9z"/>
	<path class="st2" d="M152.6,13.8c0-0.1,0-0.2,0.1-0.3c0.1-0.1,0.2-0.1,0.3-0.1c0.1,0,0.2,0,0.3,0.1c0.1,0.1,0.1,0.2,0.1,0.3V18
		c0,0.1,0,0.2-0.1,0.3c-0.1,0.1-0.2,0.1-0.3,0.1c-0.1,0-0.2,0-0.3-0.1c-0.1-0.1-0.1-0.2-0.1-0.3V13.8z"/>
	<path class="st2" d="M156,14.2h-1.2c-0.1,0-0.2,0-0.3-0.1c-0.1-0.2-0.1-0.4,0-0.6c0.1-0.1,0.2-0.1,0.3-0.1h3.2
		c0.2,0,0.4,0.2,0.4,0.4s-0.2,0.4-0.4,0.4h-1.2V18c0,0.1,0,0.2-0.1,0.3c-0.1,0.1-0.2,0.1-0.3,0.1c-0.1,0-0.2,0-0.3-0.1
		c-0.1-0.1-0.1-0.2-0.1-0.3V14.2z"/>
	<path class="st2" d="M159.4,18.2c-0.1-0.1-0.1-0.2-0.1-0.3v-4c0-0.1,0-0.2,0.1-0.3c0.1-0.1,0.2-0.1,0.3-0.1h2.9
		c0.2,0,0.4,0.2,0.4,0.4c0,0,0,0,0,0c0,0.1,0,0.2-0.1,0.3c-0.1,0.1-0.2,0.1-0.3,0.1h-2.4v1.3h2.1c0.1,0,0.2,0,0.3,0.1
		c0.1,0.1,0.1,0.2,0.1,0.3c0,0.1,0,0.2-0.1,0.3c-0.1,0.1-0.2,0.1-0.3,0.1h-2.1v1.3h2.5c0.2,0,0.4,0.2,0.4,0.4c0,0,0,0,0,0
		c0,0.1,0,0.2-0.1,0.3c-0.1,0.1-0.2,0.1-0.3,0.1h-2.9C159.6,18.4,159.5,18.3,159.4,18.2z"/>
	<path class="st2" d="M163.3,19C163.3,18.9,163.3,18.9,163.3,19v-0.2l2.9-5.9c0.1-0.1,0.2-0.2,0.3-0.2c0.1,0,0.2,0,0.2,0.1
		c0.1,0.1,0.1,0.1,0.1,0.2c0,0,0,0.1,0,0.1c0,0,0,0.1,0,0.1l-2.9,5.9c-0.1,0.2-0.3,0.2-0.5,0.2c0,0-0.1,0-0.1-0.1
		C163.4,19.1,163.3,19,163.3,19z"/>
	<path class="st2" d="M169.6,18.4c-0.3,0-0.7-0.1-1-0.2c-0.3-0.1-0.6-0.3-0.8-0.5c-0.5-0.5-0.7-1.1-0.7-1.8l0,0c0-0.3,0.1-0.7,0.2-1
		c0.1-0.3,0.3-0.6,0.5-0.8c0.2-0.2,0.5-0.4,0.8-0.5c0.3-0.1,0.7-0.2,1-0.2c0.3,0,0.7,0,1,0.2c0.3,0.1,0.5,0.2,0.7,0.4l0.1,0.1
		c0,0.1,0.1,0.1,0.1,0.2c0,0.1,0,0.2-0.1,0.3c-0.1,0.1-0.2,0.1-0.3,0.1c-0.1,0-0.1,0-0.2,0l-0.1-0.1c-0.2-0.1-0.3-0.2-0.5-0.3
		c-0.2-0.1-0.4-0.1-0.6-0.1c-0.2,0-0.4,0-0.6,0.1c-0.2,0.1-0.4,0.2-0.5,0.4c-0.3,0.3-0.5,0.8-0.5,1.2l0,0c0,0.2,0,0.5,0.1,0.7
		c0.1,0.2,0.2,0.4,0.3,0.6c0.1,0.2,0.3,0.3,0.5,0.4c0.4,0.2,0.9,0.2,1.3,0c0.2-0.1,0.4-0.2,0.6-0.3c0,0,0.1-0.1,0.1-0.1
		c0,0,0.1,0,0.1,0c0.1,0,0.2,0,0.3,0.1c0.1,0.1,0.1,0.2,0.1,0.3c0,0.1,0,0.1,0,0.2c0,0.1-0.1,0.1-0.1,0.1c-0.2,0.2-0.5,0.4-0.8,0.5
		C170.3,18.4,170,18.5,169.6,18.4z"/>
	<path class="st2" d="M172.5,13.8c0-0.1,0-0.2,0.1-0.3c0.1-0.1,0.2-0.1,0.3-0.1c0.2,0,0.4,0.2,0.4,0.4c0,0,0,0,0,0v3.7h2.2
		c0.1,0,0.2,0,0.3,0.1c0.2,0.1,0.2,0.4,0,0.6c0,0,0,0,0,0c-0.1,0.1-0.2,0.1-0.3,0.1h-2.6c-0.1,0-0.2,0-0.3-0.1
		c-0.1-0.1-0.1-0.2-0.1-0.3V13.8z"/>
	<path class="st2" d="M176.5,18c0-0.1,0-0.1,0.1-0.2l1.8-4.1c0-0.1,0.1-0.2,0.2-0.2c0.1-0.1,0.2-0.1,0.3-0.1h0.1
		c0.1,0,0.2,0,0.3,0.1c0.1,0.1,0.2,0.1,0.2,0.2l1.8,4.1c0.1,0.2,0.1,0.4-0.1,0.5c-0.1,0.1-0.2,0.1-0.3,0.1c-0.1,0-0.2,0-0.3-0.1
		c-0.1-0.1-0.1-0.1-0.2-0.2l-0.4-0.9h-2.4l-0.4,0.9c-0.1,0.2-0.2,0.3-0.4,0.3c-0.1,0-0.2,0-0.3-0.1C176.5,18.2,176.5,18.1,176.5,18z
		 M179.8,16.4l-0.9-2l-0.9,2H179.8z"/>
	<path class="st2" d="M183.1,16.4l-1.7-2.3c0,0-0.1-0.1-0.1-0.1c0-0.1,0-0.1,0-0.2c0-0.1,0-0.2,0.1-0.3c0.1-0.1,0.2-0.1,0.3-0.1
		c0.1,0,0.2,0,0.2,0.1c0.1,0,0.1,0.1,0.2,0.2l1.4,2l1.4-2c0-0.1,0.1-0.1,0.2-0.2c0.1-0.1,0.2-0.1,0.2-0.1c0.1,0,0.2,0,0.3,0.1
		c0.1,0.1,0.1,0.2,0.1,0.3c0,0.1,0,0.1,0,0.2c0,0,0,0.1-0.1,0.1l-1.7,2.3V18c0,0.1,0,0.2-0.1,0.3c-0.1,0.1-0.2,0.1-0.3,0.1
		c-0.1,0-0.2,0-0.3-0.1c-0.1-0.1-0.1-0.2-0.1-0.3L183.1,16.4z"/>
	<path class="st2" d="M186.6,19.3c-0.1,0-0.2,0-0.2-0.1c-0.1-0.1-0.1-0.2-0.1-0.2c0-0.1,0-0.1,0-0.2c0,0,0.1-0.1,0.1-0.1
		c0.4-0.3,0.7-0.6,1-1c0.2-0.4,0.3-0.8,0.3-1.3c0-0.5-0.1-0.9-0.3-1.3c-0.3-0.4-0.6-0.7-1-1c0,0-0.1-0.1-0.1-0.1c0-0.1,0-0.1,0-0.2
		c0-0.1,0-0.2,0.1-0.2c0.1-0.1,0.1-0.1,0.2-0.1c0,0,0.1,0,0.1,0h0.1c0.5,0.3,1,0.7,1.3,1.2c0.6,1,0.6,2.3,0,3.3
		c-0.3,0.5-0.8,0.9-1.3,1.2h-0.1L186.6,19.3z"/>
	<path class="st2" d="M206.6,10.3c-0.3,0-0.7-0.1-1-0.2c-0.3-0.1-0.6-0.3-0.8-0.5c-0.2-0.2-0.4-0.5-0.5-0.8c-0.1-0.3-0.2-0.7-0.2-1
		l0,0c0-0.3,0.1-0.7,0.2-1c0.4-0.9,1.3-1.6,2.3-1.6c0.3,0,0.7,0,1,0.2c0.3,0.1,0.5,0.2,0.7,0.4c0.1,0,0.1,0.1,0.1,0.1
		c0,0.1,0,0.1,0,0.2c0,0.1,0,0.2-0.1,0.3c-0.1,0.1-0.2,0.1-0.3,0.1h-0.1l-0.1-0.1c-0.2-0.1-0.3-0.2-0.5-0.3
		c-0.2-0.1-0.4-0.1-0.6-0.1c-0.2,0-0.4,0-0.6,0.1c-0.2,0.1-0.4,0.2-0.5,0.4c-0.1,0.2-0.3,0.3-0.3,0.5C205,7.3,205,7.6,205,7.8l0,0
		c0,0.2,0,0.5,0.1,0.7c0.1,0.2,0.2,0.4,0.3,0.6c0.1,0.2,0.3,0.3,0.5,0.4c0.2,0.1,0.4,0.1,0.6,0.1c0.2,0,0.5,0,0.7-0.1
		c0.2-0.1,0.4-0.2,0.6-0.3c0,0,0.1-0.1,0.1-0.1c0,0,0.1,0,0.1,0c0.1,0,0.2,0,0.3,0.1c0.1,0.1,0.1,0.2,0.1,0.3c0,0.1,0,0.1,0,0.2
		c0,0-0.1,0.1-0.1,0.1c-0.2,0.2-0.5,0.4-0.8,0.5C207.3,10.3,206.9,10.4,206.6,10.3z"/>
	<path class="st2" d="M209.1,9.9c0-0.1,0-0.1,0.1-0.2l1.8-4.1c0-0.1,0.1-0.2,0.2-0.3c0.1-0.1,0.2-0.1,0.3-0.1l0,0
		c0.1,0,0.2,0,0.3,0.1c0.1,0.1,0.2,0.2,0.2,0.3l1.8,4.1c0.1,0.2,0.1,0.4-0.1,0.5c-0.1,0.1-0.2,0.1-0.3,0.1c-0.1,0-0.2,0-0.3-0.1
		c-0.1-0.1-0.1-0.1-0.2-0.2L212.7,9h-2.4l-0.4,0.9c-0.1,0.2-0.2,0.3-0.4,0.3c-0.1,0-0.2,0-0.3-0.1C209.1,10.1,209.1,10,209.1,9.9z
		 M212.4,8.3l-0.9-2l-0.9,2H212.4z M211.5,4.9c0,0-0.1,0-0.1,0c0,0-0.1-0.1-0.1-0.1c0,0,0-0.1,0-0.1c0,0,0,0,0-0.1l0.4-0.6
		c0.1-0.1,0.2-0.2,0.3-0.2h0.2l0.2,0.1c0,0,0.1,0,0.1,0.1c0,0,0,0.1,0.1,0.1c0,0.1-0.1,0.2-0.1,0.2l-0.5,0.5
		c-0.1,0.1-0.1,0.1-0.2,0.2C211.6,4.9,211.6,4.9,211.5,4.9z"/>
	<path class="st2" d="M215.5,6.1h-1.2c-0.2,0-0.4-0.2-0.4-0.4c0-0.2,0.2-0.4,0.4-0.4h3.3c0.1,0,0.2,0,0.3,0.1c0.2,0.1,0.2,0.4,0,0.6
		c0,0,0,0,0,0c-0.1,0.1-0.2,0.1-0.3,0.1h-1.2v3.7c0,0.1,0,0.2-0.1,0.3c-0.1,0.1-0.2,0.1-0.3,0.1c-0.1,0-0.2,0-0.3-0.1
		c-0.1-0.1-0.1-0.2-0.1-0.3L215.5,6.1z"/>
	<path class="st2" d="M222.2,6.1H221c-0.1,0-0.2,0-0.3-0.1c-0.2-0.1-0.2-0.4,0-0.6c0,0,0,0,0,0c0.1-0.1,0.2-0.1,0.3-0.1h3.2
		c0.2,0,0.4,0.2,0.4,0.4c0,0.2-0.2,0.4-0.4,0.4h-1.1v3.7c0,0.1,0,0.2-0.1,0.3c-0.1,0.1-0.2,0.1-0.3,0.1c-0.1,0-0.2,0-0.3-0.1
		c-0.1-0.1-0.1-0.2-0.1-0.3L222.2,6.1z"/>
	<path class="st2" d="M225.5,5.7c0-0.1,0-0.2,0.1-0.3c0.1-0.1,0.2-0.1,0.3-0.1c0.1,0,0.2,0,0.3,0.1c0.1,0.1,0.1,0.2,0.1,0.3v1.6h2.3
		V5.7c0-0.1,0-0.2,0.1-0.3c0.2-0.2,0.4-0.2,0.6,0c0,0,0,0,0,0c0.1,0.1,0.1,0.2,0.1,0.3v4.1c0,0.1,0,0.2-0.1,0.3
		c-0.2,0.2-0.4,0.2-0.6,0c-0.1-0.1-0.1-0.2-0.1-0.3V8.2h-2.3v1.7c0,0.2-0.2,0.4-0.4,0.4c0,0,0,0,0,0c-0.1,0-0.2,0-0.3-0.1
		c-0.1-0.1-0.1-0.2-0.1-0.3L225.5,5.7z"/>
	<path class="st2" d="M232.8,10.3c-0.3,0-0.6,0-0.9-0.1c-0.2-0.1-0.5-0.2-0.7-0.4c-0.2-0.2-0.3-0.4-0.4-0.7
		c-0.1-0.3-0.2-0.6-0.1-0.9V5.7c0-0.1,0-0.2,0.1-0.3c0.1-0.1,0.2-0.1,0.3-0.1c0.1,0,0.2,0,0.3,0.1c0.1,0.1,0.1,0.2,0.1,0.3v2.4
		c0,0.4,0.1,0.7,0.3,1c0.5,0.5,1.3,0.5,1.8,0c0.2-0.3,0.4-0.6,0.3-1V5.7c0-0.1,0-0.2,0.1-0.3c0.2-0.2,0.4-0.2,0.6,0c0,0,0,0,0,0
		c0.1,0.1,0.1,0.2,0.1,0.3v2.4c0,0.3,0,0.7-0.1,1c-0.1,0.3-0.2,0.5-0.4,0.7c-0.2,0.2-0.4,0.3-0.7,0.4
		C233.4,10.3,233.1,10.3,232.8,10.3z M233.7,3.6c0.1,0.1,0.2,0.3,0.2,0.4c0,0.2-0.2,0.4-0.5,0.5h-0.1v0.2c0,0,0,0.1,0,0.1h-0.1h-0.2
		c0,0-0.1,0-0.1-0.1l0,0c0,0,0,0,0,0V4.5c0,0,0,0,0-0.1v0c0-0.1,0-0.1,0.1-0.2h0l0,0l0,0l0,0h0.1l0.2-0.1l0,0v0l0,0l0,0
		c0,0-0.1,0-0.1-0.1c0,0-0.1,0-0.1,0h-0.1l0,0h0l0,0l0,0h0l0,0c0,0-0.1,0-0.1,0c0,0-0.1,0-0.1-0.1c-0.1-0.1-0.1-0.2,0-0.3
		c0,0,0,0,0,0c0.1-0.1,0.2-0.1,0.3-0.2c0.1,0,0.2,0,0.3,0C233.5,3.5,233.6,3.5,233.7,3.6L233.7,3.6z"/>
	<path class="st2" d="M237.5,8.3L235.8,6c0,0-0.1-0.1-0.1-0.1c-0.1-0.2,0-0.3,0.1-0.5c0.1-0.1,0.2-0.1,0.3-0.1c0.1,0,0.2,0,0.2,0.1
		c0.1,0.1,0.1,0.1,0.2,0.2l1.4,2l1.4-2c0-0.1,0.1-0.1,0.2-0.2c0.1,0,0.2-0.1,0.2-0.1c0.1,0,0.2,0,0.3,0.1c0.1,0.1,0.1,0.2,0.1,0.3
		c0,0.1,0,0.1,0,0.2c0,0-0.1,0.1-0.1,0.1l-1.7,2.3v1.5c0,0.1,0,0.2-0.1,0.3c-0.1,0.1-0.2,0.1-0.3,0.1c-0.1,0-0.2,0-0.3-0.1
		c-0.1-0.1-0.1-0.2-0.1-0.3V8.3z"/>
	<path class="st2" d="M244.3,6.1h-1.2c-0.1,0-0.2,0-0.3-0.1c-0.1-0.2-0.1-0.4,0-0.6c0.1-0.1,0.2-0.1,0.3-0.1h3.2
		c0.1,0,0.2,0,0.3,0.1c0.1,0.2,0.1,0.4,0,0.6c-0.1,0.1-0.2,0.1-0.3,0.1h-1.2v3.7c0,0.1,0,0.2-0.1,0.3c-0.2,0.2-0.4,0.2-0.6,0
		c-0.1-0.1-0.1-0.2-0.1-0.3L244.3,6.1z"/>
	<path class="st2" d="M247.7,5.7c0-0.1,0-0.2,0.1-0.3c0.2-0.2,0.4-0.2,0.6,0c0,0,0,0,0,0c0.1,0.1,0.1,0.2,0.1,0.3v4.1
		c0,0.1,0,0.2-0.1,0.3c-0.2,0.2-0.4,0.2-0.6,0c-0.1-0.1-0.1-0.2-0.1-0.3V5.7z"/>
	<path class="st2" d="M249.8,5.7c0-0.2,0.2-0.4,0.4-0.4c0,0,0,0,0,0h0.1c0.1,0,0.2,0,0.3,0.1c0.1,0.1,0.1,0.1,0.2,0.2l2.5,3.2v-3
		c0-0.1,0-0.2,0.1-0.3c0.2-0.2,0.4-0.2,0.6,0c0,0,0,0,0,0c0.1,0.1,0.1,0.2,0.1,0.3v4.1c0,0.1,0,0.2-0.1,0.3
		c-0.1,0.1-0.2,0.1-0.3,0.1l0,0c-0.1,0-0.2,0-0.2-0.1c-0.1-0.1-0.1-0.1-0.2-0.2l-2.5-3.3v3.1c0,0.2-0.2,0.4-0.4,0.4
		c-0.2,0-0.4-0.2-0.4-0.4c0,0,0,0,0,0L249.8,5.7z"/>
	<path class="st2" d="M255.4,5.7c0-0.1,0-0.2,0.1-0.3c0.2-0.2,0.4-0.2,0.6,0c0,0,0,0,0,0c0.1,0.1,0.1,0.2,0.1,0.3v1.6h2.3V5.7
		c0-0.1,0-0.2,0.1-0.3c0.1-0.1,0.2-0.1,0.3-0.1c0.1,0,0.2,0,0.3,0.1c0.1,0.1,0.1,0.2,0.1,0.3v4.1c0,0.1,0,0.2-0.1,0.3
		c-0.1,0.1-0.2,0.1-0.3,0.1c-0.2,0-0.4-0.2-0.4-0.4c0,0,0,0,0,0V8.2h-2.3v1.7c0,0.1,0,0.2-0.1,0.3c-0.2,0.2-0.4,0.2-0.6,0
		c-0.1-0.1-0.1-0.2-0.1-0.3L255.4,5.7z"/>
	<path class="st2" d="M201.2,19.6h-0.1H201c-0.5-0.3-1-0.7-1.3-1.2c-0.6-1-0.6-2.3,0-3.3c0.3-0.5,0.8-0.9,1.3-1.2h0.1h0.1
		c0.1,0,0.2,0,0.2,0.1c0.1,0.1,0.1,0.1,0.1,0.2c0,0.1-0.1,0.2-0.1,0.3c-0.4,0.3-0.7,0.6-1,1c-0.4,0.8-0.4,1.8,0,2.6
		c0.3,0.4,0.6,0.7,1,1c0.1,0.1,0.2,0.3,0,0.5c0,0,0,0,0,0C201.3,19.5,201.3,19.6,201.2,19.6z"/>
	<path class="st2" d="M204.6,18.7c-0.7,0-1.3-0.2-1.8-0.7c-0.2-0.2-0.4-0.5-0.5-0.8c-0.1-0.3-0.2-0.7-0.2-1l0,0c0-0.3,0.1-0.7,0.2-1
		c0.4-1,1.3-1.6,2.3-1.6c0.3,0,0.7,0,1,0.2c0.3,0.1,0.5,0.2,0.7,0.4c0.1,0,0.1,0.1,0.1,0.1c0,0.1,0,0.1,0,0.2c0,0.1,0,0.2-0.1,0.3
		c-0.1,0.1-0.2,0.1-0.3,0.1h-0.1l-0.1-0.1c-0.2-0.1-0.3-0.2-0.5-0.3c-0.2-0.1-0.4-0.1-0.6-0.1c-0.2,0-0.4,0-0.6,0.1
		c-0.2,0.1-0.4,0.2-0.5,0.4c-0.1,0.2-0.3,0.3-0.3,0.6c-0.1,0.2-0.1,0.4-0.1,0.7l0,0c0,0.2,0,0.5,0.1,0.7c0.1,0.2,0.2,0.4,0.3,0.6
		c0.1,0.2,0.3,0.3,0.5,0.4c0.2,0.1,0.4,0.1,0.6,0.1c0.2,0,0.5,0,0.7-0.1c0.2-0.1,0.4-0.2,0.6-0.3c0,0,0.1-0.1,0.1-0.1
		c0,0,0.1,0,0.1,0c0.2,0,0.4,0.2,0.4,0.4c0,0.1,0,0.1,0,0.2c0,0.1-0.1,0.1-0.1,0.1c-0.2,0.2-0.5,0.4-0.8,0.5
		C205.3,18.7,204.9,18.7,204.6,18.7z"/>
	<path class="st2" d="M207.5,14.1c0-0.1,0-0.2,0.1-0.3c0.1-0.1,0.2-0.1,0.3-0.1h1.8c0.3,0,0.6,0,0.8,0.1c0.2,0.1,0.4,0.2,0.6,0.4
		c0.1,0.1,0.2,0.3,0.3,0.5c0.1,0.2,0.1,0.4,0.1,0.6l0,0c0,0.2,0,0.4-0.1,0.5c0,0.2-0.1,0.3-0.2,0.4c-0.1,0.1-0.2,0.2-0.4,0.3
		c-0.1,0.1-0.3,0.1-0.4,0.2l0.9,1.2c0,0,0.1,0.1,0.1,0.2c0,0.1,0,0.1,0,0.2c0,0.1,0,0.2-0.1,0.3c-0.1,0.1-0.2,0.1-0.3,0.1
		c-0.1,0-0.2,0-0.2-0.1c-0.1,0-0.1-0.1-0.2-0.2l-1.2-1.5h-1.1v1.3c0,0.1,0,0.2-0.1,0.3c-0.2,0.2-0.4,0.2-0.6,0
		c-0.1-0.1-0.1-0.2-0.1-0.3L207.5,14.1z M209.6,16.1c0.3,0,0.5-0.1,0.7-0.2c0.2-0.1,0.3-0.4,0.3-0.6l0,0c0-0.2-0.1-0.5-0.3-0.6
		c-0.2-0.2-0.5-0.2-0.8-0.2h-1.2v1.6L209.6,16.1z"/>
	<path class="st2" d="M213.8,16.7l-1.7-2.3l-0.1-0.1c0-0.1,0-0.1,0-0.2c0-0.1,0-0.2,0.1-0.3c0.1-0.1,0.2-0.1,0.3-0.1
		c0.1,0,0.2,0,0.2,0.1c0.1,0.1,0.1,0.1,0.2,0.2l1.4,2l1.4-2c0-0.1,0.1-0.1,0.2-0.2c0.1,0,0.1-0.1,0.2-0.1c0.1,0,0.2,0,0.3,0.1
		c0.1,0.1,0.1,0.2,0.1,0.3c0,0.1,0,0.1,0,0.2c0,0,0,0.1-0.1,0.1l-1.7,2.3v1.5c0,0.1,0,0.2-0.1,0.3c-0.2,0.2-0.4,0.2-0.6,0
		c-0.1-0.1-0.1-0.2-0.1-0.3L213.8,16.7z"/>
	<path class="st2" d="M218.8,18.7c-0.7,0-1.3-0.2-1.8-0.6c0,0-0.1-0.1-0.1-0.1c0-0.1,0-0.1,0-0.2c0-0.1,0-0.2,0.1-0.3
		c0.1-0.1,0.2-0.1,0.3-0.1h0.1c0,0,0.1,0,0.1,0.1c0.2,0.2,0.4,0.3,0.6,0.4c0.2,0.1,0.5,0.1,0.7,0.1c0.2,0,0.4-0.1,0.6-0.2
		c0.1-0.1,0.2-0.3,0.2-0.4l0,0c0-0.1,0-0.2,0-0.2c0-0.1-0.1-0.1-0.2-0.2c-0.1-0.1-0.2-0.1-0.3-0.2c-0.2-0.1-0.4-0.1-0.5-0.2
		c-0.2-0.1-0.5-0.1-0.7-0.2c-0.2-0.1-0.4-0.2-0.5-0.3c-0.1-0.1-0.2-0.2-0.3-0.4c-0.1-0.2-0.1-0.4-0.1-0.6l0,0c0-0.2,0-0.4,0.1-0.6
		c0.1-0.2,0.2-0.3,0.4-0.4c0.2-0.1,0.3-0.2,0.5-0.3c0.2-0.1,0.4-0.1,0.7-0.1c0.3,0,0.6,0,0.8,0.1c0.3,0.1,0.5,0.2,0.7,0.3
		c0.1,0,0.1,0.1,0.1,0.1c0,0.1,0.1,0.1,0,0.2c0,0.1,0,0.2-0.1,0.3c-0.1,0.1-0.2,0.1-0.3,0.1c-0.1,0-0.2,0-0.2-0.1
		c-0.2-0.1-0.4-0.2-0.6-0.3c-0.2-0.1-0.4-0.1-0.6-0.1c-0.2,0-0.4,0-0.6,0.2c-0.1,0.1-0.2,0.2-0.2,0.4l0,0c0,0.1,0,0.2,0,0.2
		c0,0.1,0.1,0.2,0.2,0.2c0.1,0.1,0.2,0.1,0.4,0.2c0.2,0.1,0.4,0.1,0.6,0.2c0.2,0.1,0.5,0.1,0.7,0.2c0.2,0.1,0.3,0.2,0.5,0.3
		c0.1,0.1,0.2,0.2,0.3,0.4c0.1,0.2,0.1,0.3,0.1,0.5l0,0c0,0.2,0,0.4-0.1,0.6c-0.1,0.2-0.2,0.4-0.4,0.5c-0.2,0.1-0.3,0.2-0.5,0.3
		C219.3,18.7,219.1,18.7,218.8,18.7z"/>
	<path class="st2" d="M222.7,14.5h-1.2c-0.1,0-0.2,0-0.3-0.1c-0.1-0.2-0.1-0.4,0-0.6c0.1-0.1,0.2-0.1,0.3-0.1h3.2
		c0.2,0,0.4,0.2,0.4,0.4s-0.2,0.4-0.4,0.4h-1.2v3.7c0,0.1,0,0.2-0.1,0.3c-0.1,0.1-0.2,0.1-0.3,0.1c-0.1,0-0.2,0-0.3-0.1
		c-0.1-0.1-0.1-0.2-0.1-0.3V14.5z"/>
	<path class="st2" d="M225.1,18.3c0-0.1,0-0.1,0.1-0.2L227,14c0-0.1,0.1-0.2,0.2-0.3c0.1-0.1,0.2-0.1,0.3-0.1l0,0
		c0.1,0,0.2,0,0.3,0.1c0.1,0.1,0.2,0.2,0.2,0.3l1.8,4.1c0,0.1,0,0.1,0,0.2c0,0.2-0.1,0.4-0.3,0.4c0,0,0,0-0.1,0
		c-0.1,0-0.2,0-0.2-0.1c-0.1-0.1-0.1-0.1-0.1-0.2l-0.4-0.9h-2.4l-0.4,0.9c-0.1,0.2-0.2,0.3-0.4,0.3c-0.1,0-0.2,0-0.3-0.1
		C225.1,18.5,225.1,18.4,225.1,18.3z M228.3,16.7l-0.9-2l-0.9,2H228.3z"/>
	<path class="st2" d="M230.9,14.1c0-0.1,0-0.2,0.1-0.3c0.1-0.1,0.2-0.1,0.3-0.1c0.2,0,0.4,0.2,0.4,0.4c0,0,0,0,0,0v3.7h2.2
		c0.2,0,0.4,0.2,0.4,0.4c0,0,0,0,0,0c0,0.1,0,0.2-0.1,0.3c-0.1,0.1-0.2,0.1-0.3,0.1h-2.6c-0.1,0-0.2,0-0.3-0.1
		c-0.1-0.1-0.1-0.2-0.1-0.3L230.9,14.1z"/>
	<path class="st2" d="M234.6,19.2C234.6,19.2,234.6,19.2,234.6,19.2v-0.2l2.9-5.9c0.1-0.2,0.3-0.2,0.5-0.2c0,0,0.1,0,0.1,0.1
		c0.1,0.1,0.1,0.1,0.1,0.2c0,0,0,0.1,0,0.1v0.1l-2.9,5.8c0,0.1-0.2,0.2-0.3,0.2c-0.1,0-0.2,0-0.2-0.1
		C234.6,19.4,234.6,19.3,234.6,19.2z"/>
	<path class="st2" d="M240.4,18.7c-0.7,0-1.3-0.2-1.8-0.6c-0.1,0-0.1-0.1-0.1-0.1c0-0.1,0-0.1,0-0.2c0-0.1,0-0.2,0.1-0.3
		c0.1-0.1,0.2-0.1,0.3-0.1h0.1c0,0,0.1,0,0.1,0.1c0.2,0.2,0.4,0.3,0.6,0.4c0.2,0.1,0.5,0.1,0.7,0.1c0.2,0,0.4-0.1,0.6-0.2
		c0.2-0.1,0.2-0.3,0.2-0.4l0,0c0-0.1,0-0.2,0-0.2c0-0.1-0.1-0.1-0.2-0.2c-0.1-0.1-0.2-0.1-0.3-0.2c-0.2-0.1-0.4-0.1-0.6-0.2
		c-0.3-0.1-0.5-0.1-0.7-0.2c-0.2-0.1-0.4-0.2-0.5-0.3c-0.1-0.1-0.2-0.2-0.3-0.4c-0.1-0.2-0.1-0.4-0.1-0.6l0,0c0-0.2,0-0.4,0.1-0.6
		c0.1-0.2,0.2-0.3,0.4-0.4c0.2-0.1,0.3-0.2,0.5-0.3c0.2-0.1,0.4-0.1,0.7-0.1c0.3,0,0.6,0,0.8,0.1c0.3,0.1,0.5,0.2,0.7,0.3
		c0.1,0,0.1,0.1,0.1,0.1c0,0.1,0,0.1,0,0.2c0,0.1,0,0.2-0.1,0.3c-0.1,0.1-0.2,0.1-0.3,0.1c-0.1,0-0.2,0-0.2-0.1
		c-0.2-0.1-0.4-0.2-0.6-0.3c-0.2-0.1-0.4-0.1-0.6-0.1c-0.2,0-0.4,0-0.6,0.2c-0.1,0.1-0.2,0.2-0.2,0.4l0,0c0,0.1,0,0.2,0,0.2
		c0,0.1,0.1,0.2,0.2,0.2c0.1,0.1,0.2,0.1,0.4,0.2c0.2,0.1,0.4,0.1,0.6,0.2c0.2,0.1,0.5,0.1,0.7,0.2c0.2,0.1,0.3,0.2,0.5,0.3
		c0.1,0.1,0.2,0.2,0.3,0.4c0.1,0.2,0.1,0.3,0.1,0.5l0,0c0,0.2,0,0.4-0.1,0.6c-0.1,0.2-0.2,0.3-0.4,0.5c-0.2,0.1-0.4,0.2-0.6,0.3
		C240.8,18.6,240.6,18.7,240.4,18.7z"/>
	<path class="st2" d="M243.2,14.1c0-0.1,0-0.2,0.1-0.3c0.1-0.1,0.2-0.1,0.3-0.1c0.1,0,0.2,0,0.3,0.1c0.1,0.1,0.1,0.2,0.1,0.3v4.1
		c0,0.1,0,0.2-0.1,0.3c-0.1,0.1-0.2,0.1-0.3,0.1c-0.1,0-0.2,0-0.3-0.1c-0.1-0.1-0.1-0.2-0.1-0.3V14.1z"/>
	<path class="st2" d="M245.3,14.1c0-0.1,0-0.2,0.1-0.3c0.1-0.1,0.2-0.1,0.3-0.1c0.1,0,0.2,0,0.3,0.1c0.1,0.1,0.1,0.2,0.1,0.3v3.7
		h2.2c0.1,0,0.2,0,0.3,0.1c0.1,0.1,0.1,0.2,0.1,0.3c0,0.1,0,0.2-0.1,0.3c-0.1,0.1-0.2,0.1-0.3,0.1h-2.6c-0.2,0-0.4-0.2-0.4-0.4V14.1
		z"/>
	<path class="st2" d="M249.7,14.1c0-0.1,0-0.2,0.1-0.3c0.1-0.1,0.2-0.1,0.3-0.1c0.2,0,0.4,0.2,0.4,0.4c0,0,0,0,0,0v4.1
		c0,0.2-0.2,0.4-0.4,0.4c0,0,0,0,0,0c-0.1,0-0.2,0-0.3-0.1c-0.1-0.1-0.1-0.2-0.1-0.3V14.1z"/>
	<path class="st2" d="M254.2,18.7c-0.3,0-0.7-0.1-1-0.2c-0.3-0.1-0.6-0.3-0.8-0.5c-0.2-0.2-0.4-0.5-0.5-0.8c-0.1-0.3-0.2-0.7-0.2-1
		l0,0c0-0.3,0.1-0.7,0.2-1c0.4-1,1.3-1.6,2.3-1.6c0.3,0,0.7,0,1,0.2c0.3,0.1,0.5,0.2,0.7,0.4c0.1,0,0.1,0.1,0.1,0.1
		c0,0.1,0.1,0.1,0,0.2c0,0.1,0,0.2-0.1,0.3c-0.1,0.1-0.2,0.1-0.3,0.1h-0.1l-0.1-0.1c-0.2-0.1-0.3-0.2-0.5-0.3
		c-0.2-0.1-0.4-0.1-0.6-0.1c-0.2,0-0.4,0-0.6,0.1c-0.2,0.1-0.4,0.2-0.5,0.4c-0.1,0.2-0.3,0.3-0.3,0.6c-0.1,0.2-0.1,0.4-0.1,0.7l0,0
		c0,0.2,0,0.5,0.1,0.7c0.1,0.2,0.2,0.4,0.3,0.6c0.1,0.2,0.3,0.3,0.5,0.4c0.2,0.1,0.4,0.1,0.6,0.1c0.2,0,0.5,0,0.7-0.1
		c0.2-0.1,0.4-0.2,0.5-0.3c0,0,0.1-0.1,0.1-0.1c0,0,0.1,0,0.1,0c0.1,0,0.2,0,0.3,0.1c0.1,0.1,0.1,0.2,0.1,0.3c0,0.1,0,0.1,0,0.2
		c0,0.1-0.1,0.1-0.1,0.1c-0.2,0.2-0.5,0.4-0.8,0.5C254.9,18.7,254.5,18.7,254.2,18.7z"/>
	<path class="st2" d="M256.7,18.3c0-0.1,0-0.1,0.1-0.2l1.8-4.1c0-0.1,0.1-0.2,0.2-0.3c0.1-0.1,0.2-0.1,0.3-0.1l0,0
		c0.1,0,0.2,0,0.3,0.1c0.1,0.1,0.2,0.2,0.2,0.3l1.8,4.1c0.1,0.2,0.1,0.4-0.1,0.5c-0.1,0.1-0.2,0.1-0.3,0.1c-0.1,0-0.2,0-0.3-0.1
		c-0.1-0.1-0.1-0.1-0.2-0.2l-0.4-0.9h-2.4l-0.4,0.9c-0.1,0.2-0.2,0.3-0.4,0.3c-0.1,0-0.2,0-0.3-0.1
		C256.7,18.5,256.7,18.4,256.7,18.3z M260,16.7l-0.9-2l-0.9,2H260z"/>
	<path class="st2" d="M262.5,19.6c-0.1,0-0.2,0-0.2-0.1c-0.1-0.1-0.1-0.2-0.1-0.2c0-0.1,0-0.1,0-0.2c0,0,0.1-0.1,0.1-0.1
		c0.4-0.3,0.7-0.6,1-1c0.4-0.8,0.4-1.8,0-2.6c-0.3-0.4-0.6-0.7-1-1l-0.1-0.1c0-0.1,0-0.1,0-0.2c0-0.1,0-0.2,0.1-0.2
		c0.1-0.1,0.1-0.1,0.2-0.1h0.1h0.1c0.5,0.3,1,0.7,1.4,1.2c0.6,1,0.6,2.3,0,3.3c-0.3,0.5-0.8,0.9-1.3,1.2h-0.1L262.5,19.6z"/>
	<path class="st2" d="M277.6,5.7c0-0.1,0-0.2,0.1-0.3c0.1-0.1,0.2-0.1,0.3-0.1c0.1,0,0.2,0,0.3,0.1c0.1,0.1,0.1,0.2,0.1,0.3v3.7h2.2
		c0.1,0,0.2,0,0.3,0.1c0.1,0.1,0.1,0.2,0.1,0.3c0,0.1,0,0.2-0.1,0.3c-0.1,0.1-0.2,0.1-0.3,0.1h-2.6c-0.1,0-0.2,0-0.3-0.1
		c-0.1-0.1-0.1-0.2-0.1-0.3L277.6,5.7z"/>
	<path class="st2" d="M283.8,10.3c-0.3,0-0.6,0-0.9-0.1c-0.2-0.1-0.5-0.2-0.7-0.4c-0.2-0.2-0.3-0.4-0.4-0.7
		c-0.1-0.3-0.2-0.6-0.1-0.9V5.7c0-0.1,0-0.2,0.1-0.3c0.1-0.1,0.2-0.1,0.3-0.1c0.1,0,0.2,0,0.3,0.1c0.1,0.1,0.1,0.2,0.1,0.3v2.4
		c0,0.4,0.1,0.7,0.3,1c0.5,0.5,1.3,0.5,1.8,0c0.2-0.3,0.4-0.6,0.3-1V5.7c0-0.1,0-0.2,0.1-0.3c0.2-0.2,0.4-0.2,0.6,0c0,0,0,0,0,0
		c0.1,0.1,0.1,0.2,0.1,0.3v2.4c0,0.3,0,0.7-0.1,1c-0.1,0.3-0.2,0.5-0.4,0.7c-0.2,0.2-0.4,0.3-0.7,0.4
		C284.4,10.3,284.1,10.3,283.8,10.3z"/>
	<path class="st2" d="M286.8,9.9c0-0.1,0-0.1,0-0.2l0.1-0.2l1.5-1.8L287.1,6c0,0-0.1-0.1-0.1-0.2c0-0.1,0-0.1,0-0.2
		c0-0.2,0.2-0.4,0.4-0.4c0,0,0,0,0,0c0.1,0,0.2,0,0.2,0.1c0.1,0,0.1,0.1,0.2,0.2l1.2,1.6l1.2-1.6c0-0.1,0.1-0.1,0.2-0.2
		c0.1,0,0.2-0.1,0.2-0.1c0.1,0,0.2,0,0.3,0.1c0.1,0.1,0.1,0.2,0.1,0.3c0,0.1,0,0.1,0,0.2L291,6l-1.4,1.7l1.4,1.8
		c0,0,0.1,0.1,0.1,0.2c0,0.1,0,0.1,0,0.2c0,0.1,0,0.2-0.1,0.3c-0.1,0.1-0.2,0.1-0.3,0.1c-0.1,0-0.1,0-0.2,0c-0.1,0-0.1-0.1-0.2-0.2
		l-1.4-1.7l-1.3,1.7c-0.1,0.1-0.1,0.1-0.2,0.2c-0.1,0-0.1,0.1-0.2,0.1C287,10.3,286.8,10.1,286.8,9.9C286.8,9.9,286.8,9.9,286.8,9.9
		L286.8,9.9z"/>
	<path class="st2" d="M294.1,10.3c-0.3,0-0.7-0.1-1-0.2c-0.3-0.1-0.6-0.3-0.8-0.5c-0.2-0.2-0.4-0.5-0.5-0.8c-0.1-0.3-0.2-0.7-0.2-1
		l0,0c0-0.3,0.1-0.7,0.2-1c0.1-0.3,0.3-0.6,0.5-0.8c0.2-0.2,0.5-0.4,0.8-0.5c0.3-0.1,0.7-0.2,1-0.2c0.3,0,0.7,0,1,0.2
		c0.3,0.1,0.5,0.2,0.7,0.4c0,0,0.1,0.1,0.1,0.1c0,0.1,0.1,0.1,0,0.2c0,0.1,0,0.2-0.1,0.3c-0.1,0.1-0.2,0.1-0.3,0.1h-0.2l-0.1-0.1
		c-0.2-0.1-0.3-0.2-0.5-0.3c-0.2-0.1-0.4-0.1-0.6-0.1c-0.2,0-0.4,0-0.6,0.1c-0.2,0.1-0.4,0.2-0.5,0.4c-0.1,0.2-0.3,0.3-0.3,0.5
		c-0.1,0.2-0.1,0.4-0.1,0.7l0,0c0,0.2,0,0.5,0.1,0.7c0.2,0.6,0.8,1.1,1.5,1.1c0.2,0,0.5,0,0.7-0.1c0.2-0.1,0.4-0.2,0.5-0.3
		c0,0,0.1-0.1,0.1-0.1c0,0,0.1,0,0.1,0c0.1,0,0.2,0,0.3,0.1c0.1,0.1,0.1,0.1,0.1,0.2c0,0.1,0,0.1,0,0.2c0,0-0.1,0.1-0.1,0.1
		C295.5,10.1,294.8,10.3,294.1,10.3L294.1,10.3z"/>
	<path class="st2" d="M296.7,9.9c0-0.1,0-0.1,0-0.2l1.8-4.1c0-0.1,0.1-0.2,0.2-0.3c0.1-0.1,0.2-0.1,0.3-0.1l0,0c0.1,0,0.2,0,0.3,0.1
		c0.1,0.1,0.2,0.2,0.2,0.3l1.8,4.1c0,0.1,0.1,0.1,0,0.2c0,0.1,0,0.2-0.1,0.3c-0.1,0.1-0.2,0.1-0.3,0.1c-0.1,0-0.2,0-0.3-0.1
		c-0.1-0.1-0.1-0.1-0.2-0.2L300.2,9h-2.4l-0.4,0.9c-0.1,0.2-0.2,0.3-0.4,0.3c-0.1,0-0.2,0-0.3-0.1C296.7,10.1,296.7,10,296.7,9.9z
		 M299.9,8.3l-0.9-1.9l-0.9,2L299.9,8.3z"/>
	<path class="st2" d="M303.1,6.1h-1.2c-0.1,0-0.2,0-0.3-0.1c-0.2-0.1-0.2-0.4,0-0.6c0,0,0,0,0,0c0.1-0.1,0.2-0.1,0.3-0.1h3.2
		c0.2,0,0.4,0.2,0.4,0.4c0,0.2-0.2,0.4-0.4,0.4h-1.2v3.7c0,0.1,0,0.2-0.1,0.3c-0.1,0.1-0.2,0.1-0.3,0.1c-0.1,0-0.2,0-0.3-0.1
		c-0.1-0.1-0.1-0.2-0.1-0.3V6.1z"/>
	<path class="st2" d="M310.8,10.3c-0.7,0-1.3-0.2-1.8-0.7c-0.2-0.2-0.4-0.5-0.5-0.8c-0.1-0.3-0.2-0.7-0.2-1l0,0c0-0.3,0.1-0.7,0.2-1
		c0.4-0.9,1.3-1.6,2.3-1.6c0.3,0,0.7,0,1,0.2c0.3,0.1,0.5,0.2,0.7,0.4c0.1,0,0.1,0.1,0.1,0.1c0,0.1,0,0.1,0,0.2c0,0.1,0,0.2-0.1,0.3
		c-0.1,0.1-0.2,0.1-0.3,0.1h-0.1L312,6.5c-0.2-0.1-0.3-0.2-0.5-0.3c-0.2-0.1-0.4-0.1-0.6-0.1c-0.2,0-0.4,0-0.6,0.1
		c-0.2,0.1-0.4,0.2-0.5,0.4c-0.1,0.2-0.3,0.3-0.3,0.5c-0.1,0.2-0.1,0.4-0.1,0.7l0,0c0,0.2,0,0.5,0.1,0.7c0.1,0.2,0.2,0.4,0.3,0.6
		c0.1,0.2,0.3,0.3,0.5,0.4c0.2,0.1,0.4,0.1,0.6,0.1c0.2,0,0.5,0,0.7-0.1c0.2-0.1,0.4-0.2,0.5-0.3c0,0,0.1-0.1,0.1-0.1
		c0,0,0.1,0,0.1,0c0.2,0,0.4,0.2,0.4,0.4c0,0.1,0,0.1,0,0.2c0,0-0.1,0.1-0.1,0.1c-0.2,0.2-0.5,0.4-0.8,0.5
		C311.5,10.3,311.1,10.4,310.8,10.3z"/>
	<path class="st2" d="M313.7,5.7c0-0.1,0-0.2,0.1-0.3c0.2-0.2,0.4-0.2,0.6,0c0,0,0,0,0,0c0.1,0.1,0.1,0.2,0.1,0.3v3.7h2.2
		c0.1,0,0.2,0,0.3,0.1c0.1,0.1,0.1,0.2,0.1,0.3c0,0.1,0,0.2-0.1,0.3c-0.1,0.1-0.2,0.1-0.3,0.1h-2.7c-0.1,0-0.2,0-0.3-0.1
		c-0.1-0.1-0.1-0.2-0.1-0.3L313.7,5.7z"/>
	<path class="st2" d="M317.7,9.9c0-0.1,0-0.1,0.1-0.2l1.8-4.1c0-0.1,0.1-0.2,0.2-0.3c0.1-0.1,0.2-0.1,0.3-0.1l0,0
		c0.1,0,0.2,0,0.3,0.1c0.1,0.1,0.2,0.2,0.2,0.3l1.8,4.1c0.1,0.2,0.1,0.4-0.1,0.5c-0.1,0.1-0.2,0.1-0.3,0.1c-0.1,0-0.2,0-0.2-0.1
		c-0.1-0.1-0.1-0.1-0.2-0.2L321.2,9h-2.4l-0.4,0.9c-0.1,0.2-0.2,0.3-0.4,0.3c-0.1,0-0.2,0-0.3-0.1C317.7,10.1,317.6,10,317.7,9.9z
		 M320.9,8.3l-0.9-1.9l-0.9,2L320.9,8.3z"/>
	<path class="st2" d="M325.1,10.3c-0.7,0-1.3-0.2-1.8-0.6c-0.1,0-0.1-0.1-0.1-0.1c0-0.1,0-0.1,0-0.2c0-0.1,0-0.2,0.1-0.3
		c0.1-0.1,0.2-0.1,0.3-0.1c0,0,0.1,0,0.1,0c0,0,0.1,0,0.1,0.1c0.2,0.2,0.4,0.3,0.6,0.4c0.2,0.1,0.5,0.1,0.7,0.1
		c0.2,0,0.4-0.1,0.6-0.2c0.2-0.1,0.2-0.3,0.2-0.5l0,0c0-0.2-0.1-0.3-0.2-0.4c-0.1-0.1-0.2-0.1-0.3-0.2c-0.2-0.1-0.4-0.1-0.6-0.2
		c-0.3-0.1-0.5-0.1-0.7-0.2c-0.2-0.1-0.4-0.2-0.5-0.3c-0.1-0.1-0.2-0.2-0.3-0.4c-0.1-0.2-0.1-0.4-0.1-0.6l0,0c0-0.2,0-0.4,0.1-0.6
		c0.1-0.2,0.2-0.3,0.4-0.5c0.2-0.1,0.3-0.2,0.5-0.3c0.2-0.1,0.4-0.1,0.7-0.1c0.3,0,0.6,0,0.8,0.1c0.3,0.1,0.5,0.2,0.7,0.3
		c0.1,0,0.1,0.1,0.1,0.1c0,0.1,0.1,0.1,0,0.2c0,0.1,0,0.2-0.1,0.3c-0.1,0.1-0.2,0.1-0.3,0.1c-0.1,0-0.2,0-0.2-0.1
		c-0.2-0.1-0.4-0.2-0.6-0.3c-0.2-0.1-0.4-0.1-0.6-0.1c-0.2,0-0.4,0-0.6,0.2c-0.1,0.1-0.2,0.2-0.2,0.4l0,0c0,0.1,0,0.2,0,0.2
		c0,0.1,0.1,0.2,0.2,0.2c0.1,0.1,0.2,0.1,0.4,0.2c0.2,0.1,0.4,0.1,0.6,0.2c0.2,0.1,0.5,0.1,0.7,0.2c0.2,0.1,0.3,0.2,0.5,0.3
		c0.1,0.1,0.2,0.2,0.3,0.4c0.1,0.2,0.1,0.3,0.1,0.5l0,0c0,0.2,0,0.4-0.1,0.6c-0.1,0.2-0.2,0.3-0.4,0.5c-0.2,0.1-0.4,0.2-0.6,0.3
		C325.6,10.3,325.4,10.3,325.1,10.3z"/>
	<path class="st2" d="M329.6,10.3c-0.7,0-1.3-0.2-1.8-0.6c-0.1,0-0.1-0.1-0.1-0.1c0-0.1,0-0.1,0-0.2c0-0.1,0-0.2,0.1-0.3
		C327.8,9,327.9,9,328,9c0,0,0.1,0,0.1,0c0,0,0.1,0,0.1,0.1c0.2,0.2,0.4,0.3,0.6,0.4c0.2,0.1,0.5,0.1,0.7,0.1c0.2,0,0.4-0.1,0.6-0.2
		c0.2-0.1,0.2-0.3,0.2-0.5l0,0c0-0.2-0.1-0.3-0.2-0.4c-0.1-0.1-0.2-0.1-0.3-0.2c-0.2-0.1-0.4-0.1-0.6-0.2c-0.3-0.1-0.5-0.1-0.7-0.2
		c-0.2-0.1-0.4-0.2-0.5-0.3c-0.1-0.1-0.2-0.2-0.3-0.4c-0.1-0.2-0.1-0.4-0.1-0.6l0,0c0-0.2,0-0.4,0.1-0.6c0.1-0.2,0.2-0.3,0.4-0.5
		c0.2-0.1,0.3-0.2,0.5-0.3c0.2-0.1,0.4-0.1,0.7-0.1c0.3,0,0.6,0,0.8,0.1c0.3,0.1,0.5,0.2,0.7,0.3c0.1,0,0.1,0.1,0.1,0.1
		c0,0.1,0.1,0.1,0,0.2c0,0.1-0.1,0.2-0.1,0.2c-0.1,0.1-0.2,0.1-0.3,0.1c-0.1,0-0.2,0-0.2-0.1c-0.2-0.1-0.4-0.2-0.6-0.3
		c-0.2-0.1-0.4-0.1-0.6-0.1c-0.2,0-0.4,0-0.6,0.2c-0.1,0.1-0.2,0.2-0.2,0.4l0,0c0,0.1,0,0.2,0,0.2c0,0.1,0.1,0.2,0.2,0.2
		c0.1,0.1,0.2,0.1,0.4,0.2c0.2,0.1,0.4,0.1,0.6,0.2c0.2,0.1,0.5,0.1,0.7,0.2c0.2,0.1,0.3,0.2,0.5,0.3c0.1,0.1,0.2,0.2,0.3,0.4
		c0.1,0.2,0.1,0.3,0.1,0.5l0,0c0,0.2,0,0.4-0.1,0.6c-0.1,0.2-0.2,0.3-0.4,0.5c-0.2,0.1-0.4,0.2-0.6,0.3
		C330.1,10.3,329.9,10.3,329.6,10.3z"/>
	<path class="st2" d="M332.4,5.7c0-0.2,0.2-0.4,0.4-0.4c0.1,0,0.2,0,0.3,0.1c0.1,0.1,0.1,0.2,0.1,0.3v4.1c0,0.1,0,0.2-0.1,0.3
		c-0.1,0.1-0.2,0.1-0.3,0.1c-0.1,0-0.2,0-0.3-0.1c-0.1-0.1-0.1-0.2-0.1-0.3V5.7z"/>
	<path class="st2" d="M336.9,10.3c-0.3,0-0.7-0.1-1-0.2c-0.3-0.1-0.6-0.3-0.8-0.5c-0.2-0.2-0.4-0.5-0.5-0.8c-0.1-0.3-0.2-0.7-0.2-1
		l0,0c0-0.7,0.3-1.3,0.7-1.8c0.2-0.2,0.5-0.4,0.8-0.5c0.3-0.1,0.7-0.2,1-0.2c0.3,0,0.7,0,1,0.2c0.3,0.1,0.5,0.2,0.7,0.4
		c0.1,0,0.1,0.1,0.1,0.1c0,0.1,0.1,0.1,0,0.2c0,0.1,0,0.2-0.1,0.3c-0.1,0.1-0.2,0.1-0.3,0.1h-0.1l-0.1-0.1c-0.2-0.1-0.3-0.2-0.5-0.3
		c-0.2-0.1-0.4-0.1-0.6-0.1c-0.2,0-0.4,0-0.6,0.1c-0.2,0.1-0.4,0.2-0.5,0.4c-0.1,0.2-0.3,0.3-0.3,0.5c-0.1,0.2-0.1,0.4-0.1,0.7l0,0
		c0,0.2,0,0.5,0.1,0.7c0.1,0.2,0.2,0.4,0.3,0.6c0.1,0.2,0.3,0.3,0.5,0.4c0.2,0.1,0.4,0.1,0.6,0.1c0.2,0,0.5,0,0.7-0.1
		c0.2-0.1,0.4-0.2,0.5-0.3c0,0,0.1-0.1,0.1-0.1c0,0,0.1,0,0.1,0c0.1,0,0.2,0,0.3,0.1c0.1,0.1,0.1,0.2,0.1,0.3c0,0.1,0,0.1,0,0.2
		c0,0-0.1,0.1-0.1,0.1c-0.2,0.2-0.5,0.4-0.8,0.5C337.6,10.3,337.2,10.4,336.9,10.3z"/>
	<path class="st2" d="M280.5,19.6h-0.1h-0.1c-0.5-0.3-1-0.7-1.3-1.2c-0.6-1-0.6-2.3,0-3.3c0.3-0.5,0.8-0.9,1.3-1.2h0.1h0.1
		c0.1,0,0.2,0,0.2,0.1c0.1,0.1,0.1,0.2,0.1,0.2c0,0.1-0.1,0.2-0.1,0.3c-0.4,0.3-0.7,0.6-1,1c-0.4,0.8-0.4,1.8,0,2.6
		c0.3,0.4,0.6,0.7,1,1c0.1,0.1,0.1,0.2,0.1,0.3c0,0.1,0,0.2-0.1,0.2C280.6,19.5,280.5,19.6,280.5,19.6z"/>
	<path class="st2" d="M283,14.5h-1.2c-0.1,0-0.2,0-0.3-0.1c-0.1-0.2-0.1-0.4,0-0.6c0.1-0.1,0.2-0.1,0.3-0.1h3.3c0.1,0,0.2,0,0.3,0.1
		c0.1,0.2,0.1,0.4,0,0.6c-0.1,0.1-0.2,0.1-0.3,0.1h-1.2v3.7c0,0.1,0,0.2-0.1,0.3c-0.1,0.1-0.2,0.1-0.3,0.1c-0.1,0-0.2,0-0.3-0.1
		c-0.1-0.1-0.1-0.2-0.1-0.3L283,14.5z"/>
	<path class="st2" d="M288.4,18.7c-0.3,0-0.7-0.1-1-0.2c-0.3-0.1-0.6-0.3-0.8-0.5c-0.2-0.2-0.4-0.5-0.5-0.8c-0.1-0.3-0.2-0.7-0.2-1
		l0,0c0-0.3,0.1-0.7,0.2-1c0.1-0.3,0.3-0.6,0.5-0.8c0.5-0.5,1.2-0.8,1.9-0.8c0.3,0,0.7,0.1,1,0.2c0.3,0.1,0.6,0.3,0.8,0.5
		c0.2,0.2,0.4,0.5,0.5,0.8c0.1,0.3,0.2,0.7,0.2,1l0,0c0,0.3-0.1,0.7-0.2,1c-0.1,0.3-0.3,0.6-0.5,0.8
		C289.7,18.4,289.1,18.7,288.4,18.7z M288.4,17.9c0.2,0,0.5,0,0.7-0.1c0.4-0.2,0.7-0.5,0.9-0.9c0.1-0.2,0.1-0.4,0.1-0.7l0,0
		c0-0.2,0-0.5-0.1-0.7c-0.1-0.2-0.2-0.4-0.3-0.6c-0.3-0.3-0.7-0.5-1.2-0.5c-0.7,0-1.3,0.4-1.5,1c-0.1,0.2-0.1,0.4-0.1,0.7l0,0
		c0,0.2,0,0.5,0.1,0.7c0.2,0.4,0.5,0.7,0.9,0.9C287.9,17.8,288.1,17.9,288.4,17.9L288.4,17.9z"/>
	<path class="st2" d="M292,14.1c0-0.2,0.2-0.4,0.4-0.4h2.9c0.1,0,0.2,0,0.3,0.1c0.1,0.1,0.1,0.2,0.1,0.3c0,0.1,0,0.2-0.1,0.3
		c-0.1,0.1-0.2,0.1-0.3,0.1h-2.4v1.3h2.1c0.1,0,0.2,0,0.3,0.1c0.1,0.1,0.1,0.2,0.1,0.3c0,0.1,0,0.2-0.1,0.3
		c-0.1,0.1-0.2,0.1-0.3,0.1h-2.1v1.6c0,0.1,0,0.2-0.1,0.3c-0.1,0.1-0.2,0.1-0.3,0.1c-0.1,0-0.2,0-0.3-0.1c-0.1-0.1-0.1-0.2-0.1-0.3
		V14.1z"/>
	<path class="st2" d="M298.6,18.7c-0.3,0-0.6,0-0.9-0.1c-0.2-0.1-0.5-0.2-0.7-0.4c-0.2-0.2-0.3-0.4-0.4-0.7
		c-0.1-0.3-0.1-0.6-0.1-0.9v-2.4c0-0.1,0-0.2,0.1-0.3c0.1-0.1,0.2-0.1,0.3-0.1c0.1,0,0.2,0,0.3,0.1c0.1,0.1,0.1,0.2,0.1,0.3v2.4
		c0,0.4,0.1,0.7,0.3,1c0.2,0.2,0.6,0.4,0.9,0.3c0.3,0,0.7-0.1,0.9-0.3c0.2-0.3,0.4-0.6,0.3-1v-2.4c0-0.1,0-0.2,0.1-0.3
		c0.2-0.2,0.4-0.2,0.6,0c0.1,0.1,0.1,0.2,0.1,0.3v2.4c0,0.3,0,0.7-0.1,1c-0.1,0.3-0.2,0.5-0.4,0.7c-0.2,0.2-0.4,0.3-0.7,0.4
		C299.2,18.7,298.9,18.7,298.6,18.7z"/>
	<path class="st2" d="M304,14.1c0-0.2,0.2-0.4,0.4-0.4h1.5c0.3,0,0.5,0,0.8,0.1c0.2,0.1,0.4,0.2,0.6,0.3c0.2,0.1,0.3,0.3,0.4,0.5
		c0.1,0.2,0.1,0.4,0.1,0.7l0,0c0,0.3,0,0.5-0.1,0.7c-0.1,0.2-0.2,0.4-0.4,0.5c-0.2,0.1-0.4,0.3-0.6,0.3c-0.3,0.1-0.5,0.1-0.8,0.1h-1
		v1.2c0,0.1,0,0.2-0.1,0.3c-0.1,0.1-0.2,0.1-0.3,0.1c-0.1,0-0.2,0-0.3-0.1c-0.1-0.1-0.1-0.2-0.1-0.3L304,14.1z M305.8,16.3
		c0.3,0,0.6-0.1,0.8-0.2c0.2-0.2,0.3-0.4,0.3-0.6l0,0c0-0.3-0.1-0.5-0.3-0.7c-0.2-0.2-0.5-0.2-0.8-0.2h-1v1.8L305.8,16.3z"/>
	<path class="st2" d="M308.8,18.5c-0.1-0.1-0.1-0.2-0.1-0.3v-4c0-0.1,0-0.2,0.1-0.3c0.1-0.1,0.2-0.1,0.3-0.1h2.9
		c0.1,0,0.2,0,0.3,0.1c0.1,0.1,0.1,0.2,0.1,0.3c0,0.2-0.2,0.4-0.4,0.4c0,0,0,0,0,0h-2.4v1.3h2.1c0.1,0,0.2,0,0.3,0.1
		c0.1,0.1,0.1,0.2,0.1,0.3c0,0.2-0.1,0.4-0.3,0.4c0,0,0,0,0,0h-2.1v1.3h2.5c0.1,0,0.2,0,0.3,0.1c0.1,0.1,0.1,0.2,0.1,0.3
		c0,0.2-0.2,0.4-0.4,0.4c0,0,0,0,0,0h-2.9C308.9,18.7,308.8,18.6,308.8,18.5z"/>
	<path class="st2" d="M313.3,14.1c0-0.1,0-0.2,0.1-0.3c0.2-0.2,0.4-0.2,0.6,0c0.1,0.1,0.1,0.2,0.1,0.3v3.7h2.2c0.1,0,0.2,0,0.3,0.1
		c0.1,0.1,0.1,0.2,0.1,0.3c0,0.1,0,0.2-0.1,0.3c-0.1,0.1-0.2,0.1-0.3,0.1h-2.6c-0.1,0-0.2,0-0.3-0.1c-0.1-0.1-0.1-0.2-0.1-0.3V14.1z
		"/>
	<path class="st2" d="M317.7,14.1c0-0.1,0-0.2,0.1-0.3c0.1-0.1,0.2-0.1,0.3-0.1c0.1,0,0.2,0,0.3,0.1c0.1,0.1,0.1,0.2,0.1,0.3v3.7
		h2.2c0.1,0,0.2,0,0.3,0.1c0.1,0.1,0.1,0.2,0.1,0.3c0,0.1,0,0.2-0.1,0.3c-0.1,0.1-0.2,0.1-0.3,0.1h-2.7c-0.2,0-0.4-0.2-0.4-0.4
		L317.7,14.1z"/>
	<path class="st2" d="M322.1,18.5c-0.1-0.1-0.1-0.2-0.1-0.3v-4c0-0.1,0-0.2,0.1-0.3c0.1-0.1,0.2-0.1,0.3-0.1h2.9
		c0.2,0,0.4,0.2,0.4,0.4l0,0c0,0.1,0,0.2-0.1,0.3c-0.1,0.1-0.2,0.1-0.3,0.1h-2.4v1.3h2.1c0.1,0,0.2,0,0.3,0.1
		c0.1,0.1,0.1,0.2,0.1,0.3c0,0.1,0,0.2-0.1,0.3c-0.1,0.1-0.2,0.1-0.3,0.1h-2.1v1.3h2.5c0.1,0,0.2,0,0.3,0.1c0.1,0.1,0.1,0.2,0.1,0.3
		c0,0.1,0,0.2-0.1,0.3c-0.1,0.1-0.2,0.1-0.3,0.1h-2.9C322.3,18.7,322.2,18.6,322.1,18.5z"/>
	<path class="st2" d="M327.9,14.5h-1.2c-0.1,0-0.2,0-0.3-0.1c-0.1-0.2-0.1-0.4,0-0.6c0.1-0.1,0.2-0.1,0.3-0.1h3.2
		c0.1,0,0.2,0,0.3,0.1c0.1,0.2,0.1,0.4,0,0.6c-0.1,0.1-0.2,0.1-0.3,0.1h-1.2v3.7c0,0.1,0,0.2-0.1,0.3c-0.2,0.2-0.4,0.2-0.6,0
		c-0.1-0.1-0.1-0.2-0.1-0.3V14.5z"/>
	<path class="st2" d="M332.8,18.7c-0.7,0-1.3-0.2-1.8-0.6c0,0-0.1-0.1-0.1-0.1c0-0.1,0-0.1,0-0.2c0-0.1,0-0.2,0.1-0.3
		c0.1-0.1,0.2-0.1,0.3-0.1h0.1c0,0,0.1,0,0.1,0.1c0.2,0.2,0.4,0.3,0.6,0.4c0.2,0.1,0.5,0.1,0.7,0.1c0.2,0,0.4,0,0.6-0.2
		c0.2-0.1,0.2-0.3,0.2-0.4l0,0c0-0.1,0-0.2,0-0.2c0-0.1-0.1-0.1-0.2-0.2c-0.1-0.1-0.2-0.1-0.3-0.2c-0.2-0.1-0.4-0.1-0.6-0.2
		c-0.2-0.1-0.5-0.1-0.7-0.2c-0.2-0.1-0.4-0.2-0.5-0.3c-0.1-0.1-0.2-0.2-0.3-0.4c-0.1-0.2-0.1-0.4-0.1-0.6l0,0c0-0.2,0-0.4,0.1-0.6
		c0.1-0.2,0.2-0.3,0.3-0.4c0.2-0.1,0.3-0.2,0.5-0.3c0.2-0.1,0.4-0.1,0.7-0.1c0.3,0,0.6,0,0.8,0.1c0.3,0.1,0.5,0.2,0.7,0.3
		c0.1,0,0.1,0.1,0.1,0.1c0,0.1,0.1,0.1,0.1,0.2c0,0.1,0,0.2-0.1,0.3c-0.1,0.1-0.2,0.1-0.3,0.1c-0.1,0-0.2,0-0.2-0.1
		c-0.2-0.1-0.4-0.2-0.6-0.3c-0.2-0.1-0.4-0.1-0.6-0.1c-0.2,0-0.4,0-0.6,0.2c-0.1,0.1-0.2,0.2-0.2,0.4l0,0c0,0.1,0,0.2,0,0.2
		c0,0.1,0.1,0.2,0.2,0.2c0.1,0.1,0.2,0.1,0.4,0.2c0.2,0.1,0.4,0.1,0.6,0.2c0.2,0.1,0.5,0.1,0.7,0.2c0.2,0.1,0.3,0.2,0.5,0.3
		c0.1,0.1,0.2,0.2,0.3,0.4c0.1,0.2,0.1,0.3,0.1,0.5l0,0c0,0.2,0,0.4-0.1,0.6c-0.1,0.2-0.3,0.4-0.5,0.5c-0.2,0.1-0.4,0.2-0.5,0.3
		C333.3,18.7,333.1,18.7,332.8,18.7z"/>
	<path class="st2" d="M335.6,19.6c-0.1,0-0.2,0-0.2-0.1c-0.1-0.1-0.1-0.1-0.1-0.2c0-0.1,0-0.1,0-0.2c0,0,0.1-0.1,0.1-0.1
		c0.4-0.3,0.7-0.6,1-1c0.4-0.8,0.4-1.8,0-2.6c-0.3-0.4-0.6-0.7-1-1c0,0-0.1-0.1-0.1-0.1c0-0.1,0-0.1,0-0.2c0-0.1,0-0.2,0.1-0.2
		c0.1-0.1,0.1-0.1,0.2-0.1h0.1h0.1c0.5,0.3,1,0.7,1.3,1.2c0.6,1,0.6,2.3,0,3.3c-0.3,0.5-0.8,0.9-1.3,1.2h-0.1L335.6,19.6z"/>
	<path class="st2" d="M360.5,5.7c0-0.1,0-0.2,0.1-0.3c0.2-0.2,0.4-0.2,0.6,0c0,0,0,0,0,0c0.1,0.1,0.1,0.2,0.1,0.3v3.7h2.2
		c0.1,0,0.2,0,0.3,0.1c0.1,0.1,0.1,0.2,0.1,0.3c0,0.2-0.2,0.4-0.4,0.4h-2.6c-0.1,0-0.2,0-0.3-0.1c-0.1-0.1-0.1-0.2-0.1-0.3
		L360.5,5.7z"/>
	<path class="st2" d="M366.7,10.3c-0.3,0-0.6,0-0.9-0.1c-0.2-0.1-0.5-0.2-0.7-0.4c-0.2-0.2-0.3-0.4-0.4-0.7
		c-0.1-0.3-0.2-0.6-0.1-0.9V5.7c0-0.1,0-0.2,0.1-0.3c0.1-0.1,0.2-0.1,0.3-0.1c0.1,0,0.2,0,0.3,0.1c0.1,0.1,0.1,0.2,0.1,0.3v2.4
		c0,0.4,0.1,0.7,0.3,1c0.5,0.5,1.3,0.5,1.8,0c0.2-0.3,0.4-0.6,0.3-1V5.7c0-0.1,0-0.2,0.1-0.3c0.1-0.1,0.2-0.1,0.3-0.1
		c0.2,0,0.4,0.2,0.4,0.4v2.4c0,0.3,0,0.7-0.1,1c-0.1,0.3-0.2,0.5-0.4,0.7c-0.2,0.2-0.4,0.3-0.7,0.4C367.3,10.3,367,10.3,366.7,10.3z
		"/>
	<path class="st2" d="M369.7,9.9c0-0.1,0-0.1,0-0.2l0.1-0.2l1.5-1.8L369.9,6c0,0-0.1-0.1-0.1-0.2c0-0.1,0-0.1,0-0.2
		c0-0.1,0-0.2,0.1-0.3c0.1-0.1,0.2-0.1,0.3-0.1c0.1,0,0.2,0,0.2,0.1c0.1,0,0.1,0.1,0.2,0.2l1.2,1.6l1.2-1.6c0-0.1,0.1-0.1,0.2-0.2
		c0.1,0,0.2-0.1,0.2-0.1c0.1,0,0.2,0,0.3,0.1c0.1,0.1,0.1,0.2,0.1,0.3c0,0.1,0,0.1,0,0.2c0,0.1-0.1,0.1-0.1,0.2l-1.4,1.7l1.5,1.8
		c0,0,0.1,0.1,0.1,0.2c0,0.1,0,0.1,0,0.2c0,0.1,0,0.2-0.1,0.3c-0.1,0.1-0.2,0.1-0.3,0.1c-0.1,0-0.2,0-0.2,0c-0.1,0-0.1-0.1-0.2-0.2
		l-1.3-1.7l-1.3,1.7c-0.1,0.1-0.1,0.1-0.2,0.2c-0.1,0-0.1,0.1-0.2,0.1C369.9,10.3,369.7,10.1,369.7,9.9
		C369.7,9.9,369.7,9.9,369.7,9.9L369.7,9.9z"/>
	<path class="st2" d="M377.1,10.3c-0.3,0-0.7-0.1-1-0.2c-0.3-0.1-0.6-0.3-0.8-0.5c-0.2-0.2-0.4-0.5-0.5-0.8c-0.1-0.3-0.2-0.7-0.2-1
		l0,0c0-0.3,0.1-0.7,0.2-1c0.1-0.3,0.3-0.6,0.5-0.8c0.2-0.2,0.5-0.4,0.8-0.5c0.3-0.1,0.7-0.2,1-0.2c0.3,0,0.7,0,1,0.2
		c0.3,0.1,0.5,0.2,0.7,0.4c0,0,0.1,0.1,0.1,0.1c0,0.1,0.1,0.1,0,0.2c0,0.1,0,0.2-0.1,0.3c-0.1,0.1-0.2,0.1-0.3,0.1h-0.2l-0.1-0.1
		c-0.2-0.1-0.3-0.2-0.5-0.3c-0.2-0.1-0.4-0.1-0.6-0.1c-0.2,0-0.4,0-0.6,0.1c-0.2,0.1-0.4,0.2-0.5,0.4c-0.1,0.2-0.3,0.3-0.3,0.5
		c-0.1,0.2-0.1,0.4-0.1,0.7l0,0c0,0.2,0,0.5,0.1,0.7c0.2,0.6,0.8,1.1,1.5,1.1c0.2,0,0.5,0,0.7-0.1c0.2-0.1,0.4-0.2,0.5-0.3
		c0,0,0.1-0.1,0.1-0.1c0,0,0.1,0,0.1,0c0.1,0,0.2,0,0.3,0.1c0.1,0.1,0.1,0.2,0.1,0.3c0,0.1,0,0.1,0,0.2c0,0-0.1,0.1-0.1,0.1
		C378.4,10.2,377.7,10.4,377.1,10.3z"/>
	<path class="st2" d="M379.6,9.9c0-0.1,0-0.1,0-0.2l1.8-4.1c0-0.1,0.1-0.2,0.2-0.3c0.1-0.1,0.2-0.1,0.3-0.1l0,0c0.1,0,0.2,0,0.3,0.1
		c0.1,0.1,0.2,0.2,0.2,0.3l1.8,4.1c0,0.1,0.1,0.1,0,0.2c0,0.1,0,0.2-0.1,0.3c-0.1,0.1-0.2,0.1-0.3,0.1c-0.1,0-0.2,0-0.3-0.1
		c-0.1-0.1-0.1-0.1-0.2-0.2L383.1,9h-2.4l-0.4,0.9c-0.1,0.2-0.2,0.3-0.4,0.3c-0.1,0-0.2,0-0.3-0.1C379.6,10.1,379.6,10,379.6,9.9z
		 M382.9,8.3l-0.9-2l-0.9,2H382.9z"/>
	<path class="st2" d="M386,6.1h-1.2c-0.1,0-0.2,0-0.3-0.1c-0.1-0.2-0.1-0.4,0-0.6c0.1-0.1,0.2-0.1,0.3-0.1h3.3
		c0.2,0,0.4,0.2,0.4,0.4c0,0.2-0.2,0.4-0.4,0.4h-1.2v3.7c0,0.1,0,0.2-0.1,0.3c-0.1,0.1-0.2,0.1-0.3,0.1c-0.1,0-0.2,0-0.3-0.1
		c-0.1-0.1-0.1-0.2-0.1-0.3L386,6.1z"/>
	<path class="st2" d="M391.4,5.7c0-0.1,0-0.2,0.1-0.3c0.1-0.1,0.2-0.1,0.3-0.1h0.1c0.1,0,0.2,0,0.2,0.1c0.1,0,0.1,0.1,0.2,0.2
		l1.5,2.3l1.5-2.3c0.1-0.1,0.2-0.2,0.4-0.2h0.1c0.1,0,0.2,0,0.3,0.1c0.1,0.1,0.1,0.2,0.1,0.3v4.1c0,0.1,0,0.2-0.1,0.3
		c-0.1,0.1-0.2,0.1-0.3,0.1c-0.2,0-0.4-0.2-0.4-0.4c0,0,0,0,0,0V6.9l-1.2,1.8c0,0.1-0.1,0.1-0.2,0.2c-0.1,0-0.1,0.1-0.2,0.1
		c-0.1,0-0.1,0-0.2-0.1c-0.1,0-0.1-0.1-0.1-0.2l-1.2-1.8v2.9c0,0.1,0,0.2-0.1,0.3c-0.1,0.1-0.2,0.1-0.3,0.1c-0.1,0-0.2,0-0.3-0.1
		c-0.1-0.1-0.1-0.2-0.1-0.3V5.7z"/>
	<path class="st2" d="M397.5,5.7c0-0.1,0-0.2,0.1-0.3c0.1-0.1,0.2-0.1,0.3-0.1c0.2,0,0.4,0.2,0.4,0.4v4.1c0,0.1,0,0.2-0.1,0.3
		c-0.1,0.1-0.2,0.1-0.3,0.1c-0.1,0-0.2,0-0.3-0.1c-0.1-0.1-0.1-0.2-0.1-0.3V5.7z"/>
	<path class="st2" d="M399.7,5.7c0-0.2,0.2-0.4,0.4-0.4c0,0,0,0,0,0h0.1c0.1,0,0.2,0,0.3,0.1c0.1,0.1,0.1,0.1,0.2,0.2l2.5,3.2v-3
		c0-0.1,0-0.2,0.1-0.3c0.2-0.2,0.4-0.2,0.6,0c0,0,0,0,0,0c0.1,0.1,0.1,0.2,0.1,0.3v4.1c0,0.1,0,0.2-0.1,0.3
		c-0.1,0.1-0.2,0.1-0.3,0.1l0,0c-0.1,0-0.2,0-0.3-0.1c-0.1-0.1-0.1-0.1-0.2-0.2l-2.5-3.3v3.1c0,0.2-0.2,0.4-0.4,0.4
		c-0.2,0-0.4-0.2-0.4-0.4c0,0,0,0,0,0L399.7,5.7z"/>
	<path class="st2" d="M405.3,5.7c0-0.1,0-0.2,0.1-0.3c0.1-0.1,0.2-0.1,0.3-0.1c0.1,0,0.2,0,0.3,0.1c0.1,0.1,0.1,0.2,0.1,0.3v4.1
		c0,0.1,0,0.2-0.1,0.3c-0.1,0.1-0.2,0.1-0.3,0.1c-0.1,0-0.2,0-0.3-0.1c-0.1-0.1-0.1-0.2-0.1-0.3V5.7z"/>
	<path class="st2" d="M352.9,19.6h-0.1h-0.1c-0.5-0.3-1-0.7-1.3-1.2c-0.6-1-0.6-2.3,0-3.3c0.3-0.5,0.8-0.9,1.3-1.2h0.1h0.1
		c0.1,0,0.2,0,0.2,0.1c0.1,0.1,0.1,0.1,0.1,0.2c0,0.1-0.1,0.2-0.1,0.2c-0.4,0.3-0.7,0.6-1,1c-0.4,0.8-0.4,1.8,0,2.6
		c0.3,0.4,0.6,0.7,1,1c0.1,0.1,0.2,0.3,0,0.5c0,0,0,0,0,0C353,19.5,353,19.5,352.9,19.6z"/>
	<path class="st2" d="M356.3,18.7c-0.7,0-1.3-0.2-1.8-0.7c-0.2-0.2-0.4-0.5-0.5-0.8c-0.1-0.3-0.2-0.7-0.2-1l0,0c0-0.3,0.1-0.7,0.2-1
		c0.1-0.3,0.3-0.6,0.5-0.8c0.2-0.2,0.5-0.4,0.8-0.5c0.3-0.1,0.7-0.2,1-0.2c0.3,0,0.7,0,1,0.2c0.3,0.1,0.5,0.2,0.7,0.4
		c0,0,0.1,0.1,0.1,0.2c0,0.1,0.1,0.1,0,0.2c0,0.1,0,0.2-0.1,0.3c-0.1,0.1-0.2,0.1-0.3,0.1h-0.1l-0.1-0.1c-0.2-0.1-0.3-0.2-0.5-0.3
		c-0.2-0.1-0.4-0.1-0.6-0.1c-0.2,0-0.4,0-0.6,0.1c-0.2,0.1-0.4,0.2-0.5,0.4c-0.1,0.2-0.3,0.3-0.3,0.6c-0.1,0.2-0.1,0.4-0.1,0.7l0,0
		c0,0.2,0,0.5,0.1,0.7c0.1,0.2,0.2,0.4,0.3,0.6c0.1,0.2,0.3,0.3,0.5,0.4c0.2,0.1,0.4,0.1,0.6,0.1c0.2,0,0.5,0,0.7-0.1
		c0.2-0.1,0.4-0.2,0.5-0.3c0,0,0.1-0.1,0.1-0.1c0,0,0.1,0,0.1,0c0.1,0,0.2,0,0.3,0.1c0.1,0.1,0.1,0.2,0.1,0.3c0,0.1,0,0.1,0,0.2
		c0,0.1-0.1,0.1-0.1,0.1c-0.2,0.2-0.5,0.4-0.8,0.5C357,18.7,356.6,18.7,356.3,18.7z"/>
	<path class="st2" d="M359.1,14.1c0-0.1,0-0.2,0.1-0.3c0.1-0.1,0.2-0.1,0.3-0.1h1.8c0.3,0,0.6,0,0.8,0.1c0.2,0.1,0.4,0.2,0.6,0.4
		c0.1,0.1,0.2,0.3,0.3,0.5c0.1,0.2,0.1,0.4,0.1,0.6l0,0c0,0.2,0,0.4-0.1,0.5c0,0.2-0.1,0.3-0.2,0.4c-0.1,0.1-0.2,0.2-0.4,0.3
		c-0.1,0.1-0.3,0.1-0.5,0.2l0.9,1.2c0,0,0.1,0.1,0.1,0.2c0,0.1,0,0.1,0,0.2c0,0.1,0,0.2-0.1,0.3c-0.2,0.1-0.4,0.1-0.5,0
		c-0.1,0-0.1-0.1-0.2-0.2l-1.2-1.5H360v1.3c0,0.1,0,0.2-0.1,0.3c-0.2,0.2-0.4,0.2-0.6,0c-0.1-0.1-0.1-0.2-0.1-0.3L359.1,14.1z
		 M361.3,16.1c0.3,0,0.5-0.1,0.7-0.2c0.2-0.1,0.3-0.4,0.3-0.6l0,0c0-0.2-0.1-0.5-0.3-0.6c-0.2-0.2-0.5-0.2-0.8-0.2H360v1.6
		L361.3,16.1z"/>
	<path class="st2" d="M366.2,18.7c-0.3,0-0.6,0-0.9-0.1c-0.2-0.1-0.5-0.2-0.7-0.4c-0.2-0.2-0.3-0.4-0.4-0.7
		c-0.1-0.3-0.2-0.6-0.1-0.9v-2.4c0-0.1,0-0.2,0.1-0.3c0.1-0.1,0.2-0.1,0.3-0.1c0.1,0,0.2,0,0.3,0.1c0.1,0.1,0.1,0.2,0.1,0.3v2.4
		c0,0.4,0.1,0.7,0.3,1c0.2,0.2,0.6,0.4,0.9,0.3c0.3,0,0.7-0.1,0.9-0.3c0.2-0.3,0.4-0.6,0.3-1v-2.4c0-0.1,0-0.2,0.1-0.3
		c0.1-0.1,0.2-0.1,0.3-0.1c0.2,0,0.4,0.2,0.4,0.4c0,0,0,0,0,0v2.4c0,0.3,0,0.7-0.1,1c-0.1,0.3-0.2,0.5-0.4,0.7
		c-0.2,0.2-0.4,0.3-0.7,0.4C366.8,18.7,366.5,18.7,366.2,18.7z"/>
	<path class="st2" d="M371.2,18.7c-0.7,0-1.3-0.2-1.8-0.6c0,0-0.1-0.1-0.1-0.1c0-0.1,0-0.1,0-0.2c0-0.1,0-0.2,0.1-0.3
		c0.1-0.1,0.2-0.1,0.3-0.1h0.1c0,0,0.1,0,0.1,0.1c0.2,0.2,0.4,0.3,0.6,0.4c0.2,0.1,0.5,0.1,0.7,0.1c0.2,0,0.4,0,0.6-0.2
		c0.1-0.1,0.2-0.2,0.2-0.4l0,0c0-0.1,0-0.2,0-0.2c0-0.1-0.1-0.1-0.2-0.2c-0.1-0.1-0.2-0.1-0.3-0.2c-0.2-0.1-0.4-0.1-0.6-0.2
		c-0.2-0.1-0.5-0.1-0.7-0.2c-0.2-0.1-0.4-0.2-0.5-0.3c-0.1-0.1-0.2-0.2-0.3-0.4c-0.1-0.2-0.1-0.4-0.1-0.6l0,0c0-0.2,0-0.4,0.1-0.6
		c0.1-0.2,0.2-0.3,0.4-0.4c0.2-0.1,0.3-0.2,0.5-0.3c0.2-0.1,0.4-0.1,0.7-0.1c0.3,0,0.6,0,0.8,0.1c0.3,0.1,0.5,0.2,0.7,0.3
		c0.1,0,0.1,0.1,0.1,0.1c0,0.1,0.1,0.1,0.1,0.2c0,0.1,0,0.2-0.1,0.3c-0.1,0.1-0.2,0.1-0.3,0.1c-0.1,0-0.2,0-0.2-0.1
		c-0.2-0.1-0.4-0.2-0.6-0.3c-0.2-0.1-0.4-0.1-0.6-0.1c-0.2,0-0.4,0-0.6,0.2c-0.1,0.1-0.2,0.2-0.2,0.4l0,0c0,0.1,0,0.2,0,0.2
		c0,0.1,0.1,0.1,0.2,0.2c0.1,0.1,0.2,0.1,0.4,0.2c0.2,0.1,0.4,0.1,0.6,0.2c0.2,0.1,0.5,0.1,0.7,0.2c0.2,0.1,0.3,0.2,0.5,0.3
		c0.1,0.1,0.2,0.2,0.3,0.4c0.1,0.2,0.1,0.3,0.1,0.5l0,0c0,0.2,0,0.4-0.1,0.6c-0.1,0.2-0.2,0.3-0.4,0.5c-0.2,0.1-0.4,0.2-0.5,0.3
		C371.7,18.7,371.5,18.7,371.2,18.7z"/>
	<path class="st2" d="M374,14.1c0-0.1,0-0.2,0.1-0.3c0.2-0.2,0.4-0.2,0.6,0c0.1,0.1,0.1,0.2,0.1,0.3v1.7h2.3v-1.7
		c0-0.2,0.2-0.4,0.4-0.4c0,0,0,0,0,0c0.1,0,0.2,0,0.3,0.1c0.1,0.1,0.1,0.2,0.1,0.3v4.1c0,0.1,0,0.2-0.1,0.3
		c-0.1,0.1-0.2,0.1-0.3,0.1c-0.2,0-0.4-0.2-0.4-0.4c0,0,0,0,0,0v-1.7h-2.3v1.7c0,0.1,0,0.2-0.1,0.3c-0.2,0.2-0.4,0.2-0.6,0
		c-0.1-0.1-0.1-0.2-0.1-0.3V14.1z"/>
	<path class="st2" d="M379.4,18.5c-0.1-0.1-0.1-0.2-0.1-0.3v-4c0-0.1,0-0.2,0.1-0.3c0.1-0.1,0.2-0.1,0.3-0.1h2.9
		c0.1,0,0.2,0,0.3,0.1c0.1,0.1,0.1,0.2,0.1,0.3c0,0.2-0.2,0.4-0.4,0.4c0,0,0,0,0,0h-2.4v1.3h2.1c0.1,0,0.2,0,0.3,0.1
		c0.1,0.1,0.1,0.2,0.1,0.3c0,0.2-0.1,0.4-0.3,0.4c0,0,0,0,0,0h-2.1v1.3h2.5c0.1,0,0.2,0,0.3,0.1c0.1,0.1,0.1,0.2,0.1,0.3
		c0,0.2-0.2,0.4-0.4,0.4c0,0,0,0,0,0h-2.9C379.6,18.7,379.5,18.6,379.4,18.5z"/>
	<path class="st2" d="M384,14.1c0-0.1,0-0.2,0.1-0.3c0.1-0.1,0.2-0.1,0.3-0.1h1.4c0.4,0,0.7,0.1,1.1,0.2c0.3,0.1,0.6,0.3,0.8,0.5
		c0.2,0.2,0.4,0.5,0.5,0.8c0.1,0.3,0.2,0.7,0.2,1l0,0c0,0.3-0.1,0.7-0.2,1c-0.1,0.3-0.3,0.6-0.5,0.8c-0.2,0.2-0.5,0.4-0.8,0.5
		c-0.3,0.1-0.7,0.2-1.1,0.2h-1.4c-0.1,0-0.2,0-0.3-0.1c-0.1-0.1-0.1-0.2-0.1-0.3V14.1z M385.8,17.8c0.2,0,0.5,0,0.7-0.1
		c0.4-0.1,0.7-0.5,0.9-0.9c0.1-0.2,0.1-0.4,0.1-0.7l0,0c0-0.2,0-0.5-0.1-0.7c-0.1-0.2-0.2-0.4-0.3-0.5c-0.2-0.2-0.3-0.3-0.5-0.3
		c-0.2-0.1-0.5-0.1-0.7-0.1h-1v3.3H385.8z"/>
	<path class="st2" d="M392.8,14.5h-1.2c-0.1,0-0.2,0-0.3-0.1c-0.1-0.2-0.1-0.4,0-0.6c0.1-0.1,0.2-0.1,0.3-0.1h3.3
		c0.1,0,0.2,0,0.3,0.1c0.1,0.2,0.1,0.4,0,0.6c-0.1,0.1-0.2,0.1-0.3,0.1h-1.2v3.7c0,0.1,0,0.2-0.1,0.3c-0.1,0.1-0.2,0.1-0.3,0.1
		c-0.1,0-0.2,0-0.3-0.1c-0.1-0.1-0.1-0.2-0.1-0.3V14.5z"/>
	<path class="st2" d="M398.2,18.7c-0.3,0-0.7-0.1-1-0.2c-0.3-0.1-0.6-0.3-0.8-0.5c-0.2-0.2-0.4-0.5-0.5-0.8c-0.1-0.3-0.2-0.7-0.2-1
		l0,0c0-0.3,0.1-0.7,0.2-1c0.1-0.3,0.3-0.6,0.5-0.8c0.5-0.5,1.2-0.8,1.9-0.8c0.3,0,0.7,0.1,1,0.2c0.3,0.1,0.6,0.3,0.8,0.5
		c0.2,0.2,0.4,0.5,0.5,0.8c0.1,0.3,0.2,0.7,0.2,1l0,0c0,0.3-0.1,0.7-0.2,1c-0.1,0.3-0.3,0.6-0.5,0.8
		C399.5,18.4,398.9,18.7,398.2,18.7z M398.2,17.9c0.2,0,0.5,0,0.7-0.1c0.4-0.2,0.7-0.5,0.9-0.9c0.1-0.2,0.1-0.4,0.1-0.7l0,0
		c0-0.2,0-0.5-0.1-0.7c-0.1-0.2-0.2-0.4-0.3-0.6c-0.1-0.2-0.3-0.3-0.5-0.4c-0.2-0.1-0.4-0.1-0.7-0.1c-0.7,0-1.3,0.4-1.5,1
		c-0.1,0.2-0.1,0.4-0.1,0.7l0,0c0,0.2,0,0.5,0.1,0.7c0.2,0.4,0.5,0.7,0.9,0.9C397.7,17.8,397.9,17.9,398.2,17.9L398.2,17.9z"/>
	<path class="st2" d="M401.8,14.1c0-0.2,0.2-0.4,0.4-0.4h2.9c0.1,0,0.2,0,0.3,0.1c0.1,0.1,0.1,0.2,0.1,0.3c0,0.1,0,0.2-0.1,0.3
		c-0.1,0.1-0.2,0.1-0.3,0.1h-2.4v1.3h2.1c0.1,0,0.2,0,0.3,0.1c0.1,0.1,0.1,0.2,0.1,0.3c0,0.1,0,0.2-0.1,0.3
		c-0.1,0.1-0.2,0.1-0.3,0.1h-2.1v1.6c0,0.1,0,0.2-0.1,0.3c-0.1,0.1-0.2,0.1-0.3,0.1c-0.1,0-0.2,0-0.3-0.1c-0.1-0.1-0.1-0.2-0.1-0.3
		L401.8,14.1z"/>
	<path class="st2" d="M408.4,18.7c-0.3,0-0.6,0-0.9-0.1c-0.2-0.1-0.5-0.2-0.7-0.4c-0.2-0.2-0.3-0.4-0.4-0.7
		c-0.1-0.3-0.1-0.6-0.1-0.9v-2.4c0-0.1,0-0.2,0.1-0.3c0.1-0.1,0.2-0.1,0.3-0.1c0.1,0,0.2,0,0.3,0.1c0.1,0.1,0.1,0.2,0.1,0.3v2.4
		c0,0.4,0.1,0.7,0.3,1c0.2,0.2,0.6,0.4,0.9,0.3c0.3,0,0.7-0.1,0.9-0.3c0.2-0.3,0.4-0.6,0.3-1v-2.4c0-0.1,0-0.2,0.1-0.3
		c0.2-0.2,0.4-0.2,0.6,0c0.1,0.1,0.1,0.2,0.1,0.3v2.4c0,0.3,0,0.7-0.1,1c-0.1,0.3-0.2,0.5-0.4,0.7c-0.2,0.2-0.4,0.3-0.7,0.4
		C409,18.7,408.7,18.7,408.4,18.7z"/>
	<path class="st2" d="M413.8,19.6c-0.1,0-0.2,0-0.2-0.1c-0.1-0.1-0.1-0.2-0.1-0.2c0-0.1,0-0.1,0-0.2c0,0,0.1-0.1,0.1-0.1
		c0.4-0.3,0.7-0.6,1-1c0.4-0.8,0.4-1.8,0-2.6c-0.3-0.4-0.6-0.7-1-1l-0.1-0.1c0-0.1,0-0.1,0-0.2c0-0.1,0-0.2,0.1-0.2
		c0.1-0.1,0.1-0.1,0.2-0.1h0.1h0.1c0.5,0.3,1,0.7,1.3,1.2c0.6,1,0.6,2.3,0,3.3c-0.3,0.5-0.8,0.9-1.3,1.2h-0.1L413.8,19.6z"/>
	<polyline class="st3" points="313.5,28.1 306.4,35.2 306.4,35.2 302.6,31.4 	"/>
	<polyline class="st3" points="389.5,28.1 382.4,35.2 382.4,35.2 378.6,31.4 	"/>
	<line class="st4" x1="228.1" y1="28.1" x2="235.6" y2="35.6"/>
	<line class="st4" x1="235.6" y1="28.1" x2="228.1" y2="35.6"/>
	<line class="st4" x1="152.4" y1="28" x2="159.9" y2="35.4"/>
	<line class="st4" x1="159.9" y1="28" x2="152.4" y2="35.4"/>
	<polyline class="st3" points="312.5,49 305.5,56 305.5,56 301.6,52.2 	"/>
	<polyline class="st3" points="388.5,49 381.5,56 381.5,56 377.6,52.2 	"/>
	<line class="st4" x1="227.2" y1="48.9" x2="234.6" y2="56.4"/>
	<line class="st4" x1="234.6" y1="48.9" x2="227.2" y2="56.4"/>
	<line class="st4" x1="151.5" y1="48.8" x2="158.9" y2="56.2"/>
	<line class="st4" x1="158.9" y1="48.8" x2="151.5" y2="56.2"/>
	<polyline class="st3" points="312.5,67.4 305.5,74.5 305.5,74.5 301.6,70.6 	"/>
	<polyline class="st3" points="388.5,67.4 381.5,74.5 381.5,74.5 377.6,70.6 	"/>
	<line class="st4" x1="227.2" y1="67.4" x2="234.6" y2="74.8"/>
	<line class="st4" x1="234.6" y1="67.4" x2="227.2" y2="74.8"/>
	<line class="st4" x1="151.5" y1="67.2" x2="158.9" y2="74.7"/>
	<line class="st4" x1="158.9" y1="67.2" x2="151.5" y2="74.7"/>
	<polyline class="st3" points="312.5,109.5 305.4,116.5 305.4,116.5 301.6,112.7 	"/>
	<polyline class="st3" points="388.5,109.5 381.4,116.5 381.4,116.5 377.6,112.7 	"/>
	<line class="st4" x1="227.1" y1="109.4" x2="234.6" y2="116.9"/>
	<line class="st4" x1="234.6" y1="109.4" x2="227.1" y2="116.9"/>
	<line class="st4" x1="151.4" y1="109.3" x2="158.9" y2="116.7"/>
	<line class="st4" x1="158.9" y1="109.3" x2="151.4" y2="116.7"/>
	<polyline class="st3" points="312.5,88.1 305.5,95.2 305.5,95.2 301.6,91.3 	"/>
	<polyline class="st3" points="160.6,88.1 153.6,95.2 153.6,95.2 149.7,91.3 	"/>
	<polyline class="st3" points="388.5,88.1 381.5,95.2 381.5,95.2 377.6,91.3 	"/>
	<line class="st4" x1="227.2" y1="88.1" x2="234.6" y2="95.6"/>
	<line class="st4" x1="234.6" y1="88.1" x2="227.2" y2="95.6"/>
	<polyline class="st3" points="161.5,129.2 154.5,136.3 154.4,136.3 150.6,132.4 	"/>
	<polyline class="st3" points="236.4,129.2 229.3,136.3 229.3,136.3 225.4,132.4 	"/>
	<polyline class="st3" points="389.4,129.2 382.3,136.3 382.3,136.3 378.5,132.4 	"/>
	<line class="st4" x1="303.4" y1="129.2" x2="310.8" y2="136.6"/>
	<line class="st4" x1="310.8" y1="129.2" x2="303.4" y2="136.6"/>
</g>
</svg>
