<svg width="158" height="182" viewBox="0 0 158 182" fill="none" xmlns="http://www.w3.org/2000/svg">
<path d="M78.1336 162.662C78.1336 162.662 73.4456 163.123 61.9553 160.911C50.4651 158.7 43.1113 158.884 33.9191 165.151C24.7269 171.417 16.3619 170.404 12.8689 166.441C9.55969 162.662 11.3981 159.437 14.1558 159.437C15.4427 159.437 16.7296 161.28 17.3731 162.847C18.3842 165.519 25.0945 166.809 27.7603 161.188C29.5987 155.566 25.4622 149.484 19.5792 148.193C13.6962 146.903 -0.000213623 147.364 -0.000213623 164.137C-0.000213623 173.814 8.45662 180.726 19.5792 181.002C29.231 181.186 42.5598 170.127 52.947 171.602C63.2422 173.076 80.2479 177.316 91.6462 170.312C82.3621 163.953 78.1336 162.662 78.1336 162.662Z" fill="#F3767A"/>
<path d="M68.5738 94.649C88.5209 74.927 88.7047 74.2819 90.9109 69.4896C90.9109 69.4896 92.9332 63.4993 90.0836 57.6933C89.4401 58.7992 88.8886 59.9051 88.3371 60.7345C86.9582 63.4071 86.3148 66.1719 85.2117 68.9367C84.9359 69.5818 83.8329 69.5818 83.8329 68.7523C83.9248 64.9738 85.8552 61.1032 87.8774 57.9698C88.2451 57.3246 88.7047 56.6795 89.1644 56.0344C88.5209 55.1128 87.7855 54.1912 86.8663 53.3618C86.4986 53.6383 86.1309 53.9148 85.7632 54.1912C82.1783 56.956 79.3287 60.3659 75.9276 63.2228C75.4679 63.5914 74.7326 63.1307 75.1003 62.5777C77.3064 58.4305 81.0752 54.7442 85.2117 51.7951C78.0418 45.5283 71.4234 39.3536 69.493 36.0359C67.4707 32.4417 70.3203 28.8475 80.6156 30.6907L88.6128 32.2574C89.9917 32.5339 91.2786 31.9809 92.1978 30.9672L98.9081 22.8572C99.9193 21.6591 100.011 20.0924 99.3677 18.71C96.0585 12.6275 88.3371 -3.86894 101.482 0.831171C109.203 4.14889 122.624 8.849 133.379 14.0099C137.24 8.29605 142.571 2.85867 148.546 0.370376C149.098 0.186058 149.465 0.92333 149.098 1.29197C146.064 4.33321 142.479 6.72935 139.538 9.86275C137.975 11.5216 136.596 13.1805 135.309 14.9315C136.32 15.4845 137.424 16.0374 138.343 16.4982C144.226 12.8118 152.315 11.7059 157.371 16.5904C158.014 17.1433 157.187 18.0649 156.543 17.6963C151.12 15.0237 145.421 15.3001 140.457 17.6963C143.307 19.3551 145.697 21.1062 147.259 22.8572C155.073 31.2436 151.028 39.4458 147.903 43.8694C144.869 48.2931 137.975 55.205 141.744 71.425C145.513 87.645 154.521 126.905 138.343 155.75C127.036 177.224 84.2006 182.753 64.9888 161.372C48.7186 143.954 46.3286 118.887 68.5738 94.649Z" fill="#273D8F"/>
<path d="M110.766 16.4059C110.766 16.4059 113.983 9.12536 121.429 13.0882C124.646 14.9314 125.841 18.6177 124.095 21.8433C121.981 25.8061 116.465 25.714 112.88 23.5022C109.295 21.2904 110.214 17.5118 110.766 16.4059Z" fill="white"/>
<path d="M100.471 35.3908C100.471 35.3908 103.688 28.1102 111.134 32.0731C114.351 33.9162 115.546 37.6026 113.799 40.8282C111.685 44.791 106.17 44.6988 102.585 42.487C98.908 40.2752 99.9192 36.4967 100.471 35.3908Z" fill="white"/>
<path d="M112.88 16.2217C112.88 16.2217 113.616 12.0746 118.396 12.9962C122.992 13.9178 121.797 18.0649 120.326 19.4473C118.487 21.2905 112.237 21.3826 112.88 16.2217Z" fill="#F3767A"/>
<path d="M102.401 35.483C102.401 35.483 103.136 31.3358 107.916 32.2574C112.513 33.179 111.318 37.3262 109.847 38.7085C108.1 40.4596 101.85 40.5517 102.401 35.483Z" fill="#F3767A"/>
<path d="M120.877 31.5201C120.877 31.5201 121.061 29.0318 122.808 28.0181C124.554 27.0043 124.646 27.7416 125.657 29.6769C126.669 31.6123 126.944 32.7182 124.646 32.626C122.348 32.5339 122.624 32.3496 121.797 32.9025C120.877 33.3633 120.877 31.5201 120.877 31.5201Z" fill="#F3767A"/>
</svg>
