<svg width="315" height="378" viewBox="0 0 315 378" fill="none" xmlns="http://www.w3.org/2000/svg">
<path d="M314.272 263.855C312.057 256.177 302.608 251.748 295.964 248.647C289.025 245.546 281.79 243.627 274.408 242.741C274.26 240.231 274.112 238.017 273.965 236.392C272.488 221.333 271.75 218.084 271.455 198.152C271.307 178.22 266.878 172.757 259.2 178.958C255.361 182.059 249.16 189.146 246.06 194.018C244.14 196.971 240.892 198.743 237.348 198.595C230.852 198.447 225.832 196.085 222.584 194.313C220.369 192.984 218.597 190.77 218.007 188.26C217.269 185.307 215.94 180.582 213.873 174.233C205.752 151.791 196.893 169.804 190.84 192.246C188.182 202.139 185.672 208.044 183.162 211.293C179.028 192.246 168.988 172.757 149.794 154.449C125.876 135.402 93.0983 134.074 66.079 139.241C66.079 139.241 10.7117 144.852 2.29591 219.708C-5.38168 274.485 15.7317 329.262 29.4628 357.462C43.1939 385.81 73.0184 381.381 65.7837 354.509C59.8779 332.51 59.435 310.363 63.7167 300.323C64.8979 297.37 68.1461 295.894 71.2466 296.632C80.8436 298.847 91.7694 298.108 98.1182 297.075C101.514 296.632 104.615 298.847 105.353 302.095C106.829 309.477 108.453 322.618 105.648 338.121C101.366 361.744 100.924 381.676 122.332 377.247C138.278 373.999 139.754 360.563 146.989 341.516C147.58 340.04 149.351 339.597 150.385 340.631C153.19 343.288 156.291 345.65 159.539 347.422C179.471 358.348 199.551 340.483 180.948 327.638C174.451 323.061 169.136 316.121 165.002 309.034C164.559 308.148 164.559 307.115 165.002 306.229C165.002 306.081 165.15 305.934 165.15 305.786C166.183 303.867 168.841 303.719 170.022 305.491C175.632 313.759 188.773 330.591 204.866 336.054C226.423 343.436 243.107 322.618 222.732 313.021C214.316 309.034 207.081 301.504 201.618 294.27C200.437 292.793 201.618 290.579 203.538 290.874C210.92 291.76 218.007 292.498 224.651 293.089C257.576 296.484 269.24 279.357 273.079 262.378C276.032 264.298 278.985 266.365 281.79 268.579C286.072 272.27 287.401 276.257 289.763 280.982C290.501 282.31 292.273 281.867 292.716 280.539C296.112 270.646 282.971 262.378 273.965 257.653C274.555 253.962 274.703 250.271 274.703 247.023C288.286 249.238 302.608 254.996 311.91 265.036C312.796 266.512 314.715 265.331 314.272 263.855Z" fill="#273D8F"/>
<path d="M105.058 155.778C113.621 117.242 106.534 97.4573 94.1318 77.968C82.9107 60.5458 88.0783 27.1778 114.212 28.6542C123.513 29.3925 130.748 41.3518 119.084 47.2577C107.42 53.1635 107.42 66.8946 116.279 72.8004C127.352 80.1827 149.351 73.6863 152.6 44.1571C155.848 14.6279 132.815 -9.2908 95.0176 3.55441C57.2202 16.3996 51.7573 55.2305 64.3073 84.1692C76.8572 113.108 86.6018 131.268 71.5419 167.146C59.7302 194.904 76.1189 198.89 79.9577 199.481C93.8365 201.4 97.38 190.179 105.058 155.778Z" fill="#F3767A"/>
<path d="M254.475 210.111C254.475 210.111 269.831 211.735 267.025 227.829C265.549 234.916 259.348 239.198 252.408 237.869C243.845 236.245 240.597 226.057 242.516 218.084C244.436 210.111 252.113 209.668 254.475 210.111Z" fill="white"/>
<path d="M213.135 202.286C213.135 202.286 228.49 203.91 225.684 220.004C224.208 227.091 218.007 231.372 211.068 230.044C202.504 228.419 199.256 218.232 201.175 210.259C203.095 202.286 210.772 201.843 213.135 202.286Z" fill="white"/>
<path d="M255.952 213.803C255.952 213.803 264.072 212.769 265.106 222.071C266.14 231.077 257.724 231.373 254.328 229.601C249.898 227.239 246.207 215.87 255.952 213.803Z" fill="#F3767A"/>
<path d="M214.168 205.977C214.168 205.977 222.289 204.944 223.322 214.245C224.356 223.252 215.94 223.547 212.544 221.775C208.262 219.413 204.423 207.897 214.168 205.977Z" fill="#F3767A"/>
<path d="M232.329 237.131C232.329 237.131 237.053 235.95 240.006 238.607C242.959 241.265 241.63 241.708 238.677 244.956C235.724 248.204 233.805 249.09 232.624 244.808C231.295 240.527 231.886 240.969 230.409 239.641C228.933 238.164 232.329 237.131 232.329 237.131Z" fill="#F3767A"/>
<path d="M252.556 200.514C251.08 200.219 250.341 198.447 251.227 197.266C254.475 191.951 262.005 180.582 264.072 183.24C265.992 185.75 266.287 195.937 266.435 200.809C266.435 202.286 265.106 203.319 263.777 203.024L252.556 200.514Z" fill="white"/>
<path d="M200.437 194.313C198.961 194.461 197.779 193.132 198.075 191.656C199.551 185.602 202.947 172.462 205.605 174.233C208.262 176.005 210.92 185.602 212.544 190.327C212.987 191.656 212.101 193.132 210.772 193.28L200.437 194.313Z" fill="white"/>
<path d="M86.8971 226.057C85.8636 222.218 83.2059 219.265 79.8101 216.903C81.7295 214.541 83.9442 212.178 86.1589 210.259C86.6018 209.816 86.1589 209.373 85.7159 209.373C82.1724 209.964 79.8101 212.769 77.743 215.427C74.9378 213.95 71.8372 212.917 69.0319 212.326C67.9984 212.178 67.5555 213.655 68.589 213.802C71.5419 214.541 74.0519 215.722 76.1189 217.346C74.0519 220.004 72.5754 222.957 71.5419 226.205C71.099 227.681 73.3137 228.124 73.7566 226.795C74.7901 224.138 76.2666 221.48 78.186 218.822C80.8436 221.037 83.0583 223.695 85.5683 226.5C86.1589 227.386 87.1924 226.795 86.8971 226.057Z" fill="white"/>
</svg>
