<svg xmlns="http://www.w3.org/2000/svg" viewBox="0 0 111.61 94.59"><defs><style>.cls-1{fill:#f3767a;}.cls-2{fill:#224292;}.cls-3{fill:#fff;}</style></defs><g id="Layer_2" data-name="Layer 2"><g id="Layer_1-2" data-name="Layer 1"><path class="cls-1" d="M88.52,41.44c.2.14,16.66-7.83,16.68-23.09C105,9.66,100.58,5.66,98.33,7.23c-1.52,1-1.71,3.72-.3,4.48s.52,3.78-2.64,3.74-7.74-5.36-3.7-11.56,14.38-6.06,19,8.42-9.27,31.08-17,32.59A4.64,4.64,0,0,1,88.52,41.44Z"/><path class="cls-2" d="M103.76,38.8C95.33,28.85,77.1,30.53,67.45,38,58.61,44.92,52,50.83,46.89,50.65a1.9,1.9,0,0,1-1.74-1.26c-.08-.23-.16-.44-.23-.65a18.77,18.77,0,0,1,3.2-.43c1.62-.12,3.2.09,4.81.13.47,0,.54-.67.11-.81a15.58,15.58,0,0,0-8.44,0,13,13,0,0,1-.39-2.07Q45,45,45.89,44.55c2.18-1.25,4.58-2,6.79-3.2a.33.33,0,0,0-.17-.61,19.38,19.38,0,0,0-8.41,3.35c0-.46-.05-1-.09-1.53-.3-4.72-2-13.91-6-8a32.38,32.38,0,0,0-3.71,6.67,1.43,1.43,0,0,1-1.14.83l-7.88,1a1.46,1.46,0,0,1-1.46-.78c-.94-1.87-3.31-6-5.73-6.57-2.07-.45-5.46,11.22-5.1,22-4.33-.5-9.28-.21-12.8,1.81-.26.16-.16.64.17.61,2.65-.22,5.21-1.05,7.89-1.24a33.44,33.44,0,0,1,4.8,0c0,.56.07,1.13.13,1.69a7.59,7.59,0,0,0-3.91.88,13.74,13.74,0,0,0-5.67,4.09c-.24.33.24.79.57.56,1.3-.91,2.44-2,3.82-2.79s3.55-2.14,5.29-1.87c.54,4.3,1.83,8.19,4.21,10.76a1.1,1.1,0,0,1-.16,1.68A63.41,63.41,0,0,1,5.18,80.17c-2.38.92-3.37,4.06-.61,6.13s13.74-.67,22.62-9.17a1.14,1.14,0,0,1,1.17-.23,30.46,30.46,0,0,0,5.53,1.55A1.13,1.13,0,0,1,34.71,80c-.77,1.62-2.85,4.08-7.24,6.8-6.19,3.83-2.71,7.76.68,7.76C33,94.59,43.61,87.45,48,80.37a.65.65,0,0,1,.63-.29c4.42.63,20.62-.25,28.13-4.87a.64.64,0,0,1,.88.88c-2.31,3.77-5.1,5.25-7.82,6.83-3.3,1.92-4.52,4.6-1.77,6.36S80.78,87.6,94.72,77.56C107.44,68.37,114.87,55.2,103.76,38.8Z"/><path class="cls-3" d="M21.82,48.48a4.37,4.37,0,0,0-4.43,5A3.78,3.78,0,0,0,21.48,57c2.18-.12,4-3.16,3.67-5.66A3.23,3.23,0,0,0,21.82,48.48Z"/><path class="cls-3" d="M34.21,46.92a4.13,4.13,0,0,0-3.34,3.24c-.45,1.85-.29,5.16,4.27,4.74,1.63-.17,3.71-2.22,3.34-5.43C38.2,47.47,36.53,46.41,34.21,46.92Z"/><path class="cls-1" d="M22.7,50.25a2.64,2.64,0,0,0-3.08,2.21c-.64,2.7,1.92,3.14,3,2.64S25.54,51.68,22.7,50.25Z"/><path class="cls-1" d="M35.86,48.37a2.64,2.64,0,0,0-3.08,2.21c-.64,2.7,1.92,3.14,3,2.64S38.7,49.8,35.86,48.37Z"/><path class="cls-1" d="M27.39,57.52a2.87,2.87,0,0,0-2.34.42c-.91.79-.5,1,.41,1.94s1.48,1.26,1.87,0,.23-1.19.66-1.59S27.39,57.52,27.39,57.52Z"/><path class="cls-3" d="M37.22,42.15a.46.46,0,0,1-.42-.62c.64-1.76,2.75-6.69,3.52-6.12s1.54,4.74,1.8,6.27a.46.46,0,0,1-.47.54Z"/><path class="cls-3" d="M17.05,44.92a.45.45,0,0,1-.55-.49c.2-1.8.73-6.84,2-6.6.9.17,2.81,4,3.42,5.41a.46.46,0,0,1-.32.63Z"/></g></g></svg>