<svg width="237" height="148" viewBox="0 0 237 148" fill="none" xmlns="http://www.w3.org/2000/svg">
<path d="M237.017 119.69C225.607 125.051 211.311 129.588 199.077 124.089C188.355 119.278 179.97 111.855 168.56 108.144C147.254 101.133 125.947 105.394 104.503 109.106C100.929 109.381 97.3547 109.793 93.9182 110.068C80.9967 110.343 88.4197 110.068 78.2474 109.793C71.9241 109.656 59.0026 107.319 53.7791 104.844C47.8682 102.095 42.6446 98.2462 38.3832 93.435C33.9844 88.6238 30.5479 82.9879 28.0735 76.5271C27.1113 73.9153 26.2865 71.3036 25.5992 68.6918C23.9497 62.3685 23.5373 55.7703 23.9496 49.1721C24.0871 45.8729 24.362 42.4364 24.637 38.7249C25.1868 32.2641 25.8741 25.6659 26.5614 19.0677C27.2488 12.4695 28.0735 6.00877 28.8983 -0.314518C29.7231 -6.50034 30.5479 -12.1363 31.2352 -17.2224C31.5101 -19.2844 32.0599 -22.8584 32.6098 -26.1575C33.4346 -31.5185 30.2729 -36.7421 25.0494 -38.3917C18.5886 -40.5911 11.8529 -36.6047 10.6158 -30.0065C9.51607 -23.9581 8.2789 -17.2224 7.59159 -13.5109C6.21696 -5.95049 4.9798 2.29727 3.74264 11.3698C2.50547 20.4423 1.54323 29.3774 0.993382 38.3125C0.443531 47.2476 0.443531 55.7703 0.993382 63.8806C1.54323 71.9909 2.91786 78.864 5.25472 84.3625C8.14144 91.648 11.8529 98.2462 16.6641 104.157C21.3379 110.068 26.8364 115.017 32.8847 119.141C39.0705 123.264 45.6688 126.426 52.6794 128.625C58.8652 130.55 88.4197 136.323 124.16 127.663C131.033 126.014 138.181 125.601 145.192 125.876C159.488 126.426 170.76 132.062 182.582 139.622C203.613 152.956 226.707 148.695 248.151 138.523C260.66 132.612 249.663 113.78 237.017 119.69Z" fill="#F27278"/>
</svg>
