<svg width="35" height="47" viewBox="0 0 35 47" fill="none" xmlns="http://www.w3.org/2000/svg">
<path d="M16.5406 46C10.8574 45.6836 5.84701 42.7829 2.80183 36.8585C1.47398 34.2567 0.92514 31.4615 1.27923 28.5608C1.5271 26.5567 2.27069 24.6757 3.0851 22.8474C4.85556 18.8919 7.12174 15.2353 9.49415 11.6315C11.6364 8.34405 13.8495 5.12694 16.0448 1.87468C16.8061 0.731989 18.1163 0.696829 18.8776 1.83952C22.4362 7.18378 26.2073 12.405 29.3941 17.9954C31.0052 20.8433 32.4924 23.744 33.3599 26.9259C33.8734 28.7718 33.9088 30.6352 33.5547 32.4987C32.457 38.2473 29.1639 42.3082 23.8349 44.7167C21.8165 45.6132 19.6743 46 16.5406 46ZM17.4789 42.8356C19.7274 42.8356 22.2415 42.15 24.0296 41.1128C26.9509 39.4251 28.9161 36.964 29.9429 33.782C30.6688 31.5494 30.8282 29.2992 30.0846 27.0138C29.3764 24.8339 28.4026 22.7771 27.2873 20.773C24.4014 15.5342 20.9844 10.647 17.656 5.6895C17.4612 5.39064 17.3904 5.54886 17.2488 5.74223C14.2744 10.1548 11.2292 14.5146 8.55581 19.138C7.24567 21.4058 6.04176 23.744 5.12112 26.2051C4.18278 28.7015 4.16508 31.2154 4.94408 33.7293C6.66142 39.1439 11.7426 42.8356 17.4789 42.8356Z" fill="#273D8F" stroke="#273D8F"/>
<path d="M28.4911 30.6352C28.1547 34.3797 26.4197 37.2804 23.1798 39.2669C22.2237 39.847 21.3031 39.6536 20.7719 38.7922C20.2762 38.0011 20.5595 37.087 21.4978 36.5244C23.4984 35.3114 24.7201 33.5534 25.1981 31.3032C25.2689 30.9868 25.3043 30.6704 25.3397 30.3539C25.4637 29.3167 26.1187 28.6487 27.0039 28.719C27.8007 28.7717 28.6505 29.4222 28.4911 30.6352Z" fill="#273D8F" stroke="#273D8F"/>
</svg>
