<svg width="262" height="375" viewBox="0 0 262 375" fill="none" xmlns="http://www.w3.org/2000/svg">
<path d="M214.456 148.038C214.456 148.038 199.531 160.235 205.79 180.457C208.999 189.283 227.616 189.925 226.171 176.444C225.369 169.704 225.209 167.136 228.9 164.568C235.319 160.396 243.504 172.593 238.208 189.283C235.801 199.715 221.517 214.159 223.604 245.293C225.69 276.267 223.604 305.315 193.432 311.253C167.113 334.844 192.79 334.844 192.79 334.844C192.79 334.844 233.233 329.227 241.899 293.118C248.64 254.922 237.085 246.095 248.64 218.973C256.664 199.875 276.725 156.223 237.887 143.224C226.171 139.372 214.456 148.038 214.456 148.038Z" fill="#F3767A"/>
<path d="M210.444 67.1537C198.889 62.4996 184.766 62.1787 171.285 64.265C166.471 41.155 161.335 21.5757 156.2 7.93433C156.2 7.93433 150.904 -6.8304 141.916 3.92218C135.657 11.3045 130.682 22.0571 128.436 27.5136C127.312 30.2419 124.905 31.5258 122.979 32.0073C118.004 32.9702 107.733 34.0936 101.474 33.6121C98.9061 33.2911 96.4988 30.5629 95.5359 28.1556C84.6228 1.99634 74.6727 -7.79331 65.8459 20.7732C58.624 44.6857 56.3773 53.9939 51.7232 67.7957C50.9207 69.882 50.2788 72.2893 49.4763 74.8571C33.1067 74.3756 14.3299 77.2644 1.49098 85.9306C0.367576 86.733 1.00952 88.3379 2.45389 88.1774C11.6016 86.2516 20.4283 82.5604 29.7365 80.9556C35.9955 79.8321 42.2545 79.3507 48.5134 79.1902C47.8715 81.9185 47.39 84.6467 47.2295 87.696C32.7858 93.7944 19.3049 108.078 22.8356 123.645C23.3171 125.41 25.7244 124.768 25.8849 123.163C27.6502 109.362 35.6745 98.7695 47.069 92.8315C46.9086 104.066 50.1183 116.102 61.1918 125.089C72.2654 133.274 85.7462 164.729 61.0313 195.382C28.7736 235.504 3.25633 275.625 23.1566 346.881C33.2672 371.436 55.7353 374.645 88.314 374.966C120.893 375.287 151.546 373.201 151.546 373.201C151.546 373.201 194.235 370.794 196.642 325.536C200.012 261.984 189.099 155.742 174.495 79.1902C179.149 79.9926 183.964 82.0789 187.334 83.6838C192.79 86.0911 197.445 89.6218 202.58 92.3501C204.025 93.1525 205.629 91.2267 204.345 89.9428C198.568 83.8443 184.927 75.82 173.693 75.178C173.211 73.0917 172.89 71.0054 172.409 69.0796C175.618 68.7586 178.828 68.4376 182.198 68.2771C191.667 67.9562 200.815 69.561 210.283 69.561C211.567 69.561 211.728 67.6352 210.444 67.1537Z" fill="#273D8F"/>
<path d="M81.4131 52.0683C81.4131 52.0683 64.0805 50.6239 63.7596 69.0799C63.9201 77.2647 69.858 83.3631 77.8823 83.3631C87.672 83.3631 93.289 72.771 92.9681 63.6233C92.6471 54.4756 83.9808 52.0683 81.4131 52.0683Z" fill="white"/>
<path d="M128.756 52.0685C128.756 52.0685 111.424 50.6241 111.103 69.08C111.263 77.2648 117.201 83.3633 125.226 83.3633C135.015 83.3633 140.632 72.7712 140.311 63.6235C139.99 54.4758 131.485 52.0685 128.756 52.0685Z" fill="white"/>
<path d="M79.0057 55.9198C79.0057 55.9198 70.179 53.0311 67.1297 63.1417C64.0805 72.9314 73.2282 75.0177 77.5613 73.7338C82.6969 71.9684 89.2769 60.0925 79.0057 55.9198Z" fill="#F3767A"/>
<path d="M126.831 55.9198C126.831 55.9198 118.004 53.0311 114.955 63.1417C111.905 72.9314 121.053 75.0177 125.386 73.7338C130.522 71.9684 137.102 60.0925 126.831 55.9198Z" fill="#F3767A"/>
<path d="M99.8689 87.3754C99.8689 87.3754 94.8938 85.1285 91.0421 87.3754C87.1904 89.6222 88.6348 90.5851 91.2026 94.5972C93.7704 98.6094 95.6962 100.214 97.943 95.7206C100.19 91.227 99.5479 91.548 101.474 90.4246C103.4 89.3012 99.8689 87.3754 99.8689 87.3754Z" fill="#F3767A"/>
</svg>
