<svg width="49" height="48" viewBox="0 0 49 48" fill="none" xmlns="http://www.w3.org/2000/svg">
<path d="M31.6703 18.2622C31.9028 18.146 32.019 18.0763 32.1584 18.0065C35.2267 16.24 38.2949 14.4502 41.3631 12.7069C41.7815 12.4745 41.7815 12.3117 41.5025 11.9398C40.782 10.9171 39.9684 9.98734 39.1317 9.08083C38.8062 8.70892 38.6435 8.29053 38.8295 7.8024C38.9922 7.40725 39.2944 7.15157 39.736 7.08184C40.1776 7.0121 40.5263 7.19806 40.8285 7.50023C44.4545 11.2425 46.686 15.6589 47.3833 20.8191C48.1736 26.6998 46.9184 32.1157 43.641 37.0202C40.8982 41.1344 37.1792 44.1096 32.5303 45.8994C27.6259 47.7822 22.6284 48.0146 17.6077 46.527C11.8896 44.8302 7.40353 41.4365 4.2191 36.3693C1.66225 32.2784 0.453563 27.8155 0.686004 23.004C0.941688 17.5184 2.89419 12.6837 6.52026 8.54621C10.2393 4.29255 14.9346 1.71246 20.4899 0.805944C24.5576 0.131867 28.5556 0.596748 32.4141 2.03788C33.0882 2.29356 33.3904 2.87466 33.2044 3.50225C33.0185 4.1066 32.4374 4.43202 31.7168 4.22282C30.5779 3.87416 29.4854 3.50225 28.3232 3.26981C24.6506 2.54925 21.0478 2.75844 17.4915 3.94389C13.0518 5.43151 9.4955 8.10458 6.79919 11.9398C4.91642 14.6362 3.73097 17.6114 3.24285 20.8656C2.61526 25.1192 3.19636 29.1869 5.03264 33.0919C5.21859 33.4871 5.35806 33.5336 5.72996 33.3244C9.10035 31.3719 12.4475 29.4194 15.8411 27.4901C16.213 27.2809 16.2363 27.0717 16.0968 26.7231C15.7481 25.8398 15.26 25.0262 14.6789 24.2592C12.494 21.3769 11.7269 18.1692 12.5172 14.6594C12.8659 13.0788 13.5632 11.6377 14.5859 10.3592C15.0741 9.73166 15.7714 9.59219 16.306 10.0106C16.8406 10.4057 16.9103 11.1263 16.4222 11.7771C15.3065 13.2648 14.6557 14.8918 14.5627 16.7514C14.4465 18.8433 14.9811 20.7493 16.2363 22.4229C17.0033 23.4456 17.7471 24.4916 18.1888 25.7003C18.305 25.9792 18.4212 25.9792 18.6537 25.8398C19.8623 25.1192 21.0943 24.4219 22.3262 23.7246C22.6284 23.5619 22.6284 23.4224 22.4424 23.1435C21.164 21.098 20.6062 18.8666 20.7689 16.4492C20.9316 14.148 21.7451 12.0793 23.163 10.2663C23.6046 9.70842 24.302 9.61544 24.8133 9.98734C25.3247 10.3592 25.4409 11.0566 25.0225 11.6377C24.2555 12.6837 23.6511 13.7994 23.3489 15.0545C22.7678 17.4952 23.1165 19.7731 24.4182 21.9115C24.6041 22.2137 24.7436 22.3067 25.0923 22.0975C26.4172 21.3072 27.7653 20.5401 29.1135 19.7731C29.4621 19.5871 29.5086 19.3779 29.4389 19.0293C28.9043 15.8216 29.6713 12.9393 31.6238 10.336C32.0655 9.7549 32.6466 9.59219 33.2044 9.89437C33.6926 10.1501 33.9482 10.7079 33.739 11.2193C33.6461 11.4982 33.4369 11.7539 33.2742 12.0096C31.9725 13.8691 31.4611 15.9146 31.6703 18.2622ZM16.6547 29.768C16.5617 29.768 16.5152 29.7448 16.492 29.768C13.2378 31.6508 9.96038 33.5336 6.68297 35.3931C6.42728 35.5558 6.52026 35.672 6.63648 35.8347C7.21758 36.6948 7.86841 37.5315 8.58898 38.2753C14.2605 44.1329 21.1175 46.2713 29.067 44.4815C33.8785 43.4123 37.7835 40.7625 40.8285 36.8807C43.641 33.2779 45.0821 29.1869 45.2448 24.6543C45.3843 21.191 44.6637 17.8903 43.1761 14.7524C43.0367 14.4734 42.9437 14.427 42.6648 14.5897C39.3176 16.5422 35.9705 18.4714 32.6001 20.4007C32.2979 20.5634 32.3212 20.7028 32.4374 20.9818C32.8093 21.7488 33.2974 22.4462 33.8088 23.1202C36.7375 27.0717 36.7608 32.4411 33.8553 36.3926C33.2509 37.2294 32.5536 37.4618 31.9725 37.0434C31.3449 36.6018 31.3449 35.8812 31.9957 35.0212C34.2737 31.9065 34.2504 27.6528 31.9725 24.5614C31.4146 23.7943 30.8335 23.0505 30.4384 22.1672C30.2989 21.8186 30.1362 21.8186 29.834 22.0045C28.7648 22.6553 27.6723 23.2829 26.5566 23.8873C26.115 24.1197 26.022 24.3289 26.2777 24.817C27.4864 27.1647 27.7886 29.6751 27.2307 32.2551C26.8588 33.9287 26.1382 35.4396 25.069 36.7645C24.6506 37.2759 23.9765 37.4153 23.4652 37.0667C22.9306 36.718 22.8143 36.0904 23.1398 35.4861C23.256 35.2769 23.3954 35.0909 23.5117 34.905C25.4177 32.0227 25.6501 29.0242 24.209 25.863C24.023 25.4679 23.9068 25.3981 23.5117 25.6306C22.117 26.4674 20.6991 27.2809 19.2812 28.0712C18.9326 28.2572 18.8164 28.4664 18.8629 28.8383C19.0488 30.047 18.8861 31.2324 18.6304 32.4179C18.2585 34.0217 17.5379 35.4628 16.5152 36.7645C16.0968 37.2759 15.3995 37.4153 14.9114 37.0667C14.3767 36.6948 14.2605 36.0439 14.6324 35.4163C14.7487 35.2304 14.8881 35.0677 15.0043 34.905C16.1433 33.3709 16.6547 31.6508 16.6547 29.768Z" fill="#273D8F" stroke="#273D8F"/>
</svg>
