<svg width="41" height="40" viewBox="0 0 41 40" fill="none" xmlns="http://www.w3.org/2000/svg">
<path d="M30.1492 35.9999C28.8812 35.9652 27.9259 35.4099 27.3005 34.2818C26.6405 33.1016 25.9978 31.9214 25.3725 30.7413C25.2509 30.533 25.112 30.3768 24.8862 30.2727C23.7571 29.6652 22.6281 29.0404 21.4991 28.433C20.3179 27.8082 19.6579 26.8363 19.6579 25.4826C19.6579 24.1462 20.3353 23.1917 21.4991 22.5669C22.6281 21.9594 23.7571 21.3346 24.8862 20.7272C25.0946 20.6057 25.2509 20.4669 25.3551 20.2586C25.9804 19.1132 26.6058 17.9851 27.2311 16.8396C27.8737 15.6421 28.8465 14.9999 30.1666 14.9999C31.4693 14.9999 32.442 15.6421 33.0673 16.8049C33.6926 17.9504 34.3179 19.0785 34.9432 20.2239C35.0648 20.4495 35.2211 20.6057 35.4469 20.7272C36.5934 21.352 37.7224 21.9768 38.8688 22.6016C40.0326 23.2264 40.6579 24.1983 40.6579 25.4999C40.6579 26.8016 40.0152 27.7735 38.8688 28.3983C37.7398 29.0057 36.6107 29.6305 35.4817 30.238C35.2211 30.3768 35.0474 30.5504 34.9085 30.7933C34.2832 31.9561 33.6579 33.1016 33.0152 34.247C32.4072 35.3925 31.4519 35.9652 30.1492 35.9999ZM23.0102 25.4999C23.2013 25.6041 23.3402 25.6908 23.4792 25.7603C24.5388 26.3504 25.5983 26.9404 26.6752 27.5132C27.3179 27.8603 27.8043 28.3462 28.1517 28.9884C28.7075 30.0123 29.2633 31.0189 29.8192 32.0256C29.9234 32.2165 29.9929 32.4247 30.1492 32.5636C30.3055 32.4768 30.3402 32.3032 30.4271 32.1818C31.0003 31.1578 31.5561 30.1338 32.112 29.0925C32.4941 28.3636 33.0326 27.8256 33.7621 27.4437C34.9432 26.8189 36.0896 26.1768 37.2534 25.5346C37.1666 25.3611 37.0276 25.3264 36.8886 25.257C35.8465 24.6842 34.8216 24.1115 33.7621 23.5561C33.0152 23.1743 32.4594 22.6189 32.0772 21.8727C31.5388 20.8313 30.9656 19.8074 30.3924 18.7834C30.3229 18.6446 30.2881 18.4884 30.0971 18.4016C29.437 19.5991 28.7943 20.7793 28.1517 21.9768C27.8043 22.6363 27.3005 23.1396 26.6405 23.4867C25.7025 23.99 24.7646 24.5107 23.8266 25.0313C23.5834 25.1702 23.3229 25.3264 23.0102 25.4999Z" fill="#273D8F"/>
<path d="M14.2094 16.1953C13.2927 16.1702 12.602 15.7683 12.1499 14.952C11.6727 14.0981 11.208 13.2441 10.7559 12.3902C10.668 12.2395 10.5676 12.1264 10.4043 12.0511C9.58803 11.6116 8.77175 11.1595 7.95547 10.7199C7.10152 10.2678 6.62431 9.56458 6.62431 8.58505C6.62431 7.61807 7.11408 6.92737 7.95547 6.47528C8.77175 6.03575 9.58803 5.58365 10.4043 5.14412C10.555 5.05621 10.668 4.95575 10.7434 4.80505C11.1955 3.97621 11.6476 3.15994 12.0997 2.3311C12.5643 1.46459 13.2676 0.999939 14.222 0.999939C15.1638 0.999939 15.8671 1.46459 16.3192 2.30598C16.7713 3.13482 17.2234 3.9511 17.6755 4.77993C17.7634 4.94319 17.8764 5.05621 18.0396 5.14412C18.8685 5.59621 19.6848 6.04831 20.5136 6.5004C21.355 6.95249 21.8071 7.65575 21.8071 8.5976C21.8071 9.53946 21.3424 10.2427 20.5136 10.6948C19.6973 11.1343 18.881 11.5864 18.0648 12.026C17.8764 12.1264 17.7508 12.252 17.6503 12.4278C17.1983 13.2692 16.7462 14.0981 16.2815 14.9269C15.842 15.7557 15.1513 16.1702 14.2094 16.1953ZM9.04803 8.5976C9.18617 8.67295 9.28664 8.73574 9.3871 8.78598C10.1531 9.21295 10.9192 9.63993 11.6978 10.0543C12.1624 10.3055 12.5141 10.6571 12.7652 11.1218C13.1671 11.8627 13.569 12.5911 13.9708 13.3195C14.0462 13.4576 14.0964 13.6083 14.2094 13.7088C14.3224 13.646 14.3476 13.5204 14.4104 13.4325C14.8248 12.6916 15.2266 11.9506 15.6285 11.1971C15.9048 10.6697 16.2941 10.2804 16.8215 10.0041C17.6755 9.55202 18.5043 9.08737 19.3457 8.62272C19.2829 8.49714 19.1824 8.47202 19.082 8.42179C18.3285 8.00737 17.5876 7.59295 16.8215 7.19109C16.2815 6.91482 15.8797 6.51296 15.6034 5.97296C15.2141 5.21947 14.7997 4.47854 14.3852 3.73761C14.335 3.63715 14.3099 3.52412 14.1717 3.46133C13.6945 4.32784 13.2299 5.18179 12.7652 6.04831C12.5141 6.52551 12.1499 6.8897 11.6727 7.14086C10.9945 7.50505 10.3164 7.88179 9.63826 8.25853C9.46245 8.359 9.27408 8.47202 9.04803 8.5976Z" fill="#273D8F" stroke="#273D8F"/>
<path d="M7.70701 39C6.85504 38.9766 6.21315 38.6032 5.793 37.8446C5.34951 37.051 4.9177 36.2573 4.49755 35.4637C4.41585 35.3237 4.32249 35.2186 4.17077 35.1486C3.41217 34.7401 2.65357 34.32 1.89497 33.9115C1.10136 33.4914 0.657867 32.8378 0.657867 31.9275C0.657867 31.0288 1.11303 30.387 1.89497 29.9668C2.65357 29.5583 3.41217 29.1382 4.17077 28.7297C4.31082 28.648 4.41585 28.5546 4.48588 28.4146C4.90602 27.6443 5.32617 26.8857 5.74632 26.1155C6.17814 25.3102 6.8317 24.8784 7.71868 24.8784C8.59398 24.8784 9.24755 25.3102 9.66769 26.0921C10.0878 26.8624 10.508 27.621 10.9281 28.3913C11.0098 28.543 11.1149 28.648 11.2666 28.7297C12.0369 29.1499 12.7955 29.57 13.5657 29.9901C14.3477 30.4103 14.7678 31.0639 14.7678 31.9392C14.7678 32.8145 14.336 33.468 13.5657 33.8882C12.8071 34.2967 12.0485 34.7168 11.2899 35.1253C11.1149 35.2186 10.9982 35.3354 10.9048 35.4987C10.4846 36.2807 10.0645 37.051 9.63268 37.8212C9.22421 38.5915 8.58231 38.9766 7.70701 39ZM2.91032 31.9392C3.0387 32.0092 3.13207 32.0675 3.22543 32.1142C3.93735 32.511 4.64927 32.9078 5.37285 33.293C5.80467 33.5264 6.13145 33.8532 6.36487 34.285C6.73833 34.9736 7.1118 35.6505 7.48526 36.3274C7.55529 36.4558 7.60197 36.5958 7.70701 36.6892C7.81204 36.6308 7.83538 36.5141 7.89374 36.4324C8.27887 35.7438 8.65234 35.0553 9.0258 34.355C9.28256 33.8648 9.64435 33.503 10.1345 33.2463C10.9281 32.8261 11.6984 32.3943 12.4803 31.9625C12.422 31.8458 12.3286 31.8225 12.2353 31.7758C11.535 31.3906 10.8464 31.0055 10.1345 30.632C9.63268 30.3753 9.25922 30.0018 9.00246 29.5C8.64067 28.7997 8.25553 28.1112 7.8704 27.4226C7.82371 27.3292 7.80037 27.2242 7.67199 27.1658C7.22851 27.9711 6.79669 28.7647 6.36487 29.57C6.13145 30.0135 5.793 30.3519 5.34951 30.5854C4.71929 30.9238 4.08907 31.2739 3.45885 31.6241C3.29546 31.7174 3.1204 31.8225 2.91032 31.9392Z" fill="#273D8F" stroke="#273D8F"/>
</svg>
