<svg width="235" height="123" viewBox="0 0 235 123" fill="none" xmlns="http://www.w3.org/2000/svg">
<path d="M121.539 15.7726L122.983 27.6868C123.128 28.7699 124.283 29.3476 125.222 28.6977L134.176 22.7767C135.042 22.199 135.042 20.8271 134.103 20.3216L123.706 14.3284C122.695 13.7507 121.395 14.6172 121.539 15.7726Z" fill="#F27278"/>
<path d="M153.888 16.0606L150.856 27.5416C150.639 28.6247 149.339 29.058 148.473 28.4081L140.458 22.4871C139.591 21.8372 139.736 20.4653 140.674 20.032L151.722 14.5442C152.877 13.8944 154.177 14.8331 153.888 16.0606Z" fill="#F27278"/>
<path d="M124.428 83.3582C118.434 86.1743 110.925 88.5572 104.498 85.6689C98.8662 83.1416 94.4615 79.2424 88.4683 77.2928C77.2761 73.6102 66.0839 75.8487 54.8196 77.7983C52.9422 77.9427 51.0648 78.1593 49.2596 78.3037C42.4721 78.4481 46.3713 78.3037 41.0279 78.1593C37.7064 78.0871 30.9189 76.8596 28.175 75.5598C25.07 74.1157 22.3262 72.0939 20.0877 69.5666C17.7771 67.0393 15.9719 64.0788 14.6722 60.6851C14.1667 59.3131 13.7335 57.9412 13.3724 56.5692C12.5059 53.2477 12.2893 49.7817 12.5059 46.3158C12.5781 44.5828 12.7226 42.7776 12.867 40.828C13.1558 37.4342 13.5168 33.9683 13.8779 30.5023C14.2389 27.0363 14.6722 23.6426 15.1054 20.321C15.5386 17.0717 15.9719 14.1112 16.3329 11.4395C16.4773 10.3564 16.7662 8.479 17.055 6.74601C17.4882 3.92992 15.8275 1.18603 13.0836 0.319542C9.68983 -0.835779 6.15166 1.25824 5.5018 4.7242C4.92414 7.90134 4.27427 11.4395 3.91323 13.3891C3.19115 17.3605 2.54129 21.693 1.89142 26.4587C1.24155 31.2244 0.736097 35.9179 0.447267 40.6114C0.158437 45.3048 0.158437 49.7817 0.447267 54.042C0.736097 58.3022 1.45817 61.9126 2.6857 64.8009C4.20206 68.6279 6.15166 72.0939 8.67893 75.1988C11.134 78.3037 14.0223 80.9032 17.1994 83.0694C20.4488 85.2356 23.9147 86.8964 27.5973 88.0517C30.8466 89.0626 46.3713 92.0954 65.1452 87.5463C68.7556 86.6798 72.5104 86.4632 76.193 86.6076C83.7026 86.8964 89.6236 89.8569 95.8334 93.8283C106.881 100.832 119.012 98.594 130.276 93.2507C136.847 90.1457 131.071 80.2533 124.428 83.3582Z" fill="#F27278"/>
<path d="M111.864 58.8801C109.914 56.0641 107.964 53.1758 106.015 50.2874C105.726 49.782 105.726 49.1321 106.087 48.6989C107.459 46.7493 108.831 44.7997 110.203 42.9223C111.719 40.7561 113.091 38.8787 114.319 37.2179C114.607 36.8568 114.896 36.4958 115.185 36.0626C116.99 33.6797 116.557 30.286 114.174 28.4808C111.575 26.459 107.82 26.9644 105.798 29.5639C104.643 31.0802 103.487 32.5966 102.982 33.3187C102.043 34.5462 101.105 35.8459 100.166 37.2179C99.5882 38.0122 98.4329 38.0122 97.9275 37.2179C96.6277 35.4127 95.328 33.5353 94.0283 31.7301C93.4506 30.9358 92.0787 28.914 91.501 28.1197C89.768 25.6647 86.7353 25.3758 83.9192 26.3867C82.8361 26.7478 81.4642 28.3364 81.1031 28.9862C80.8865 29.3473 71.5717 46.316 70.7774 47.4714C69.9832 48.6989 69.1167 49.8542 68.178 51.0095C67.2393 52.1648 66.3728 53.1758 65.5785 53.8978C64.7842 54.6921 64.0621 55.1254 63.4845 55.1254C62.8346 55.1976 62.4736 54.6921 62.2569 53.609C62.0403 52.3815 61.9681 50.5041 62.0403 48.049C62.1125 45.594 62.2569 42.9223 62.4736 40.2506C62.618 39.0231 62.8346 36.2792 63.0512 33.5353C63.3401 29.8527 60.4518 26.6756 56.697 26.6034H56.4803C53.0144 26.6034 50.1261 29.4195 50.0539 32.8854C50.0539 33.9685 50.0539 34.9794 49.9817 35.9181C49.9095 38.4454 49.9817 41.1171 49.9817 43.9332C49.9817 45.0885 49.8372 46.2438 49.404 47.3269C49.1152 48.049 48.7541 48.7711 48.3209 49.421C47.4544 50.7929 46.5157 51.9482 45.5048 52.8869C44.4939 53.8978 43.3386 54.5477 42.0388 54.9809C40.7391 55.4142 39.5116 55.342 38.3562 54.7643C36.9121 54.0422 35.9012 52.5981 35.3235 50.5041C34.7459 48.4101 34.457 46.1716 34.3848 43.7166C34.3126 41.2615 34.457 38.8787 34.7459 36.6402C34.8903 35.5571 35.2513 33.2465 35.6846 30.9358C36.2622 27.5421 34.0238 24.3649 30.63 23.7873H30.4856C27.0919 23.2096 23.8425 25.5203 23.3371 28.914C23.0482 30.5026 22.8316 31.9467 22.8316 32.3078C22.5428 34.7628 22.3262 37.4345 22.254 40.1784C22.1095 44.222 22.3984 48.049 23.2649 51.8038C24.1314 55.4864 25.1423 59.0246 27.4529 61.8407C30.1246 65.09 32.5796 66.6786 36.6233 67.7617C40.3059 68.7726 43.9884 68.6282 46.5157 67.6173C48.5375 66.823 50.2705 65.6677 51.7869 64.1513C52.4367 63.5014 53.4476 63.6458 53.8809 64.3679C54.0975 64.6568 54.3141 65.0178 54.6029 65.3066C57.5635 68.3393 60.4518 69.5669 63.4123 69.0614C66.3728 68.556 69.1889 67.0396 71.7883 64.5123C74.3878 61.9851 76.8429 58.8079 79.1535 55.0532C79.8756 53.8978 82.6195 48.9155 85.2189 44.0776C85.7244 43.1389 87.0241 43.1389 87.6018 44.0054C87.8184 44.3664 88.035 44.6553 88.1795 45.0163C88.9737 46.316 89.768 47.688 90.5623 48.9877C90.8511 49.421 90.8511 50.0708 90.4901 50.5041C88.6849 53.1035 85.7966 57.2194 84.4247 59.3134C84.3525 59.4578 84.2803 59.6022 84.1358 59.7466C82.0418 63.0682 82.7639 67.184 85.4356 68.6282L86.3743 69.0614C91.3566 70.8666 94.0283 66.1731 94.3893 65.5232C94.7503 64.8734 95.8335 63.357 96.7 62.0573C97.2776 61.263 98.4329 61.263 99.0106 62.1295C100.816 64.8734 102.549 67.3284 104.354 69.4947C106.304 71.9497 109.842 72.4552 112.441 70.7222L112.586 70.65C115.546 68.7004 116.196 64.6568 113.958 61.9129C113.38 60.9742 112.586 59.9633 111.864 58.8801Z" fill="#273D8F"/>
<path d="M232.306 43.7168L232.234 43.6446C229.851 42.2727 226.818 43.1392 225.518 45.5942C225.157 46.2441 224.868 46.8218 224.652 47.255C223.857 48.7714 222.991 50.3599 222.052 51.9485C221.114 53.5371 220.247 54.9812 219.381 56.0643C218.514 57.2196 216.853 57.5085 216.492 53.3204C216.348 51.5152 216.203 49.4212 216.203 47.0384C216.203 44.5833 216.276 41.9838 216.492 39.0233C216.637 36.4961 216.926 33.8966 217.214 31.2971C217.287 30.6473 217.864 30.0696 218.514 30.0696C219.092 30.0696 219.525 29.9974 219.886 29.9974C220.03 29.9974 220.753 29.9252 221.691 29.9252C224.507 29.7808 226.674 27.4701 226.674 24.654V24.5096C226.674 21.5491 224.146 19.1663 221.186 19.3107C220.825 19.3107 220.536 19.3107 220.464 19.3829C220.103 19.4551 218.225 20.1772 218.947 16.4224C219.236 14.9782 219.381 13.4619 219.597 11.8733C219.669 11.44 219.742 10.7902 219.886 10.0681C220.392 6.96318 218.225 4.07487 215.12 3.64163C212.088 3.20838 209.272 5.37461 208.838 8.40733C208.694 9.63486 208.477 10.6458 208.405 11.2956C208.116 13.0286 207.827 14.6894 207.611 16.3502C207.466 17.3611 207.322 18.1554 207.25 18.8052C207.178 19.4551 206.6 19.9605 205.878 19.9605C205.3 19.9605 204.795 19.9605 204.65 19.9605C202.051 19.9605 199.09 21.9824 199.09 24.5096V25.5205C199.09 28.0478 201.473 30.0696 203.928 30.1418L205.083 30.214C206.311 30.3584 205.445 35.9906 205.228 40.2509C205.156 41.7672 204.506 42.4893 204.289 42.8503C204.145 43.1392 203.928 43.428 203.784 43.7168C203.639 44.0057 203.423 44.2945 203.278 44.5833C203.134 44.8722 202.773 45.4498 202.267 46.3163C201.762 47.1828 201.184 48.1937 200.462 49.2768C199.74 50.3599 198.946 51.443 198.152 52.5262C197.285 53.6093 196.491 54.4758 195.769 55.1978C195.047 55.9199 194.397 56.2809 193.819 56.3532C193.241 56.4254 192.88 55.9921 192.664 54.9812C192.447 53.8981 192.375 52.1651 192.447 49.9267C192.519 47.6882 192.592 45.3054 192.808 42.8503C193.025 40.3953 193.241 38.0846 193.386 35.9184C193.53 33.7522 193.675 32.1636 193.747 31.2249C193.747 30.7917 193.602 30.5028 193.241 30.3584C192.953 30.214 192.592 30.0696 192.158 29.9974C191.436 29.853 190.859 29.9252 190.353 29.9974C189.559 30.1418 188.62 29.9252 188.043 29.3475C184.649 26.2426 180.894 24.5096 176.85 24.2208C172.373 23.932 168.113 25.5927 164.214 29.3475C162.409 31.0083 161.037 32.8857 159.954 34.9797C158.943 37.0737 158.149 39.3122 157.643 41.6228C157.354 42.7781 157.21 43.9335 157.065 45.161C156.993 45.3054 156.921 45.4498 156.849 45.5942C154.394 50.2877 151.794 53.7537 148.906 55.8477C146.018 58.0139 143.274 58.9526 140.602 58.8804C139.23 58.8804 137.858 58.5194 136.486 57.7251C135.114 56.9308 133.887 55.9199 132.804 54.6924C131.721 53.4649 130.782 52.0929 130.06 50.5043C129.338 48.988 128.905 47.3994 128.832 45.8831C128.616 44.1501 128.76 42.4171 129.121 40.7563C130.06 36.4961 132.154 33.9688 133.237 33.1745C134.32 32.308 135.403 31.8026 136.559 31.586C137.714 31.3693 138.797 31.4415 139.736 31.947C140.674 32.3802 141.324 33.4634 141.613 35.1241C141.902 36.9293 142.696 38.0846 143.996 38.6623C145.296 39.1678 146.595 39.24 147.967 38.8789C149.267 38.4457 150.422 37.6514 151.433 36.4961C152.372 35.3408 152.733 33.8244 152.444 32.0192C151.867 28.481 150.422 25.8094 148.184 24.0042C145.945 22.199 143.418 21.1159 140.602 20.7548C137.786 20.3938 134.898 20.7548 131.865 21.6935C128.832 22.6322 126.305 24.1486 124.139 26.1704C122.045 28.12 120.384 30.4306 119.301 33.1023C118.218 35.774 117.568 38.5901 117.351 41.4784C117.135 44.3667 117.351 47.255 117.929 50.1433C118.507 53.0316 119.445 55.7033 120.745 58.0861C121.756 59.8913 122.839 61.5521 124.139 63.1407C125.439 64.7292 126.955 66.1012 128.616 67.2565C130.349 68.4118 132.298 69.3505 134.537 70.0004C136.775 70.6503 139.302 70.9391 142.118 70.8669C145.584 70.7947 148.689 69.9282 151.361 68.1952C154.033 66.4622 156.343 64.3682 158.293 61.9131C159.159 60.83 160.026 61.6965 160.459 62.202C161.831 63.9349 163.42 65.2347 165.297 66.1012C167.175 66.9677 169.196 67.2565 171.435 67.0399C173.673 66.8233 175.767 65.9568 177.789 64.4404C178.728 63.7183 179.594 62.9962 180.461 62.202C180.75 61.9131 180.966 61.6965 181.255 61.4077C181.977 60.6856 183.205 60.9744 183.493 61.9131C183.999 63.4295 184.721 64.7292 185.587 65.7401C188.259 68.484 190.859 69.6394 193.602 69.1339C196.274 68.7007 198.801 67.3287 201.184 65.0181C202.34 63.9349 203.423 62.7074 204.506 61.3355C205.156 60.469 206.528 60.6856 206.889 61.6965C207.539 63.6461 208.405 65.5957 209.272 66.751C211.51 69.856 214.398 71.1557 216.926 70.578C219.453 70.0004 221.33 68.3396 223.785 65.8123C226.24 63.2851 228.479 60.1079 230.573 56.4976C231.8 54.3313 232.883 52.2373 233.894 50.2877C235.266 47.7604 234.472 45.0166 232.306 43.7168ZM174.684 51.7319C174.179 52.4539 173.529 53.176 172.807 53.8981C172.085 54.6202 170.207 55.9921 169.269 53.8981C169.052 53.3926 168.907 52.8872 168.763 52.3817C168.619 51.8763 168.546 51.5152 168.546 51.3708C168.258 49.2046 168.33 47.1106 168.763 45.0888C169.196 43.067 169.991 41.0452 171.074 39.1678C172.229 37.0737 173.601 35.9184 175.117 35.6296C175.117 35.6296 175.117 35.6296 175.19 35.6296C177.645 35.2685 179.811 37.4348 179.522 39.8898C179.017 44.0779 177.428 48.0493 174.684 51.7319Z" fill="#273D8F"/>
<path d="M33.3739 117.801C32.2186 116.646 31.7131 115.274 31.7131 113.613C31.7131 111.952 32.2908 110.508 33.3739 109.425C34.5292 108.27 35.9734 107.692 37.7064 107.692C39.2227 107.692 40.5225 108.053 41.5334 108.847C41.8944 109.064 42.0388 109.425 42.0388 109.858C42.0388 110.219 41.8944 110.508 41.6778 110.725C41.4612 110.941 41.1723 111.086 40.8113 111.086C40.5947 111.086 40.3058 111.013 40.017 110.869C39.2949 110.291 38.5006 110.075 37.6342 110.075C36.6955 110.075 35.9012 110.436 35.2513 111.158C34.6014 111.88 34.3126 112.674 34.3126 113.685C34.3126 114.696 34.6014 115.563 35.2513 116.212C35.9012 116.934 36.6955 117.296 37.6342 117.296C38.5729 117.296 39.3671 117.007 40.1614 116.357C40.378 116.14 40.6669 116.068 40.9557 116.068C41.2445 116.068 41.5334 116.212 41.8222 116.429C42.0388 116.646 42.1832 116.934 42.1832 117.223C42.1832 117.584 42.0388 117.873 41.75 118.162C40.6669 119.101 39.2949 119.606 37.6342 119.606C35.9012 119.534 34.5292 118.956 33.3739 117.801Z" fill="#273D8F"/>
<path d="M44.4939 118.812C43.9162 118.307 43.6274 117.657 43.6274 116.79C43.6274 115.852 43.9884 115.129 44.6383 114.696C45.2882 114.263 46.1547 113.974 47.2378 113.974C47.9598 113.974 48.6819 114.119 49.404 114.335V114.191C49.404 113.108 48.7541 112.602 47.5266 112.602C46.8767 112.602 46.2991 112.674 45.7936 112.819C45.6492 112.891 45.5048 112.891 45.4326 112.891C45.1437 112.891 44.9271 112.819 44.7105 112.602C44.4939 112.386 44.4217 112.169 44.4217 111.88C44.4217 111.375 44.6383 111.086 45.0715 110.941C45.8658 110.653 46.8045 110.508 47.8876 110.508C49.1874 110.508 50.1983 110.869 50.8481 111.519C51.498 112.169 51.7868 113.108 51.7868 114.335V118.379C51.7868 118.74 51.6424 119.029 51.4258 119.245C51.2092 119.462 50.9204 119.606 50.5593 119.606C50.1983 119.606 49.9094 119.462 49.6928 119.245C49.4762 119.029 49.3318 118.812 49.3318 118.523C48.6819 119.245 47.7432 119.679 46.6601 119.679C45.7214 119.534 45.0715 119.245 44.4939 118.812ZM48.8263 117.368C49.1874 117.079 49.404 116.718 49.404 116.213V115.779C48.8985 115.563 48.3931 115.418 47.8154 115.418C46.6601 115.418 46.0824 115.852 46.0824 116.646C46.0824 117.368 46.5157 117.729 47.4544 117.729C47.9598 117.801 48.4653 117.657 48.8263 117.368ZM47.2378 109.208C47.2378 109.064 47.31 108.92 47.3822 108.775L48.3209 107.331C48.5375 106.97 48.8985 106.753 49.2596 106.753C49.5484 106.753 49.9094 106.826 50.1983 106.97C50.4871 107.114 50.7037 107.331 50.7037 107.475C50.7037 107.692 50.5593 107.837 50.3427 108.053L49.3318 108.992C48.9707 109.353 48.4653 109.57 47.8876 109.57C47.4544 109.642 47.2378 109.497 47.2378 109.208Z" fill="#273D8F"/>
<path d="M54.2419 116.863V112.675H54.1697C53.8809 112.675 53.592 112.603 53.3754 112.386C53.1588 112.17 53.0866 111.953 53.0866 111.592C53.0866 111.303 53.1588 111.014 53.3754 110.798C53.592 110.581 53.8086 110.509 54.1697 110.509H54.2419V109.426C54.2419 109.065 54.3863 108.776 54.6029 108.559C54.8918 108.343 55.1806 108.198 55.4694 108.198C55.8305 108.198 56.1193 108.343 56.3359 108.559C56.5525 108.776 56.6969 109.065 56.6969 109.426V110.509H57.7801C58.0689 110.509 58.3577 110.581 58.5743 110.798C58.791 111.014 58.8632 111.231 58.8632 111.592C58.8632 111.881 58.791 112.17 58.5743 112.386C58.3577 112.603 58.1411 112.675 57.7801 112.675H56.6969V116.43C56.6969 117.008 56.9858 117.296 57.4912 117.296H57.7801C58.0689 117.296 58.2855 117.369 58.5021 117.585C58.7188 117.802 58.791 118.018 58.791 118.307C58.791 118.741 58.5743 119.102 58.1411 119.246C57.7079 119.39 57.2746 119.463 56.6969 119.463C55.0362 119.463 54.2419 118.596 54.2419 116.863Z" fill="#273D8F"/>
<path d="M65.5785 111.664C65.5785 111.303 65.7229 111.015 65.9395 110.798C66.2284 110.581 66.5172 110.437 66.806 110.437C67.1671 110.437 67.4559 110.581 67.6725 110.798C67.8891 111.015 68.0335 111.303 68.0335 111.664V111.737C68.7556 110.798 69.6221 110.292 70.633 110.292C71.7883 110.292 72.6548 110.726 73.0881 111.664C73.8824 110.726 74.8933 110.292 75.9764 110.292C76.9151 110.292 77.6372 110.581 78.1426 111.087C78.6481 111.664 78.9369 112.459 78.9369 113.542V118.163C78.9369 118.524 78.7925 118.813 78.5758 119.03C78.3592 119.246 78.0704 119.391 77.7094 119.391C77.3483 119.391 77.0595 119.246 76.8429 119.03C76.6262 118.813 76.4818 118.452 76.4818 118.163V114.408C76.4818 113.181 75.9764 112.603 75.0377 112.603C74.0268 112.603 73.5213 113.181 73.5213 114.408V118.163C73.5213 118.524 73.3769 118.813 73.1603 119.03C72.9437 119.246 72.6548 119.391 72.2938 119.391C71.9328 119.391 71.6439 119.246 71.4273 119.03C71.2107 118.813 71.0663 118.452 71.0663 118.163V114.408C71.0663 113.181 70.5608 112.603 69.6221 112.603C68.6112 112.603 68.1058 113.181 68.1058 114.408V118.163C68.1058 118.524 67.9613 118.813 67.7447 119.03C67.5281 119.246 67.2393 119.391 66.8782 119.391C66.5172 119.391 66.2284 119.246 66.0117 119.03C65.7951 118.813 65.6507 118.452 65.6507 118.163V111.664H65.5785Z" fill="#273D8F"/>
<path d="M81.1753 121.556C81.1753 121.195 81.3197 120.834 81.6086 120.545C81.8974 120.256 82.1862 120.184 82.6195 120.184C83.0527 120.184 83.3415 120.328 83.6304 120.545C83.9192 120.834 84.0636 121.123 84.0636 121.556C84.0636 121.917 83.9192 122.278 83.6304 122.567C83.3415 122.856 82.9805 123 82.6195 123C82.2584 123 81.8974 122.856 81.6086 122.567C81.3197 122.278 81.1753 121.989 81.1753 121.556ZM81.2475 108.414C81.2475 108.053 81.3919 107.764 81.6808 107.548C81.9696 107.331 82.2584 107.259 82.6917 107.259C83.1249 107.259 83.4138 107.331 83.7026 107.548C83.9914 107.764 84.0636 108.053 84.0636 108.414C84.0636 108.775 83.9192 109.064 83.7026 109.281C83.4138 109.497 83.1249 109.642 82.6917 109.642C82.2584 109.642 81.9696 109.497 81.6808 109.281C81.3919 109.064 81.2475 108.775 81.2475 108.414ZM81.3919 111.663C81.3919 111.302 81.5364 111.014 81.753 110.797C82.0418 110.58 82.3306 110.436 82.6195 110.436C82.9805 110.436 83.2693 110.58 83.486 110.797C83.7026 111.014 83.847 111.302 83.847 111.663V118.162C83.847 118.523 83.7026 118.812 83.486 119.029C83.2693 119.245 82.9805 119.39 82.6195 119.39C82.2584 119.39 81.9696 119.245 81.753 119.029C81.5364 118.812 81.3919 118.451 81.3919 118.162V111.663Z" fill="#273D8F"/>
<path d="M86.2298 111.664C86.2298 111.303 86.3743 111.015 86.5909 110.798C86.8797 110.581 87.1685 110.437 87.4574 110.437C87.8184 110.437 88.1072 110.581 88.3239 110.798C88.5405 111.015 88.6849 111.303 88.6849 111.664V111.737C89.407 110.798 90.2735 110.292 91.2844 110.292C92.2231 110.292 92.9451 110.581 93.5228 111.159C94.0283 111.737 94.3171 112.531 94.3171 113.542V118.091C94.3171 118.452 94.1727 118.741 93.9561 118.957C93.7394 119.174 93.4506 119.318 93.0896 119.318C92.7285 119.318 92.4397 119.174 92.2231 118.957C92.0065 118.741 91.862 118.38 91.862 118.091V114.336C91.862 113.109 91.3566 112.531 90.3457 112.531C89.3348 112.531 88.7571 113.109 88.7571 114.336V118.091C88.7571 118.452 88.6127 118.741 88.3961 118.957C88.1794 119.174 87.8906 119.318 87.5296 119.318C87.1685 119.318 86.8797 119.174 86.6631 118.957C86.4465 118.741 86.302 118.38 86.302 118.091V111.664H86.2298Z" fill="#273D8F"/>
<path d="M102.332 118.235C101.466 117.368 101.032 116.285 101.032 114.986C101.032 113.686 101.466 112.603 102.332 111.736C103.199 110.87 104.354 110.364 105.654 110.364C106.881 110.364 107.892 110.725 108.686 111.375C108.975 111.592 109.047 111.881 109.047 112.242C109.047 112.53 108.903 112.819 108.686 113.036C108.47 113.253 108.181 113.397 107.892 113.397C107.603 113.397 107.387 113.325 107.17 113.18C106.665 112.819 106.159 112.603 105.581 112.603C104.932 112.603 104.426 112.819 104.065 113.325C103.632 113.83 103.487 114.336 103.487 115.058C103.487 115.78 103.704 116.357 104.065 116.791C104.498 117.296 105.004 117.513 105.726 117.513C106.304 117.513 106.881 117.296 107.387 116.935C107.603 116.791 107.82 116.719 108.037 116.719C108.325 116.719 108.614 116.791 108.831 117.007C109.047 117.224 109.12 117.441 109.12 117.802C109.12 118.09 108.975 118.379 108.759 118.596C107.892 119.39 106.881 119.751 105.654 119.751C104.282 119.535 103.199 119.101 102.332 118.235Z" fill="#273D8F"/>
<path d="M110.853 108.486C110.853 108.125 110.997 107.836 111.214 107.62C111.502 107.403 111.791 107.259 112.08 107.259C112.441 107.259 112.73 107.403 112.947 107.62C113.163 107.836 113.308 108.125 113.308 108.486V111.808C114.03 110.869 114.896 110.364 115.907 110.364C116.846 110.364 117.568 110.653 118.146 111.23C118.651 111.808 118.94 112.602 118.94 113.613V118.162C118.94 118.523 118.795 118.812 118.579 119.029C118.362 119.245 118.073 119.39 117.712 119.39C117.351 119.39 117.062 119.245 116.846 119.029C116.629 118.812 116.485 118.451 116.485 118.162V114.407C116.485 113.18 115.979 112.602 114.968 112.602C113.958 112.602 113.38 113.18 113.38 114.407V118.162C113.38 118.523 113.235 118.812 113.019 119.029C112.802 119.245 112.513 119.39 112.152 119.39C111.791 119.39 111.502 119.245 111.286 119.029C111.069 118.812 110.925 118.451 110.925 118.162V108.486H110.853Z" fill="#273D8F"/>
<path d="M122.045 118.235C121.178 117.368 120.673 116.285 120.673 114.986C120.673 113.686 121.106 112.603 122.045 111.736C122.983 110.87 124.139 110.364 125.511 110.364C126.883 110.364 128.038 110.798 128.905 111.664C129.771 112.53 130.276 113.614 130.276 114.913C130.276 116.213 129.843 117.296 128.905 118.163C127.966 119.029 126.81 119.535 125.439 119.535C124.139 119.535 122.983 119.101 122.045 118.235ZM127.244 116.646C127.677 116.213 127.821 115.635 127.821 114.913C127.821 114.263 127.605 113.686 127.172 113.18C126.738 112.675 126.161 112.458 125.511 112.458C124.789 112.458 124.283 112.675 123.85 113.18C123.417 113.614 123.272 114.191 123.272 114.913C123.272 115.563 123.489 116.141 123.922 116.646C124.355 117.152 124.933 117.368 125.583 117.368C126.233 117.368 126.81 117.152 127.244 116.646Z" fill="#273D8F"/>
<path d="M137.064 108.486C137.064 108.125 137.208 107.836 137.425 107.62C137.714 107.403 138.003 107.259 138.291 107.259C138.653 107.259 138.941 107.403 139.158 107.62C139.375 107.836 139.519 108.125 139.519 108.486V111.808C140.241 110.869 141.108 110.364 142.263 110.364C143.346 110.364 144.285 110.725 145.079 111.519C145.873 112.386 146.307 113.541 146.307 114.913C146.307 116.285 145.873 117.44 145.079 118.307C144.285 119.101 143.418 119.462 142.263 119.462C141.18 119.462 140.241 119.029 139.519 118.162C139.519 118.523 139.375 118.812 139.158 119.029C138.869 119.245 138.58 119.39 138.291 119.39C137.93 119.39 137.642 119.245 137.425 119.029C137.208 118.812 137.064 118.451 137.064 118.162V108.486ZM143.202 116.718C143.635 116.285 143.851 115.635 143.851 114.913C143.851 114.191 143.635 113.613 143.202 113.18C142.768 112.747 142.263 112.53 141.685 112.53C141.108 112.53 140.602 112.747 140.169 113.18C139.736 113.613 139.519 114.263 139.519 114.913C139.519 115.635 139.736 116.213 140.169 116.646C140.602 117.079 141.108 117.296 141.685 117.296C142.263 117.368 142.768 117.151 143.202 116.718Z" fill="#273D8F"/>
<path d="M149.123 118.235C148.256 117.368 147.751 116.285 147.751 114.986C147.751 113.686 148.184 112.603 149.123 111.736C150.061 110.87 151.217 110.364 152.589 110.364C153.961 110.364 155.116 110.798 155.982 111.664C156.849 112.53 157.354 113.614 157.354 114.913C157.354 116.213 156.921 117.296 155.982 118.163C155.044 119.029 153.888 119.535 152.516 119.535C151.144 119.535 149.989 119.101 149.123 118.235ZM154.249 116.646C154.683 116.213 154.827 115.635 154.827 114.913C154.827 114.263 154.61 113.686 154.177 113.18C153.744 112.675 153.166 112.458 152.516 112.458C151.794 112.458 151.289 112.675 150.856 113.18C150.422 113.614 150.278 114.191 150.278 114.913C150.278 115.563 150.495 116.141 150.928 116.646C151.361 117.152 151.939 117.368 152.589 117.368C153.238 117.368 153.816 117.152 154.249 116.646Z" fill="#273D8F"/>
<path d="M158.943 118.523C158.654 118.307 158.437 118.018 158.437 117.657C158.437 117.368 158.51 117.151 158.726 116.935C158.943 116.718 159.159 116.646 159.448 116.646C159.665 116.646 159.809 116.718 159.954 116.79C160.82 117.296 161.615 117.585 162.337 117.585C163.059 117.585 163.42 117.368 163.42 116.935C163.42 116.718 163.203 116.501 162.842 116.357C162.698 116.285 162.264 116.14 161.542 115.924C159.809 115.418 158.871 114.552 158.871 113.252C158.871 112.386 159.159 111.664 159.809 111.158C160.387 110.653 161.181 110.436 162.12 110.436C163.059 110.436 163.925 110.653 164.864 111.086C165.225 111.303 165.442 111.591 165.442 112.025C165.442 112.313 165.369 112.53 165.153 112.747C164.936 112.963 164.719 113.036 164.431 113.036C164.286 113.036 164.142 112.963 163.997 112.891C163.203 112.53 162.625 112.313 162.12 112.313C161.47 112.313 161.181 112.53 161.181 112.891C161.181 113.108 161.398 113.324 161.759 113.469C161.903 113.541 162.337 113.685 162.986 113.902C163.781 114.191 164.431 114.48 164.792 114.768C165.369 115.202 165.658 115.852 165.658 116.501C165.658 117.44 165.369 118.162 164.719 118.668C164.142 119.101 163.348 119.39 162.337 119.39C161.037 119.534 159.954 119.173 158.943 118.523Z" fill="#273D8F"/>
<path d="M167.03 118.523C166.741 118.307 166.525 118.018 166.525 117.657C166.525 117.368 166.597 117.151 166.813 116.935C167.03 116.718 167.247 116.646 167.536 116.646C167.752 116.646 167.897 116.718 168.041 116.79C168.908 117.296 169.702 117.585 170.424 117.585C171.146 117.585 171.507 117.368 171.507 116.935C171.507 116.718 171.29 116.501 170.929 116.357C170.785 116.285 170.352 116.14 169.63 115.924C167.897 115.418 166.958 114.552 166.958 113.252C166.958 112.386 167.247 111.664 167.897 111.158C168.474 110.653 169.269 110.436 170.207 110.436C171.146 110.436 172.012 110.653 172.951 111.086C173.312 111.303 173.529 111.591 173.529 112.025C173.529 112.313 173.457 112.53 173.24 112.747C173.023 112.963 172.807 113.036 172.518 113.036C172.373 113.036 172.229 112.963 172.085 112.891C171.29 112.53 170.713 112.313 170.207 112.313C169.557 112.313 169.269 112.53 169.269 112.891C169.269 113.108 169.485 113.324 169.846 113.469C169.991 113.541 170.424 113.685 171.074 113.902C171.868 114.191 172.518 114.48 172.879 114.768C173.457 115.202 173.745 115.852 173.745 116.501C173.745 117.44 173.457 118.162 172.807 118.668C172.229 119.101 171.435 119.39 170.424 119.39C169.196 119.534 168.041 119.173 167.03 118.523Z" fill="#273D8F"/>
<path d="M180.389 117.513L182.627 114.841L180.533 112.458C180.244 112.169 180.1 111.808 180.1 111.52C180.1 111.159 180.244 110.87 180.461 110.653C180.677 110.436 180.966 110.364 181.255 110.364C181.688 110.364 182.049 110.581 182.41 111.014L184.071 113.18L185.732 111.014C186.093 110.581 186.454 110.364 186.815 110.364C187.176 110.364 187.393 110.436 187.681 110.653C187.898 110.87 188.043 111.086 188.043 111.447C188.043 111.736 187.898 112.025 187.681 112.314L185.515 114.841L187.754 117.368C188.043 117.657 188.187 118.018 188.187 118.307C188.187 118.668 188.042 118.957 187.826 119.174C187.609 119.39 187.32 119.462 187.032 119.462C186.598 119.462 186.237 119.246 185.876 118.813L184.071 116.502L182.266 118.813C181.905 119.246 181.544 119.462 181.183 119.462C180.822 119.462 180.605 119.39 180.389 119.174C180.172 118.957 180.027 118.74 180.027 118.379C180.027 118.09 180.1 117.802 180.389 117.513Z" fill="#273D8F"/>
<path d="M189.848 121.556C189.848 121.195 189.992 120.834 190.281 120.545C190.57 120.256 190.859 120.184 191.292 120.184C191.653 120.184 192.014 120.328 192.303 120.545C192.592 120.834 192.736 121.123 192.736 121.556C192.736 121.917 192.592 122.278 192.303 122.567C192.014 122.856 191.653 123 191.292 123C190.931 123 190.57 122.856 190.281 122.567C189.992 122.278 189.848 121.989 189.848 121.556ZM189.92 108.414C189.92 108.053 190.064 107.764 190.353 107.548C190.57 107.331 190.931 107.259 191.364 107.259C191.797 107.259 192.086 107.331 192.375 107.548C192.664 107.764 192.736 108.053 192.736 108.414C192.736 108.775 192.592 109.064 192.375 109.281C192.086 109.497 191.797 109.642 191.364 109.642C190.931 109.642 190.642 109.497 190.353 109.281C190.064 109.064 189.92 108.775 189.92 108.414ZM190.064 111.663C190.064 111.302 190.209 111.014 190.425 110.797C190.642 110.58 191.003 110.436 191.292 110.436C191.653 110.436 191.942 110.58 192.158 110.797C192.375 111.014 192.519 111.302 192.519 111.663V118.162C192.519 118.523 192.375 118.812 192.158 119.029C191.942 119.245 191.653 119.39 191.292 119.39C190.931 119.39 190.642 119.245 190.425 119.029C190.209 118.812 190.064 118.451 190.064 118.162V111.663Z" fill="#273D8F"/>
<path d="M194.902 111.664C194.902 111.303 195.047 111.015 195.263 110.798C195.48 110.581 195.841 110.437 196.13 110.437C196.491 110.437 196.78 110.581 196.996 110.798C197.213 111.015 197.357 111.303 197.357 111.664V111.737C198.079 110.798 198.946 110.292 199.957 110.292C200.895 110.292 201.618 110.581 202.195 111.159C202.701 111.737 202.989 112.531 202.989 113.542V118.091C202.989 118.452 202.845 118.741 202.628 118.957C202.412 119.174 202.123 119.318 201.762 119.318C201.401 119.318 201.112 119.174 200.895 118.957C200.679 118.741 200.534 118.38 200.534 118.091V114.336C200.534 113.109 200.029 112.531 199.018 112.531C198.007 112.531 197.429 113.109 197.429 114.336V118.091C197.429 118.452 197.285 118.741 197.068 118.957C196.852 119.174 196.563 119.318 196.202 119.318C195.841 119.318 195.552 119.174 195.335 118.957C195.119 118.741 194.974 118.38 194.974 118.091V111.664H194.902Z" fill="#273D8F"/>
</svg>
