<svg width="223" height="94" viewBox="0 0 223 94" fill="none" xmlns="http://www.w3.org/2000/svg">
<path d="M115.437 15.0087L116.811 26.3462C116.948 27.3769 118.048 27.9266 118.941 27.3082L127.461 21.6738C128.286 21.1241 128.286 19.8186 127.393 19.3376L117.498 13.6344C116.536 13.0847 115.299 13.9093 115.437 15.0087Z" fill="#F27278"/>
<path d="M146.22 15.2833L143.334 26.2086C143.128 27.2393 141.891 27.6516 141.067 27.0332L133.439 21.3987C132.615 20.7803 132.752 19.4748 133.646 19.0625L144.159 13.8404C145.258 13.2219 146.495 14.1152 146.22 15.2833Z" fill="#F27278"/>
<path d="M118.185 79.3234C112.482 82.0032 105.336 84.2707 99.2206 81.5222C93.861 79.1173 89.6696 75.4068 83.9664 73.5515C73.316 70.0472 62.6656 72.1773 51.9464 74.0325C50.1599 74.17 48.3734 74.3761 46.6556 74.5135C40.1966 74.6509 43.9071 74.5135 38.8223 74.3761C35.6616 74.3074 29.2026 73.1393 26.5915 71.9025C23.6369 70.5282 21.0258 68.6043 18.8957 66.1993C16.6969 63.7944 14.9791 60.9772 13.7423 57.7477C13.2613 56.4421 12.849 55.1366 12.5055 53.8311C11.6809 50.6703 11.4748 47.3721 11.6809 44.0739C11.7496 42.4248 11.8871 40.707 12.0245 38.8518C12.2993 35.6223 12.6429 32.3241 12.9865 29.0259C13.33 25.7277 13.7423 22.4982 14.1546 19.3374C14.5669 16.2454 14.9791 13.4282 15.3227 10.8858C15.4601 9.85511 15.735 8.06858 16.0098 6.41948C16.4221 3.7397 14.8417 1.12862 12.2306 0.304075C9.00115 -0.795325 5.63424 1.19734 5.01583 4.49553C4.46613 7.51888 3.84771 10.8858 3.50415 12.741C2.81703 16.5202 2.19862 20.643 1.5802 25.178C0.961791 29.713 0.480804 34.1793 0.205954 38.6456C-0.0688955 43.1119 -0.0688955 47.3721 0.205954 51.4261C0.480804 55.4802 1.16793 58.9158 2.33604 61.6643C3.779 65.3061 5.63424 68.6042 8.03917 71.5589C10.3754 74.5135 13.1239 76.9872 16.1472 79.0485C19.2393 81.1099 22.5375 82.6903 26.0418 83.7897C29.1339 84.7517 43.9071 87.6376 61.7723 83.3087C65.2079 82.4842 68.781 82.278 72.2853 82.4155C79.4314 82.6903 85.0658 85.5075 90.9751 89.2867C101.488 95.9518 113.032 93.8217 123.751 88.737C130.004 85.7824 124.507 76.3688 118.185 79.3234Z" fill="#F27278"/>
<path d="M106.229 56.0298C104.374 53.35 102.519 50.6015 100.664 47.853C100.389 47.372 100.389 46.7536 100.732 46.3413C102.038 44.4861 103.343 42.6309 104.649 40.8443C106.092 38.783 107.397 36.9964 108.565 35.416C108.84 35.0725 109.115 34.7289 109.39 34.3166C111.108 32.0491 110.696 28.8196 108.428 27.1018C105.954 25.1779 102.381 25.6589 100.457 28.1325C99.358 29.5755 98.2586 31.0184 97.7776 31.7056C96.8843 32.8737 95.9911 34.1105 95.0978 35.416C94.5481 36.1719 93.4487 36.1719 92.9677 35.416C91.7309 33.6982 90.4941 31.9117 89.2573 30.1939C88.7076 29.4381 87.402 27.5141 86.8523 26.7583C85.2032 24.4221 82.3173 24.1472 79.6375 25.1092C78.6068 25.4527 77.3013 26.9644 76.9577 27.5828C76.7516 27.9264 67.8877 44.0738 67.1318 45.1732C66.376 46.3413 65.5515 47.4407 64.6582 48.5401C63.7649 49.6395 62.9404 50.6015 62.1846 51.2886C61.4287 52.0445 60.7416 52.4567 60.1919 52.4567C59.5735 52.5254 59.2299 52.0445 59.0238 51.0138C58.8176 49.8457 58.7489 48.0591 58.8176 45.7229C58.8864 43.3867 59.0238 40.8443 59.2299 38.302C59.3673 37.1339 59.5735 34.5228 59.7796 31.9117C60.0545 28.4074 57.306 25.384 53.7329 25.3153H53.5268C50.2286 25.3153 47.4801 27.9951 47.4114 31.2933C47.4114 32.324 47.4114 33.286 47.3427 34.1792C47.274 36.5842 47.3427 39.1265 47.3427 41.8063C47.3427 42.9057 47.2052 44.0051 46.793 45.0358C46.5181 45.7229 46.1746 46.41 45.7623 47.0284C44.9377 48.334 44.0445 49.4334 43.0825 50.3266C42.1205 51.2886 41.0211 51.907 39.7843 52.3193C38.5475 52.7316 37.3794 52.6629 36.28 52.1132C34.9057 51.426 33.9437 50.0518 33.394 48.0591C32.8443 46.0665 32.5695 43.9364 32.5008 41.6002C32.4321 39.2639 32.5695 36.9964 32.8443 34.8663C32.9818 33.8357 33.3253 31.6369 33.7376 29.4381C34.2873 26.2086 32.1572 23.1852 28.9277 22.6355H28.7903C25.5608 22.0858 22.4688 24.2846 21.9878 27.5141C21.7129 29.0258 21.5068 30.4 21.5068 30.7436C21.2319 33.0798 21.0258 35.6222 20.9571 38.2333C20.8197 42.0812 21.0945 45.7229 21.9191 49.296C22.7436 52.8003 23.7056 56.1672 25.9044 58.847C28.4467 61.939 30.783 63.4507 34.6309 64.4814C38.1352 65.4434 41.6395 65.306 44.0445 64.344C45.9684 63.5882 47.6175 62.4888 49.0605 61.0458C49.6789 60.4274 50.6409 60.5648 51.0531 61.2519C51.2593 61.5268 51.4654 61.8703 51.7403 62.1452C54.5575 65.0311 57.306 66.1992 60.1232 65.7182C62.9404 65.2372 65.6202 63.7943 68.0938 61.3894C70.5675 58.9844 72.9037 55.9611 75.1025 52.388C75.7896 51.2886 78.4007 46.5475 80.8743 41.9437C81.3553 41.0505 82.5922 41.0505 83.1418 41.875C83.348 42.2186 83.5541 42.4934 83.6916 42.837C84.4474 44.0738 85.2032 45.3794 85.9591 46.6162C86.2339 47.0285 86.2339 47.6469 85.8904 48.0591C84.1725 50.5328 81.424 54.4494 80.1185 56.4421C80.0498 56.5795 79.9811 56.7169 79.8437 56.8543C77.851 60.0151 78.5381 63.9317 81.0805 65.306L81.9737 65.7182C86.7149 67.436 89.2573 62.9697 89.6008 62.3513C89.9444 61.7329 90.9751 60.29 91.7996 59.0531C92.3493 58.2973 93.4487 58.2973 93.9984 59.1218C95.7162 61.7329 97.3653 64.0691 99.0831 66.1305C100.938 68.4667 104.305 68.9477 106.779 67.2986L106.916 67.2299C109.734 65.3747 110.352 61.5268 108.222 58.9157C107.672 58.0224 106.916 57.0605 106.229 56.0298Z" fill="#273D8F"/>
<path d="M220.842 41.6003L220.773 41.5316C218.505 40.2261 215.62 41.0506 214.383 43.3868C214.039 44.0052 213.764 44.5549 213.558 44.9672C212.802 46.4102 211.978 47.9218 211.085 49.4335C210.191 50.9452 209.367 52.3194 208.542 53.3501C207.718 54.4495 206.137 54.7244 205.794 50.7391C205.656 49.0212 205.519 47.0286 205.519 44.7611C205.519 42.4249 205.587 39.9512 205.794 37.134C205.931 34.7291 206.206 32.2554 206.481 29.7818C206.549 29.1633 207.099 28.6136 207.718 28.6136C208.267 28.6136 208.68 28.5449 209.023 28.5449C209.161 28.5449 209.848 28.4762 210.741 28.4762C213.421 28.3388 215.482 26.14 215.482 23.4602V23.3228C215.482 20.5056 213.077 18.2381 210.26 18.3755C209.916 18.3755 209.642 18.3755 209.573 18.4442C209.229 18.5129 207.443 19.2 208.13 15.627C208.405 14.2527 208.542 12.8098 208.748 11.2981C208.817 10.8858 208.886 10.2674 209.023 9.58029C209.504 6.62566 207.443 3.87716 204.488 3.46488C201.602 3.05261 198.922 5.11398 198.51 7.99991C198.373 9.16802 198.167 10.13 198.098 10.7484C197.823 12.3975 197.548 13.9779 197.342 15.5583C197.205 16.5203 197.067 17.2761 196.998 17.8945C196.93 18.5129 196.38 18.9939 195.693 18.9939C195.143 18.9939 194.662 18.9939 194.525 18.9939C192.051 18.9939 189.234 20.9178 189.234 23.3228V24.2848C189.234 26.6897 191.501 28.6136 193.838 28.6824L194.937 28.7511C196.105 28.8885 195.281 34.2481 195.074 38.3021C195.006 39.7451 194.387 40.4322 194.181 40.7758C194.044 41.0506 193.838 41.3255 193.7 41.6003C193.563 41.8751 193.357 42.15 193.219 42.4249C193.082 42.6997 192.738 43.2494 192.257 44.0739C191.776 44.8985 191.227 45.8605 190.539 46.8912C189.852 47.9218 189.097 48.9525 188.341 49.9832C187.516 51.0139 186.76 51.8385 186.073 52.5256C185.386 53.2127 184.768 53.5563 184.218 53.625C183.668 53.6937 183.325 53.2814 183.119 52.3194C182.912 51.2888 182.844 49.6397 182.912 47.5096C182.981 45.3795 183.05 43.112 183.256 40.7758C183.462 38.4395 183.668 36.2407 183.806 34.1794C183.943 32.118 184.08 30.6063 184.149 29.713C184.149 29.3008 184.012 29.0259 183.668 28.8885C183.393 28.7511 183.05 28.6136 182.638 28.5449C181.95 28.4075 181.401 28.4762 180.92 28.5449C180.164 28.6824 179.271 28.4762 178.721 27.9265C175.491 24.9719 171.918 23.3228 168.07 23.0479C163.81 22.7731 159.756 24.3535 156.046 27.9265C154.328 29.5069 153.022 31.2934 151.992 33.2861C151.03 35.2788 150.274 37.4088 149.793 39.6076C149.518 40.707 149.381 41.8064 149.243 42.9745C149.175 43.112 149.106 43.2494 149.037 43.3868C146.701 47.8531 144.227 51.1513 141.479 53.144C138.73 55.2054 136.119 56.0986 133.577 56.0299C132.271 56.0299 130.966 55.6864 129.66 54.9305C128.355 54.1747 127.187 53.2127 126.156 52.0446C125.125 50.8765 124.232 49.5709 123.545 48.0593C122.858 46.6163 122.445 45.1046 122.377 43.6617C122.171 42.0126 122.308 40.3635 122.652 38.7831C123.545 34.7291 125.537 32.3241 126.568 31.5683C127.599 30.7437 128.63 30.2627 129.729 30.0566C130.828 29.8505 131.859 29.9192 132.752 30.4002C133.646 30.8124 134.264 31.8431 134.539 33.4235C134.814 35.1413 135.57 36.2407 136.806 36.7904C138.043 37.2714 139.28 37.3401 140.586 36.9966C141.822 36.5843 142.922 35.8285 143.884 34.7291C144.777 33.6297 145.121 32.1867 144.846 30.4689C144.296 27.102 142.922 24.5596 140.792 22.8418C138.662 21.124 136.257 20.0933 133.577 19.7497C130.897 19.4062 128.149 19.7497 125.263 20.643C122.377 21.5363 119.972 22.9792 117.91 24.9032C115.918 26.7584 114.337 28.9572 113.307 31.4996C112.276 34.0419 111.658 36.7217 111.451 39.4702C111.245 42.2187 111.451 44.9672 112.001 47.7157C112.551 50.4642 113.444 53.0066 114.681 55.2741C115.643 56.9919 116.674 58.5723 117.91 60.084C119.147 61.5956 120.59 62.9012 122.171 64.0006C123.82 65.1 125.675 65.9932 127.805 66.6116C129.935 67.23 132.34 67.5049 135.02 67.4362C138.318 67.3675 141.273 66.5429 143.815 64.8938C146.357 63.2447 148.556 61.2521 150.411 58.9158C151.236 57.8852 152.06 58.7097 152.473 59.1907C153.778 60.8398 155.29 62.0766 157.077 62.9012C158.863 63.7257 160.787 64.0006 162.917 63.7944C165.047 63.5883 167.04 62.7637 168.964 61.3208C169.857 60.6337 170.682 59.9465 171.506 59.1907C171.781 58.9158 171.987 58.7097 172.262 58.4348C172.949 57.7477 174.117 58.0226 174.392 58.9158C174.873 60.3588 175.56 61.5956 176.385 62.5576C178.927 65.1687 181.401 66.2681 184.012 65.7871C186.554 65.3748 188.959 64.0693 191.227 61.8705C192.326 60.8398 193.357 59.6717 194.387 58.3661C195.006 57.5416 196.311 57.7477 196.655 58.7097C197.273 60.5649 198.098 62.4202 198.922 63.5196C201.052 66.4742 203.801 67.711 206.206 67.1613C208.611 66.6116 210.397 65.0312 212.734 62.6263C215.07 60.2214 217.2 57.198 219.193 53.7624C220.361 51.701 221.391 49.7084 222.353 47.8531C223.659 45.4482 222.903 42.8371 220.842 41.6003ZM166.009 49.2274C165.528 49.9145 164.91 50.6016 164.223 51.2888C163.535 51.9759 161.749 53.2814 160.856 51.2888C160.65 50.8078 160.512 50.3268 160.375 49.8458C160.237 49.3648 160.169 49.0212 160.169 48.8838C159.894 46.8224 159.962 44.8298 160.375 42.9058C160.787 40.9819 161.543 39.0579 162.573 37.2714C163.673 35.2788 164.978 34.1794 166.421 33.9045C166.421 33.9045 166.421 33.9045 166.49 33.9045C168.826 33.5609 170.888 35.6223 170.613 37.9585C170.132 41.9439 168.62 45.723 166.009 49.2274Z" fill="#273D8F"/>
</svg>
