<svg width="52" height="47" viewBox="0 0 52 47" fill="none" xmlns="http://www.w3.org/2000/svg">
<path d="M29.3707 22.468C29.3707 16.053 29.3707 9.65991 29.3707 3.24488C29.3707 2.89337 29.3487 2.54186 29.5464 2.23429C29.832 1.81687 30.2275 1.729 30.6888 1.75097C37.7629 1.97066 43.409 4.91454 47.4294 10.7144C55.7338 22.6438 49.3627 39.1647 35.2145 42.5699C33.7206 42.9214 32.2047 43.1411 30.6669 43.1411C29.7661 43.1411 29.3487 42.7676 29.3487 41.8449C29.3487 39.5381 29.3487 37.2314 29.3487 34.9246C29.3707 30.7724 29.3707 26.6202 29.3707 22.468ZM31.5237 22.446C31.5237 24.0937 31.5237 25.7414 31.5237 27.3891C31.5237 27.7626 31.5676 27.9384 32.0289 27.9384C34.2259 27.9164 36.4228 27.9164 38.6197 27.9384C38.9493 27.9384 39.1031 27.8724 39.169 27.5209C39.872 24.1596 39.872 20.7983 39.1909 17.437C39.125 17.1295 38.9932 17.0416 38.6856 17.0416C36.4667 17.0636 34.2478 17.0636 32.0509 17.0416C31.6115 17.0416 31.5456 17.1954 31.5456 17.5908C31.5237 19.1726 31.5237 20.7983 31.5237 22.446ZM41.3 17.0196C42.025 20.6665 42.025 24.2695 41.3 27.8724C41.4098 27.8944 41.4757 27.9164 41.5416 27.9164C43.6287 27.9164 45.7158 27.9164 47.8029 27.9384C48.1764 27.9384 48.2203 27.7406 48.2862 27.499C49.2089 24.1596 49.2089 20.8203 48.3082 17.481C48.2203 17.1295 48.0665 17.0416 47.715 17.0416C46.0453 17.0636 44.3977 17.0416 42.728 17.0416C42.2447 17.0196 41.7833 17.0196 41.3 17.0196ZM47.2756 14.8447C45.606 10.341 38.7515 4.54107 35.3024 4.67288C35.7637 5.28802 36.2471 5.90316 36.6864 6.5183C38.422 8.95689 39.7402 11.5932 40.6189 14.4272C40.6848 14.625 40.7068 14.8447 41.0364 14.8227C43.1015 14.8227 45.1666 14.8447 47.2756 14.8447ZM47.2097 30.1133C47.0559 30.1133 46.9241 30.0913 46.7703 30.0913C44.9249 30.0913 43.0795 30.1133 41.2341 30.0694C40.8167 30.0694 40.6848 30.2232 40.553 30.5747C39.7402 33.189 38.5538 35.6276 37.016 37.8904C36.4887 38.6594 35.9175 39.4283 35.3683 40.2192C39.6303 39.626 46.309 33.914 47.2097 30.1133ZM31.5896 3.96986C31.5456 4.07971 31.5237 4.12365 31.5237 4.14562C31.5237 7.5948 31.5237 11.022 31.5017 14.4712C31.5017 14.8666 31.7214 14.8447 31.985 14.8447C33.9842 14.8447 35.9834 14.8227 37.9607 14.8447C38.422 14.8447 38.422 14.7128 38.2902 14.3394C37.6751 12.6258 36.9281 11 35.9834 9.44022C34.7971 7.44101 33.3691 5.59559 31.5896 3.96986ZM38.4 30.1353C38.3122 30.1133 38.2682 30.0913 38.2023 30.0913C36.0933 30.0913 34.0062 30.0913 31.8971 30.0694C31.4577 30.0694 31.5017 30.333 31.5017 30.5966C31.5017 33.8481 31.5017 37.0995 31.5017 40.351C31.5017 40.5268 31.3918 40.7684 31.5896 40.8563C31.8312 40.9661 31.9411 40.7245 32.0729 40.5707C33.7426 38.8571 35.1266 36.9458 36.291 34.8587C37.1698 33.3648 37.8947 31.8049 38.4 30.1353Z" fill="#273D8F" stroke="#273D8F" stroke-width="0.5"/>
<path d="M23.7685 28.5755C23.8783 28.4217 23.8124 28.246 23.8124 28.0922C23.8124 26.2907 23.8124 24.5112 23.8124 22.7097C23.8124 22.3802 23.7246 22.1605 23.4609 21.9188C21.242 20.0734 19.0231 18.206 16.8262 16.3386C16.5845 16.1189 16.2989 15.9212 16.233 15.5697C16.1452 15.0864 16.255 14.6909 16.6724 14.4053C17.1118 14.1197 17.5951 14.1636 17.9906 14.4932C18.8034 15.1742 19.6163 15.8553 20.4292 16.5363C21.5276 17.459 22.6041 18.3598 23.7026 19.3045C23.8783 19.1067 23.7905 18.887 23.7905 18.7113C23.7905 15.4818 23.7905 12.2743 23.7905 9.0448C23.7905 8.80314 23.7685 8.56148 23.8564 8.34179C24.0541 7.85846 24.4056 7.59483 24.9109 7.6168C25.3942 7.63877 25.7238 7.88043 25.8995 8.36376C25.9874 8.60542 25.9654 8.86905 25.9654 9.13268C25.9654 19.9635 25.9874 30.8164 25.9435 41.6472C25.9435 42.3942 26.1192 42.8775 26.6684 43.3169C26.9101 43.5146 27.1078 43.7563 27.3275 43.976C27.9207 44.5691 27.9866 45.1623 27.5033 45.6676C27.0419 46.1509 26.4048 46.107 25.8116 45.5358C25.1526 44.8987 24.4935 44.2616 23.8564 43.6025C23.6586 43.4048 23.5049 43.3388 23.2193 43.4487C16.7823 45.7335 9.55437 43.5146 5.22642 37.2973C2.94162 34.0019 1.42574 30.4209 1.05226 26.4005C0.898473 24.643 1.07423 22.9294 1.71134 21.2817C1.953 20.7984 2.2386 20.5128 2.69995 20.337C4.39159 19.6999 6.12716 19.5022 7.92864 19.634C8.71954 19.6999 8.69757 19.6999 8.76348 18.9529C9.11498 14.603 10.8945 10.8463 13.7725 7.6168C16.5406 4.5411 19.9239 2.43205 23.8344 1.09192C24.5594 0.850261 25.1526 1.09192 25.3503 1.72903C25.548 2.34417 25.2624 2.8934 24.5155 3.15704C21.242 4.27747 18.3421 6.01304 15.9255 8.49557C12.9816 11.5273 11.224 15.1083 10.8725 19.3704C10.8286 19.8976 10.9604 20.1173 11.4877 20.2491C15.2005 21.2378 18.5398 22.9514 21.3299 25.6316C22.1428 26.4005 22.8238 27.3013 23.439 28.224C23.5488 28.3558 23.5927 28.5096 23.7685 28.5755ZM23.1534 40.0215C23.2193 39.9776 23.2852 39.9336 23.3511 39.8897C23.395 39.7359 23.439 39.5821 23.4829 39.4063C24.3836 34.9466 23.3291 30.9921 20.2973 27.6528C17.6391 24.7309 14.2119 23.0832 10.4112 22.1824C8.36803 21.6771 6.30292 21.5453 4.21583 22.0726C3.84236 22.1824 3.64463 22.3582 3.53479 22.7536C3.18328 24.0718 3.13934 25.3899 3.31509 26.7301C3.84236 30.7285 5.49005 34.2655 8.1044 37.3193C11.1362 40.8783 15.0247 42.4601 19.7042 42.0427C20.4072 41.9768 21.1322 41.8669 21.7693 41.6033C20.8246 40.6366 19.9019 39.6919 19.0012 38.7473C18.7156 38.4397 18.408 38.2859 18.0125 38.2639C15.6618 38.0443 13.3111 37.8026 10.9604 37.5829C10.1695 37.517 9.68619 37.0556 9.75209 36.3966C9.818 35.7155 10.3672 35.342 11.2021 35.4299C12.7839 35.5837 14.3876 35.7375 15.9914 35.8913C15.9474 35.6496 15.7717 35.5617 15.6399 35.4299C13.4869 33.2989 11.3119 31.1459 9.15892 29.0149C8.54378 28.3997 8.45591 27.7846 8.93923 27.3013C9.42255 26.818 10.0597 26.8619 10.6748 27.477C11.5975 28.3778 12.4983 29.2785 13.399 30.1793C13.5088 30.2891 13.5747 30.4648 13.7944 30.4209C13.7944 29.5421 13.7944 28.6634 13.7944 27.7846C13.7944 27.0157 14.2119 26.5104 14.849 26.4884C15.508 26.4664 15.9474 26.9717 15.9694 27.7626C15.9914 28.4656 15.9914 29.1906 15.9914 29.8937C15.9914 30.8164 15.7497 31.8709 16.1012 32.6618C16.4527 33.4746 17.3754 34.0458 18.0345 34.7269C19.7481 36.5064 21.4398 38.2639 23.1534 40.0215Z" fill="#273D8F" stroke="#273D8F" stroke-width="0.5"/>
</svg>
