<svg width="56" height="41" viewBox="0 0 56 41" fill="none" xmlns="http://www.w3.org/2000/svg">
<path d="M28.1391 0.999695C32.6551 0.999695 37.1924 0.999695 41.7084 0.999695C46.0761 0.999695 49.4896 3.84078 50.2953 8.12361C50.889 11.1979 51.5038 14.251 52.0975 17.3253C52.1611 17.6434 52.2883 17.7918 52.6063 17.8978C54.1541 18.4278 55.2142 19.8484 55.2566 21.4385C55.299 23.0923 54.3661 24.5765 52.8183 25.1701C52.4367 25.3185 52.3731 25.5305 52.3731 25.8698C52.3519 27.7568 52.4791 29.6438 52.3095 31.5307C51.8855 36.0892 47.6238 39.9692 43.0442 39.9904C39.8214 39.9904 36.5775 39.9904 33.3548 39.9904C33.1428 39.9904 32.9308 39.9904 32.7187 39.9268C32.2311 39.736 31.9767 39.3119 32.0403 38.8031C32.0827 38.3366 32.4431 37.955 32.9308 37.8914C33.1216 37.8702 33.3124 37.8702 33.5032 37.8702C36.5987 37.8702 39.6942 37.8702 42.7685 37.8702C46.7757 37.8702 50.1681 34.5839 50.2317 30.5767C50.2529 29.0289 50.2317 27.4599 50.2529 25.9122C50.2529 25.573 50.1681 25.4669 49.8076 25.4669C48.0267 25.4669 46.4789 26.0394 45.2068 27.2903C42.4929 29.9406 39.2278 31.2127 35.4538 31.2127C30.5349 31.2127 25.6372 31.1915 20.7183 31.2127C17.0292 31.2339 13.8488 29.983 11.1774 27.4175C9.82044 26.1242 8.25149 25.4457 6.3645 25.4669C6.04647 25.4669 5.94046 25.5518 5.94046 25.891C5.96166 27.4387 5.94046 29.0077 5.94046 30.5554C5.94046 34.4142 9.4176 37.8914 13.2764 37.8914C16.6051 37.8914 19.9127 37.8914 23.2414 37.8914C23.411 37.8914 23.6018 37.8914 23.7714 37.8914C24.3439 37.9338 24.7679 38.379 24.7891 38.9091C24.8103 39.4603 24.3863 39.9268 23.8138 39.9904C23.6654 40.0116 23.5382 39.9904 23.3898 39.9904C19.9975 39.9904 16.6051 39.9904 13.2128 39.9904C8.25149 39.9904 3.82024 35.5379 3.82024 30.5767C3.82024 28.9653 3.82024 27.3539 3.82024 25.7638C3.82024 25.4669 3.75664 25.2973 3.43861 25.1701C1.89085 24.534 0.97916 23.1347 1.00036 21.4809C1.02156 19.8696 2.06047 18.4702 3.67183 17.8978C3.94746 17.7918 4.05347 17.6646 4.09587 17.3889C4.71073 14.2298 5.368 11.0495 5.98286 7.89038C6.76734 3.88318 10.2445 0.999695 14.3153 0.999695C18.9162 0.999695 23.5382 0.999695 28.1391 0.999695ZM28.0755 7.78437C25.1284 7.78437 22.1813 7.78437 19.2342 7.78437C17.6864 7.78437 16.6687 8.80207 16.6687 10.3286C16.6687 11.9612 16.6475 13.5726 16.6687 15.2051C16.7747 19.3183 20.4215 23.1135 24.5135 23.3467C26.8669 23.4739 29.2416 23.4739 31.6162 23.3467C35.5386 23.1347 39.0794 19.7 39.4822 15.7776C39.6518 14.039 39.5458 12.2792 39.567 10.5406C39.5882 8.75967 38.5917 7.78437 36.8319 7.78437C33.9061 7.78437 31.0014 7.78437 28.0755 7.78437ZM18.2801 22.8591C18.1741 22.7743 18.0469 22.6895 17.9409 22.6047C15.7358 20.4632 14.5697 17.8554 14.5485 14.7599C14.5273 13.2969 14.5485 11.834 14.5485 10.371C14.5485 10.053 14.5697 9.73497 14.6121 9.41694C15.0786 7.16951 16.902 5.68536 19.2342 5.66416C23.0506 5.64296 26.8669 5.66416 30.6833 5.66416C32.8247 5.66416 34.9662 5.64296 37.0864 5.66416C39.461 5.68536 41.3692 7.31793 41.6024 9.67136C41.7932 11.6644 41.7508 13.6998 41.6024 15.714C41.4328 18.0462 40.4999 20.0816 38.9946 21.8414C38.6765 22.2018 38.3373 22.541 37.9981 22.9015C38.8885 22.6683 39.5882 22.1594 40.2243 21.5445C42.8321 19.0215 45.9489 17.7282 49.5744 17.6858C49.9561 17.6858 50.0197 17.5585 49.9561 17.2193C49.3624 14.2298 48.7899 11.2403 48.1539 8.25082C47.539 5.26132 45.016 3.16231 42.0265 3.14111C32.7399 3.11991 23.4746 3.11991 14.2093 3.14111C11.3046 3.14111 8.73914 5.19771 8.14548 8.0388C7.48821 11.1131 6.91575 14.2086 6.30089 17.2829C6.21608 17.6646 6.3645 17.6646 6.66133 17.6858C7.27619 17.707 7.89105 17.7282 8.50591 17.813C11.4318 18.2158 13.9549 19.4879 16.0539 21.5445C16.6687 22.1382 17.3472 22.6471 18.2801 22.8591ZM28.0331 29.0925C30.4289 29.0925 32.8459 29.0713 35.2418 29.0925C38.5917 29.1349 41.454 28.0324 43.8498 25.679C44.8251 24.7037 46.0125 24.0676 47.3482 23.6648C48.6415 23.2831 49.9773 23.3679 51.2918 23.3467C52.3519 23.3255 53.1364 22.5835 53.1576 21.587C53.1576 20.5905 52.3943 19.8272 51.3342 19.7848C50.7829 19.7636 50.2317 19.7848 49.7016 19.7848C46.6697 19.8272 44.0195 20.8237 41.8568 22.9439C40.0335 24.7249 37.8921 25.5518 35.3478 25.5305C30.5349 25.5093 25.7432 25.5305 20.9304 25.5093C20.3791 25.5093 19.8278 25.4881 19.2978 25.4033C17.3896 25.1277 15.7994 24.2372 14.4425 22.9015C11.7286 20.2936 8.3787 19.5515 4.73194 19.806C3.75664 19.8908 3.07817 20.7177 3.12057 21.6718C3.16298 22.6047 3.92625 23.3255 4.90155 23.3679C5.32559 23.3891 5.74964 23.3891 6.17368 23.3679C8.76034 23.2831 10.923 24.1948 12.7675 25.9758C14.9302 28.0748 17.5592 29.0925 20.5699 29.0925C23.0506 29.0925 25.5524 29.0925 28.0331 29.0925Z" fill="#273D8F" stroke="#273D8F"/>
<path d="M27.291 38.8879C27.3122 38.3154 27.7787 37.8702 28.3511 37.8702C28.9448 37.8914 29.4324 38.4002 29.39 38.9727C29.3688 39.5239 28.86 40.0116 28.3087 39.9904C27.7151 39.9904 27.2698 39.5027 27.291 38.8879Z" fill="#273D8F" stroke="#273D8F"/>
</svg>
