<svg width="52" height="51" viewBox="0 0 52 51" fill="none" xmlns="http://www.w3.org/2000/svg">
<path d="M1.37818 29.6048C8.13398 36.3606 14.8898 43.1361 21.6653 49.8919C21.7638 49.9904 21.8623 50.1086 21.9804 50.2071C22.591 50.7389 23.3789 50.798 23.9895 50.2465C24.5213 49.7935 24.9743 49.242 25.4667 48.7496C27.5151 46.7799 29.5044 44.7709 31.474 42.7422C32.8331 41.4226 34.2315 40.1226 35.4527 38.6848C36.9693 36.9121 38.0526 34.8834 38.6238 32.5986C38.998 31.3775 39.1753 30.0972 39.2146 28.817C39.2934 26.1383 38.7813 23.5778 37.5996 21.1551C37.4617 20.8794 37.4814 20.7021 37.7177 20.4855C38.2495 19.9734 38.7616 19.4416 39.2737 18.9098C41.1449 17.0977 42.9766 15.266 44.7887 13.3948C45.9114 12.2721 47.0537 11.1691 48.1764 10.0465C48.6885 9.53435 49.2597 9.04195 49.7127 8.47075C51.3869 6.83597 51.5445 4.23606 50.087 2.24674C48.3143 -0.156201 44.8281 -0.491036 42.8191 1.57707C41.1646 3.13308 39.5692 4.76786 37.9935 6.38295C36.1617 8.15561 34.3497 9.96767 32.577 11.7994C32.0058 12.3509 31.4346 12.8827 30.9028 13.4539C30.6271 13.7493 30.4104 13.8084 30.0165 13.6115C28.1454 12.7251 26.1954 12.154 24.1273 12.0949C23.9895 11.9964 23.8516 12.0161 23.694 12.0161C20.5426 11.9767 17.5488 12.5676 14.8504 14.2811C14.7125 14.2614 14.6337 14.3402 14.5353 14.3993C12.4278 15.6599 10.8127 17.4522 9.13849 19.2052C9.00062 19.3431 8.84305 19.4613 8.70517 19.5991C6.95221 21.3718 5.17955 23.1642 3.42658 24.9368C2.67812 25.5277 2.06754 26.2565 1.37817 26.9261C0.41306 27.8716 0.41306 28.62 1.37818 29.6048ZM6.00679 26.6701C6.75525 25.9413 7.5037 25.2126 8.21277 24.4641C9.13849 23.499 10.1627 22.6324 11.3051 21.9233C11.4233 21.8445 11.5611 21.7854 11.6005 21.6475C11.6399 21.6475 11.6596 21.6475 11.699 21.6475C11.8763 21.6278 12.0338 21.5097 12.1914 21.4309C14.2792 20.3476 16.4852 19.8355 18.829 19.934C19.1836 19.9537 19.5381 20.1112 19.8926 19.9734C19.9123 19.9537 19.932 19.9143 19.9517 19.8946C20.0305 19.9143 20.1093 19.9537 20.1881 19.9734C24.2258 20.7218 27.2787 22.9278 29.4847 26.3549C30.3513 27.6943 30.8831 29.1912 31.2771 30.7275L31.2771 30.7472C31.2574 30.7472 31.2377 30.7669 31.218 30.7866C31.1392 30.9639 31.1786 31.1411 31.218 31.3184C31.5134 33.2092 31.3558 35.0804 30.7847 36.9121C30.4104 38.0742 29.8392 39.1378 29.268 40.2211C29.268 40.2408 29.2484 40.2605 29.2484 40.2999C29.0908 40.2999 29.0711 40.4771 28.9923 40.5756C28.3817 41.4226 27.6923 42.2301 26.9439 42.9589C25.8606 44.0225 24.7773 45.1058 23.7137 46.1891C23.5758 46.3269 23.3789 46.4254 23.4183 46.6815C23.1228 46.7799 22.9062 46.7602 22.6501 46.5042C16.7018 40.5362 10.7536 34.588 4.80532 28.6594C4.50987 28.364 4.52957 28.1867 4.82502 27.8912C5.10076 27.6352 5.47499 27.4382 5.53408 27.0049C5.77043 27.0246 5.86892 26.808 6.00679 26.6701ZM17.923 16.1523C19.932 15.3447 22.0198 14.9508 24.2061 15.1872C24.4228 15.2069 24.6591 15.2463 24.8561 15.1084C25.053 15.3053 25.3091 15.3053 25.5455 15.3447C28.2241 15.8765 30.5089 17.0977 32.4391 19.0673C34.9209 21.6081 36.1026 24.6611 36.2208 28.1867C36.2405 28.8367 36.1026 29.4472 36.1223 30.0972C36.1223 30.1169 36.1223 30.1563 36.1223 30.176C35.9845 30.2745 36.0239 30.4715 35.9845 30.629C35.7087 32.0865 35.2163 33.4653 34.5072 34.7455C34.4876 34.0956 34.6648 33.4456 34.6057 32.7759C34.586 32.5986 34.6451 32.3623 34.4088 32.2835C34.4088 32.2835 34.4088 32.2835 34.3891 32.3032C34.3891 32.3032 34.3891 32.3032 34.3891 32.2835C34.4285 30.9836 34.1527 29.7427 33.7588 28.5215C32.1043 23.4202 28.7756 19.8749 23.7925 17.9053C21.7441 17.0977 19.5972 16.7235 17.3912 16.9401C17.3715 16.9204 17.3518 16.9204 17.3518 16.9007C17.0564 16.7826 16.7609 16.822 16.5049 16.8614C16.7412 16.6841 17.1155 16.625 17.2927 16.3099C17.4897 16.3689 17.7064 16.2311 17.923 16.1523ZM45.3008 3.527C46.0492 3.13307 46.7977 3.23155 47.4083 3.82244C48.0386 4.43302 48.1567 5.20118 47.7431 5.96933C47.6446 6.1466 47.4674 6.30417 47.5265 6.56022L47.5068 6.57991C47.3295 6.52082 47.231 6.69809 47.1128 6.79657C46.8765 6.99354 46.6598 7.22989 46.4629 7.44655C46.2462 7.68291 46.0689 7.66321 45.8523 7.44655C45.1826 6.77688 44.5129 6.10721 43.8433 5.43753C43.6069 5.20118 43.5675 5.02391 43.8236 4.78756C44.0599 4.59059 44.2766 4.35424 44.4735 4.13758C44.572 4.0391 44.7296 3.94062 44.6705 3.76335L44.6902 3.74366C44.9462 3.80275 45.1038 3.62548 45.3008 3.527ZM35.039 13.5918C36.595 12.0555 38.1314 10.4995 39.6874 8.94346C39.8055 8.82529 39.9631 8.7268 39.9828 8.54954C40.3767 8.37227 40.6131 8.01774 40.9085 7.7223C41.1646 7.46625 41.3418 7.46625 41.5979 7.7223C42.2282 8.39197 42.8781 9.04195 43.5478 9.67223C43.8433 9.94797 43.8039 10.1252 43.5478 10.401C43.1736 10.7752 42.7206 11.11 42.4448 11.5828C42.2676 11.6025 42.1691 11.76 42.0509 11.8782C40.4949 13.4145 38.9586 14.9705 37.4026 16.5265C37.2647 16.6644 37.0875 16.7826 37.1071 16.9992C37.1071 16.9992 37.1071 16.9992 37.0875 17.0189C36.9299 16.9598 36.8314 17.1174 36.7329 17.1962C36.5163 17.3735 36.339 17.5901 36.142 17.7871C35.9648 17.984 35.8072 18.0234 35.6102 17.7871C34.9603 17.0189 34.2906 16.2902 33.5027 15.6796C33.2467 15.4826 33.3058 15.325 33.5027 15.1281C33.7785 14.8523 34.0739 14.5766 34.33 14.3008C34.4285 14.1827 34.6057 14.1039 34.5466 13.9069C34.5466 13.9069 34.5663 13.9069 34.5663 13.8872C34.8027 13.9069 34.9209 13.7296 35.039 13.5918Z" fill="#273D8F"/>
</svg>
